NotoSans-Italic.glyphspackage
{
category = Punctuation;
glyphname = exclam;
layers = (
{
layerId = "891911EE-97A3-4583-AC34-B57874F49FBA";
shapes = (
{
closed = 1;
nodes = (
(82,166,l),
(206,714,l),
(178,714,l),
(58,166,l)
);
},
{
closed = 1;
nodes = (
(53,-1,o),
(62,26,o),
(62,43,cs),
(62,60,o),
(55,68,o),
(44,68,cs),
(24,68,o),
(15,42,o),
(15,23,cs),
(15,8,o),
(22,-1,o),
(33,-1,cs)
);
}
);
width = 202;
},
{
layerId = "4ABFEEF6-B0FE-443E-B48D-B4A70A3A2C9A";
shapes = (
{
closed = 1;
nodes = (
(101,174,l),
(219,714,l),
(191,714,l),
(77,174,l)
);
},
{
closed = 1;
nodes = (
(74,-8,o),
(84,14,o),
(84,32,cs),
(84,43,o),
(78,54,o),
(62,54,cs),
(42,54,o),
(32,32,o),
(32,14,cs),
(32,0,o),
(41,-8,o),
(55,-8,cs)
);
}
);
width = 210;
},
{
layerId = "FAB9F01D-70CE-4F71-A270-EC67BDAC6531";
shapes = (
{
closed = 1;
nodes = (
(195,237,l),
(316,714,l),
(150,714,l),
(69,237,l)
);
},
{
closed = 1;
nodes = (
(147,-13,o),
(185,27,o),
(185,82,cs),
(185,127,o),
(156,153,o),
(112,153,cs),
(39,153,o),
(12,104,o),
(12,56,cs),
(12,21,o),
(32,-13,o),
(88,-13,cs)
);
}
);
width = 286;
},
{
layerId = "E7382CC2-7CD9-4594-B524-5D480E09B385";
shapes = (
{
closed = 1;
nodes = (
(161,226,l),
(283,714,l),
(145,714,l),
(59,226,l)
);
},
{
closed = 1;
nodes = (
(108,-10,o),
(148,31,o),
(148,90,cs),
(148,125,o),
(127,146,o),
(92,146,cs),
(33,146,o),
(1,98,o),
(1,46,cs),
(1,9,o),
(23,-10,o),
(62,-10,cs)
);
}
);
width = 247;
},
{
layerId = "9733853B-DD8E-49B4-939D-1F0D465E8B6E";
shapes = (
{
closed = 1;
nodes = (
(148,201,l),
(275,714,l),
(168,714,l),
(77,201,l)
);
},
{
closed = 1;
nodes = (
(123,-14,o),
(146,28,o),
(146,67,cs),
(146,102,o),
(125,121,o),
(95,121,cs),
(43,121,o),
(20,82,o),
(20,40,cs),
(20,6,o),
(39,-14,o),
(73,-14,cs)
);
}
);
width = 261;
},
{
layerId = "A849C433-1DA2-4174-AEA9-F403839AA1E5";
shapes = (
{
closed = 1;
nodes = (
(124,199,l),
(250,714,l),
(159,714,l),
(61,199,l)
);
},
{
closed = 1;
nodes = (
(88,-8,o),
(115,26,o),
(115,71,cs),
(115,98,o),
(100,115,o),
(76,115,cs),
(33,115,o),
(10,77,o),
(10,35,cs),
(10,7,o),
(27,-8,o),
(52,-8,cs)
);
}
);
width = 235;
},
{
layerId = "1C9FFC3E-B033-49C1-8526-F3CD51FE3A6C";
shapes = (
{
closed = 1;
nodes = (
(194,252,l),
(314,714,l),
(131,714,l),
(55,252,l)
);
},
{
closed = 1;
nodes = (
(129,-12,o),
(180,35,o),
(180,108,cs),
(180,150,o),
(153,175,o),
(109,175,cs),
(34,175,o),
(-6,118,o),
(-6,56,cs),
(-6,11,o),
(21,-12,o),
(72,-12,cs)
);
}
);
width = 259;
},
{
layerId = "84606D06-D269-45BD-896C-8402F9D7AD38";
shapes = (
{
closed = 1;
nodes = (
(221,252,l),
(345,714,l),
(137,714,l),
(61,252,l)
);
},
{
closed = 1;
nodes = (
(165,-12,o),
(213,25,o),
(213,100,cs),
(213,148,o),
(181,176,o),
(125,176,cs),
(45,176,o),
(6,126,o),
(6,62,cs),
(6,24,o),
(28,-12,o),
(97,-12,cs)
);
}
);
width = 304;
}
);
script = "";
subCategory = Other;
unicode = 33;
}
{
category = Punctuation;
glyphname = quotedbl;
kernLeft = quote.right;
kernRight = quote.left;
layers = (
{
layerId = "891911EE-97A3-4583-AC34-B57874F49FBA";
shapes = (
{
closed = 1;
nodes = (
(228,456,l),
(289,714,l),
(260,714,l),
(210,456,l)
);
},
{
closed = 1;
nodes = (
(113,456,l),
(174,714,l),
(145,714,l),
(95,456,l)
);
}
);
width = 257;
},
{
layerId = "4ABFEEF6-B0FE-443E-B48D-B4A70A3A2C9A";
shapes = (
{
closed = 1;
nodes = (
(268,456,l),
(327,714,l),
(299,714,l),
(248,456,l)
);
},
{
closed = 1;
nodes = (
(130,456,l),
(189,714,l),
(161,714,l),
(110,456,l)
);
}
);
width = 310;
},
{
layerId = "FAB9F01D-70CE-4F71-A270-EC67BDAC6531";
shapes = (
{
closed = 1;
nodes = (
(392,456,l),
(466,714,l),
(331,714,l),
(295,456,l)
);
},
{
closed = 1;
nodes = (
(194,456,l),
(268,714,l),
(133,714,l),
(98,456,l)
);
}
);
width = 453;
},
{
layerId = "E7382CC2-7CD9-4594-B524-5D480E09B385";
shapes = (
{
closed = 1;
nodes = (
(374,456,l),
(445,714,l),
(315,714,l),
(276,456,l)
);
},
{
closed = 1;
nodes = (
(193,456,l),
(263,714,l),
(134,714,l),
(95,456,l)
);
}
);
width = 395;
},
{
layerId = "9733853B-DD8E-49B4-939D-1F0D465E8B6E";
shapes = (
{
closed = 1;
nodes = (
(337,456,l),
(412,714,l),
(316,714,l),
(281,456,l)
);
},
{
closed = 1;
nodes = (
(165,456,l),
(240,714,l),
(144,714,l),
(109,456,l)
);
}
);
width = 392;
},
{
layerId = "A849C433-1DA2-4174-AEA9-F403839AA1E5";
shapes = (
{
closed = 1;
nodes = (
(309,456,l),
(378,714,l),
(292,714,l),
(250,456,l)
);
},
{
closed = 1;
nodes = (
(158,456,l),
(226,714,l),
(140,714,l),
(99,456,l)
);
}
);
width = 338;
},
{
layerId = "1C9FFC3E-B033-49C1-8526-F3CD51FE3A6C";
shapes = (
{
closed = 1;
nodes = (
(435,456,l),
(508,714,l),
(338,714,l),
(301,456,l)
);
},
{
closed = 1;
nodes = (
(226,456,l),
(298,714,l),
(129,714,l),
(92,456,l)
);
}
);
width = 450;
},
{
layerId = "84606D06-D269-45BD-896C-8402F9D7AD38";
shapes = (
{
closed = 1;
nodes = (
(430,456,l),
(507,714,l),
(340,714,l),
(304,456,l)
);
},
{
closed = 1;
nodes = (
(214,456,l),
(291,714,l),
(124,714,l),
(89,456,l)
);
}
);
width = 454;
}
);
script = "";
subCategory = Other;
unicode = 34;
}
{
category = Punctuation;
glyphname = numbersign;
layers = (
{
layerId = "891911EE-97A3-4583-AC34-B57874F49FBA";
shapes = (
{
closed = 1;
nodes = (
(28,0,l),
(100,235,l),
(206,235,l),
(134,0,l),
(160,0,l),
(232,235,l),
(311,235,l),
(311,260,l),
(240,260,l),
(308,481,l),
(382,481,l),
(382,506,l),
(316,506,l),
(380,714,l),
(354,714,l),
(290,506,l),
(184,506,l),
(248,714,l),
(222,714,l),
(158,506,l),
(74,506,l),
(74,481,l),
(150,481,l),
(82,260,l),
(3,260,l),
(3,235,l),
(74,235,l),
(2,0,l)
);
},
{
closed = 1;
nodes = (
(176,481,l),
(282,481,l),
(214,260,l),
(108,260,l)
);
}
);
width = 366;
},
{
layerId = "4ABFEEF6-B0FE-443E-B48D-B4A70A3A2C9A";
shapes = (
{
closed = 1;
nodes = (
(132,0,l),
(198,227,l),
(387,227,l),
(319,0,l),
(345,0,l),
(413,227,l),
(560,227,l),
(562,251,l),
(419,251,l),
(478,462,l),
(622,462,l),
(624,486,l),
(484,486,l),
(550,714,l),
(525,714,l),
(459,486,l),
(273,486,l),
(338,714,l),
(313,714,l),
(247,486,l),
(99,486,l),
(97,462,l),
(240,462,l),
(178,251,l),
(37,251,l),
(35,227,l),
(172,227,l),
(107,0,l)
);
},
{
closed = 1;
nodes = (
(266,462,l),
(452,462,l),
(393,251,l),
(204,251,l)
);
}
);
width = 614;
},
{
layerId = "9733853B-DD8E-49B4-939D-1F0D465E8B6E";
shapes = (
{
closed = 1;
nodes = (
(166,0,l),
(227,209,l),
(371,209,l),
(308,0,l),
(380,0,l),
(440,209,l),
(591,209,l),
(597,275,l),
(459,275,l),
(506,437,l),
(647,437,l),
(654,502,l),
(526,502,l),
(586,714,l),
(518,714,l),
(456,502,l),
(312,502,l),
(373,714,l),
(301,714,l),
(241,502,l),
(95,502,l),
(89,437,l),
(223,437,l),
(175,275,l),
(36,275,l),
(30,209,l),
(156,209,l),
(97,0,l)
);
},
{
closed = 1;
nodes = (
(292,437,l),
(435,437,l),
(390,275,l),
(246,275,l)
);
}
);
width = 646;
},
{
layerId = "A849C433-1DA2-4174-AEA9-F403839AA1E5";
shapes = (
{
closed = 1;
nodes = (
(65,0,l),
(132,218,l),
(222,218,l),
(153,0,l),
(214,0,l),
(282,218,l),
(368,218,l),
(379,280,l),
(301,280,l),
(355,451,l),
(436,451,l),
(448,513,l),
(375,513,l),
(437,714,l),
(377,714,l),
(314,513,l),
(225,513,l),
(288,714,l),
(227,714,l),
(165,513,l),
(79,513,l),
(68,451,l),
(145,451,l),
(91,280,l),
(11,280,l),
(0,218,l),
(72,218,l),
(4,0,l)
);
},
{
closed = 1;
nodes = (
(206,451,l),
(295,451,l),
(241,280,l),
(152,280,l)
);
}
);
width = 423;
},
{
layerId = "1C9FFC3E-B033-49C1-8526-F3CD51FE3A6C";
shapes = (
{
closed = 1;
nodes = (
(138,0,l),
(198,191,l),
(261,191,l),
(201,0,l),
(318,0,l),
(379,191,l),
(477,191,l),
(498,305,l),
(414,305,l),
(447,407,l),
(539,407,l),
(561,524,l),
(482,524,l),
(543,714,l),
(424,714,l),
(364,524,l),
(302,524,l),
(363,714,l),
(245,714,l),
(185,524,l),
(88,524,l),
(67,407,l),
(150,407,l),
(116,305,l),
(25,305,l),
(4,191,l),
(81,191,l),
(21,0,l)
);
},
{
closed = 1;
nodes = (
(267,407,l),
(329,407,l),
(296,305,l),
(234,305,l)
);
}
);
width = 528;
},
{
layerId = "84606D06-D269-45BD-896C-8402F9D7AD38";
shapes = (
{
closed = 1;
nodes = (
(191,0,l),
(246,192,l),
(328,192,l),
(273,0,l),
(405,0,l),
(459,192,l),
(602,192,l),
(612,308,l),
(493,308,l),
(521,406,l),
(653,406,l),
(663,524,l),
(555,524,l),
(609,714,l),
(477,714,l),
(423,524,l),
(341,524,l),
(395,714,l),
(263,714,l),
(209,524,l),
(70,524,l),
(60,406,l),
(175,406,l),
(147,308,l),
(17,308,l),
(7,192,l),
(114,192,l),
(59,0,l)
);
},
{
closed = 1;
nodes = (
(307,406,l),
(389,406,l),
(361,308,l),
(279,308,l)
);
}
);
width = 646;
}
);
script = "";
subCategory = Other;
unicode = 35;
}
{
category = Symbol;
glyphname = dollar;
layers = (
{
layerId = "891911EE-97A3-4583-AC34-B57874F49FBA";
shapes = (
{
closed = 1;
nodes = (
(80,-58,l),
(104,-58,l),
(125,38,l),
(224,44,o),
(281,104,o),
(281,206,cs),
(281,264,o),
(243,309,o),
(193,362,c),
(255,653,l),
(301,651,o),
(332,636,o),
(351,624,c),
(363,647,l),
(345,658,o),
(309,674,o),
(260,677,c),
(278,760,l),
(254,760,l),
(236,677,l),
(142,673,o),
(82,620,o),
(82,517,cs),
(82,447,o),
(122,405,o),
(168,354,c),
(106,62,l),
(52,63,o),
(15,74,o),
(-10,89,c),
(-10,62,l),
(12,52,o),
(48,39,o),
(100,38,c)
);
},
{
closed = 1;
nodes = (
(187,332,l),
(229,286,o),
(255,254,o),
(255,206,cs),
(255,118,o),
(213,69,o),
(130,63,c)
);
},
{
closed = 1;
nodes = (
(174,383,l),
(134,427,o),
(108,463,o),
(108,519,cs),
(108,603,o),
(152,648,o),
(231,653,c)
);
}
);
width = 341;
},
{
layerId = "4ABFEEF6-B0FE-443E-B48D-B4A70A3A2C9A";
shapes = (
{
closed = 1;
nodes = (
(191,-58,l),
(215,-58,l),
(239,50,l),
(352,55,o),
(453,115,o),
(453,223,cs),
(453,308,o),
(393,334,o),
(307,370,c),
(367,650,l),
(411,646,o),
(454,639,o),
(502,617,c),
(513,641,l),
(470,661,o),
(421,671,o),
(372,675,c),
(389,758,l),
(365,758,l),
(348,675,l),
(236,670,o),
(136,616,o),
(136,505,cs),
(136,420,o),
(196,385,o),
(280,353,c),
(221,75,l),
(149,76,o),
(90,90,o),
(51,107,c),
(51,79,l),
(85,65,o),
(146,50,o),
(215,50,c)
);
},
{
closed = 1;
nodes = (
(301,344,l),
(378,312,o),
(427,289,o),
(427,221,cs),
(427,131,o),
(341,80,o),
(245,75,c)
);
},
{
closed = 1;
nodes = (
(285,378,l),
(218,407,o),
(164,431,o),
(164,507,cs),
(164,594,o),
(243,645,o),
(343,650,c)
);
}
);
width = 550;
},
{
layerId = "9733853B-DD8E-49B4-939D-1F0D465E8B6E";
shapes = (
{
closed = 1;
nodes = (
(166,-58,l),
(231,-58,l),
(255,51,l),
(372,64,o),
(464,124,o),
(464,240,cs),
(464,318,o),
(418,357,o),
(327,391,c),
(372,600,l),
(418,597,o),
(461,581,o),
(492,564,c),
(525,635,l),
(485,656,o),
(438,668,o),
(387,672,c),
(405,758,l),
(340,758,l),
(321,673,l),
(206,662,o),
(119,605,o),
(119,492,cs),
(119,408,o),
(169,367,o),
(251,337,c),
(204,122,l),
(152,123,o),
(86,139,o),
(34,166,c),
(34,86,l),
(75,66,o),
(135,53,o),
(190,50,c)
);
},
{
closed = 1;
nodes = (
(311,314,l),
(361,294,o),
(380,268,o),
(380,233,cs),
(380,170,o),
(331,133,o),
(270,125,c)
);
},
{
closed = 1;
nodes = (
(267,414,l),
(222,431,o),
(200,460,o),
(200,494,cs),
(200,559,o),
(243,593,o),
(306,600,c)
);
}
);
width = 551;
},
{
layerId = "A849C433-1DA2-4174-AEA9-F403839AA1E5";
shapes = (
{
closed = 1;
nodes = (
(98,-58,l),
(139,-58,l),
(161,48,l),
(264,58,o),
(335,121,o),
(335,231,cs),
(335,311,o),
(291,353,o),
(235,396,c),
(280,610,l),
(317,607,o),
(346,594,o),
(374,576,c),
(409,641,l),
(380,659,o),
(346,674,o),
(295,677,c),
(312,760,l),
(272,760,l),
(254,677,l),
(155,669,o),
(85,610,o),
(85,497,cs),
(85,421,o),
(134,380,o),
(183,342,c),
(136,116,l),
(82,119,o),
(37,139,o),
(10,160,c),
(0,81,l),
(26,64,o),
(68,50,o),
(121,48,c)
);
},
{
closed = 1;
nodes = (
(217,315,l),
(253,281,o),
(264,257,o),
(264,220,cs),
(264,168,o),
(238,127,o),
(176,119,c)
);
},
{
closed = 1;
nodes = (
(201,424,l),
(167,455,o),
(155,477,o),
(155,508,cs),
(155,562,o),
(183,601,o),
(240,609,c)
);
}
);
width = 391;
},
{
layerId = "1C9FFC3E-B033-49C1-8526-F3CD51FE3A6C";
shapes = (
{
closed = 1;
nodes = (
(142,-59,l),
(193,-58,l),
(213,35,l),
(317,45,o),
(419,116,o),
(419,264,cs),
(419,362,o),
(351,402,o),
(297,434,c),
(323,556,l),
(356,551,o),
(388,534,o),
(422,506,c),
(493,644,l),
(459,667,o),
(422,686,o),
(352,691,c),
(366,759,l),
(315,759,l),
(301,691,l),
(201,685,o),
(95,624,o),
(95,471,cs),
(95,378,o),
(164,332,o),
(218,302,c),
(191,171,l),
(142,177,o),
(89,208,o),
(47,246,c),
(13,83,l),
(48,58,o),
(90,38,o),
(162,35,c)
);
},
{
closed = 1;
nodes = (
(263,272,l),
(274,261,o),
(281,248,o),
(281,231,cs),
(281,203,o),
(265,185,o),
(243,176,c)
);
},
{
closed = 1;
nodes = (
(253,464,l),
(240,474,o),
(232,486,o),
(232,500,cs),
(232,526,o),
(244,547,o),
(272,555,c)
);
}
);
width = 474;
},
{
layerId = "84606D06-D269-45BD-896C-8402F9D7AD38";
shapes = (
{
closed = 1;
nodes = (
(179,-59,l),
(261,-59,l),
(280,32,l),
(420,40,o),
(525,115,o),
(525,240,cs),
(525,321,o),
(479,369,o),
(363,421,c),
(392,556,l),
(437,551,o),
(489,538,o),
(525,519,c),
(574,650,l),
(525,674,o),
(475,688,o),
(421,693,c),
(436,760,l),
(354,760,l),
(340,695,l),
(188,686,o),
(92,616,o),
(92,492,cs),
(92,400,o),
(156,347,o),
(258,308,c),
(229,172,l),
(169,177,o),
(96,196,o),
(27,228,c),
(30,79,l),
(64,58,o),
(118,40,o),
(199,34,c)
);
},
{
closed = 1;
nodes = (
(332,278,l),
(352,266,o),
(365,251,o),
(365,227,cs),
(365,203,o),
(350,184,o),
(310,175,c)
);
},
{
closed = 1;
nodes = (
(289,455,l),
(272,465,o),
(263,477,o),
(263,499,cs),
(263,525,o),
(273,546,o),
(311,554,c)
);
}
);
width = 580;
}
);
script = "";
subCategory = Currency;
unicode = 36;
}
{
category = Symbol;
color = 10;
glyphname = percent;
layers = (
{
layerId = "891911EE-97A3-4583-AC34-B57874F49FBA";
shapes = (
{
closed = 1;
nodes = (
(102,0,l),
(453,714,l),
(427,714,l),
(74,0,l)
);
},
{
closed = 1;
nodes = (
(213,276,o),
(261,517,o),
(261,628,cs),
(261,697,o),
(239,724,o),
(200,724,cs),
(98,724,o),
(47,506,o),
(47,380,cs),
(47,302,o),
(72,276,o),
(109,276,cs)
);
},
{
closed = 1;
nodes = (
(89,301,o),
(73,319,o),
(73,384,cs),
(73,494,o),
(123,699,o),
(197,699,cs),
(221,699,o),
(235,682,o),
(235,626,cs),
(235,538,o),
(190,301,o),
(112,301,cs)
);
},
{
closed = 1;
nodes = (
(432,-12,o),
(480,229,o),
(480,340,cs),
(480,409,o),
(458,436,o),
(419,436,cs),
(317,436,o),
(266,218,o),
(266,92,cs),
(266,14,o),
(291,-12,o),
(328,-12,cs)
);
},
{
closed = 1;
nodes = (
(308,13,o),
(292,31,o),
(292,96,cs),
(292,206,o),
(342,411,o),
(416,411,cs),
(440,411,o),
(454,394,o),
(454,338,cs),
(454,250,o),
(409,13,o),
(331,13,cs)
);
}
);
width = 520;
},
{
layerId = "4ABFEEF6-B0FE-443E-B48D-B4A70A3A2C9A";
shapes = (
{
closed = 1;
nodes = (
(150,0,l),
(677,714,l),
(647,714,l),
(120,0,l)
);
},
{
closed = 1;
nodes = (
(322,276,o),
(369,487,o),
(369,595,cs),
(369,682,o),
(334,724,o),
(268,724,cs),
(136,724,o),
(86,522,o),
(86,408,cs),
(86,318,o),
(124,276,o),
(188,276,cs)
);
},
{
closed = 1;
nodes = (
(142,301,o),
(113,335,o),
(113,410,cs),
(113,511,o),
(156,699,o),
(267,699,cs),
(317,699,o),
(342,666,o),
(342,593,cs),
(342,492,o),
(301,301,o),
(189,301,cs)
);
},
{
closed = 1;
nodes = (
(661,-12,o),
(708,199,o),
(708,307,cs),
(708,394,o),
(673,436,o),
(607,436,cs),
(475,436,o),
(425,234,o),
(425,120,cs),
(425,30,o),
(463,-12,o),
(527,-12,cs)
);
},
{
closed = 1;
nodes = (
(481,13,o),
(452,47,o),
(452,122,cs),
(452,223,o),
(495,411,o),
(606,411,cs),
(656,411,o),
(681,378,o),
(681,305,cs),
(681,204,o),
(640,13,o),
(528,13,cs)
);
}
);
width = 763;
},
{
associatedMasterId = "9733853B-DD8E-49B4-939D-1F0D465E8B6E";
attr = {
coordinates = (
151,
100
);
};
background = {
shapes = (
{
closed = 1;
nodes = (
(239.41,0,l),
(765.67,714,l),
(654.45,714,l),
(126.53,0,l)
);
},
{
closed = 1;
nodes = (
(358.38,276,o),
(405.21,465.58,o),
(405.21,571.66,cs),
(405.21,667.95,o),
(358.87,724,o),
(267.82,724,cs),
(112.41,724,o),
(65.09,541.88,o),
(65.09,431.9,cs),
(65.09,329.17,o),
(114.7,276,o),
(202.92,276,cs)
);
},
{
closed = 1;
nodes = (
(185.36,368.61,o),
(173.41,388.73,o),
(173.41,427.02,cs),
(173.41,499,o),
(201.95,631.61,o),
(260.26,631.61,cs),
(284.99,631.61,o),
(296.72,614.05,o),
(296.72,574.37,cs),
(296.72,513.12,o),
(270.01,368.61,o),
(209.87,368.61,cs)
);
},
{
closed = 1;
nodes = (
(783.55,-10.22,o),
(830.16,180.19,o),
(830.16,285.83,cs),
(830.16,382.12,o),
(783.82,437.78,o),
(692.38,437.78,cs),
(537.43,437.78,o),
(490.04,254.41,o),
(490.04,145.29,cs),
(490.04,42.56,o),
(539.26,-10.22,o),
(627.87,-10.22,cs)
);
},
{
closed = 1;
nodes = (
(610.31,82.78,o),
(599.14,102.51,o),
(599.14,140.8,cs),
(599.14,214.32,o),
(627.34,345.39,o),
(685.21,345.39,cs),
(710.33,345.39,o),
(722.06,327.83,o),
(722.06,287.76,cs),
(722.06,227.12,o),
(695.35,82.78,o),
(635.21,82.78,cs)
);
}
);
};
layerId = "a7fcf0c3-5edf-48ff-a003-07a691361fc5";
name = "SemiBold Italic (intermediate)";
shapes = (
{
closed = 1;
nodes = (
(230,0,l),
(759,714,l),
(644,714,l),
(113,0,l)
);
},
{
closed = 1;
nodes = (
(350,276,o),
(401,455,o),
(401,569,cs),
(401,671,o),
(350,724,o),
(261,724,cs),
(107,724,o),
(56,550,o),
(56,432,cs),
(56,333,o),
(104,276,o),
(194,276,cs)
);
},
{
closed = 1;
nodes = (
(185,377,o),
(176,393,o),
(176,424,cs),
(176,512,o),
(209,622,o),
(253,622,cs),
(272,622,o),
(281,607,o),
(281,575,cs),
(281,495,o),
(251,377,o),
(203,377,cs)
);
},
{
closed = 1;
nodes = (
(768,-9,o),
(820,167,o),
(820,288,cs),
(820,386,o),
(769,439,o),
(680,439,cs),
(531,439,o),
(475,278,o),
(475,138,cs),
(475,45,o),
(523,-9,o),
(616,-9,cs)
);
},
{
closed = 1;
nodes = (
(604,92,o),
(595,108,o),
(595,139,cs),
(595,227,o),
(628,337,o),
(672,337,cs),
(691,337,o),
(700,322,o),
(700,290,cs),
(700,210,o),
(670,92,o),
(622,92,cs)
);
}
);
width = 856;
},
{
associatedMasterId = "A849C433-1DA2-4174-AEA9-F403839AA1E5";
attr = {
coordinates = (
151,
70
);
};
background = {
shapes = (
{
closed = 1;
nodes = (
(227.76,0,l),
(617.28,714,l),
(517.07,714,l),
(126.77,0,l)
);
},
{
closed = 1;
nodes = (
(291.14,276,o),
(344.19,485.26,o),
(344.19,587.43,cs),
(344.19,681.73,o),
(302.82,724,o),
(238.79,724,cs),
(108.15,724,o),
(52.27,520.35,o),
(52.27,411.13,cs),
(52.27,320.49,o),
(89.2,276,o),
(157.67,276,cs)
);
},
{
closed = 1;
nodes = (
(156.21,366.11,o),
(148.04,379.06,o),
(148.04,409.91,cs),
(148.04,471.37,o),
(180.94,633.06,o),
(226.52,633.06,cs),
(241.25,633.06,o),
(247.81,619.72,o),
(247.81,589.87,cs),
(247.81,529.58,o),
(215.91,366.11,o),
(169.94,366.11,cs)
);
},
{
closed = 1;
nodes = (
(639.9,-8.78,o),
(694.56,196.65,o),
(694.56,302.65,cs),
(694.56,397.56,o),
(653.19,439.22,o),
(589.16,439.22,cs),
(470.45,439.22,o),
(403.25,261.21,o),
(403.25,126.35,cs),
(403.25,35.71,o),
(439.57,-8.78,o),
(508.65,-8.78,cs)
);
},
{
closed = 1;
nodes = (
(506.19,81.94,o),
(498.63,95.28,o),
(498.63,125.13,cs),
(498.63,172.05,o),
(526.48,348.28,o),
(576.5,348.28,cs),
(590.84,348.28,o),
(598.4,334.94,o),
(598.4,305.48,cs),
(598.4,241.97,o),
(566.5,81.94,o),
(520.53,81.94,cs)
);
}
);
};
layerId = "ba248ea6-e865-480b-9f34-b7a4b3c9c278";
name = "SemiBold Condensed Italic (intermediate)";
shapes = (
{
closed = 1;
nodes = (
(217,0,l),
(604,714,l),
(509,714,l),
(122,0,l)
);
},
{
closed = 1;
nodes = (
(285,276,o),
(338,488,o),
(338,591,cs),
(338,682,o),
(298,724,o),
(236,724,cs),
(107,724,o),
(52,518,o),
(52,408,cs),
(52,319,o),
(88,276,o),
(154,276,cs)
);
},
{
closed = 1;
nodes = (
(151,361,o),
(142,375,o),
(142,407,cs),
(142,471,o),
(176,638,o),
(224,638,cs),
(239,638,o),
(246,624,o),
(246,593,cs),
(246,531,o),
(213,361,o),
(165,361,cs)
);
},
{
closed = 1;
nodes = (
(623,-9,o),
(677,200,o),
(677,306,cs),
(677,398,o),
(637,439,o),
(575,439,cs),
(458,439,o),
(392,257,o),
(392,123,cs),
(392,34,o),
(427,-9,o),
(494,-9,cs)
);
},
{
closed = 1;
nodes = (
(490,77,o),
(482,91,o),
(482,122,cs),
(482,173,o),
(511,353,o),
(563,353,cs),
(578,353,o),
(586,339,o),
(586,308,cs),
(586,243,o),
(553,77,o),
(505,77,cs)
);
}
);
width = 704;
},
{
layerId = "9733853B-DD8E-49B4-939D-1F0D465E8B6E";
shapes = (
{
closed = 1;
nodes = (
(191,0,l),
(721,714,l),
(643,714,l),
(113,0,l)
);
},
{
closed = 1;
nodes = (
(345,276,o),
(387,497,o),
(387,587,cs),
(387,675,o),
(346,724,o),
(270,724,cs),
(116,724,o),
(80,518,o),
(80,421,cs),
(80,327,o),
(122,276,o),
(195,276,cs)
);
},
{
closed = 1;
nodes = (
(168,342,o),
(152,369,o),
(152,422,cs),
(152,489,o),
(177,659,o),
(264,659,cs),
(297,659,o),
(315,636,o),
(315,581,cs),
(315,530,o),
(290,342,o),
(202,342,cs)
);
},
{
closed = 1;
nodes = (
(712,-10,o),
(755,211,o),
(755,302,cs),
(755,389,o),
(714,438,o),
(637,438,cs),
(484,438,o),
(447,233,o),
(447,134,cs),
(447,40,o),
(489,-10,o),
(562,-10,cs)
);
},
{
closed = 1;
nodes = (
(535,56,o),
(520,83,o),
(520,136,cs),
(520,203,o),
(544,373,o),
(631,373,cs),
(664,373,o),
(682,350,o),
(682,295,cs),
(682,245,o),
(657,56,o),
(569,56,cs)
);
}
);
width = 799;
},
{
layerId = "A849C433-1DA2-4174-AEA9-F403839AA1E5";
shapes = (
{
closed = 1;
nodes = (
(157,0,l),
(527,714,l),
(464,714,l),
(92,0,l)
);
},
{
closed = 1;
nodes = (
(246,276,o),
(296,506,o),
(296,610,cs),
(296,686,o),
(265,724,o),
(215,724,cs),
(99,724,o),
(48,499,o),
(48,391,cs),
(48,315,o),
(77,276,o),
(129,276,cs)
);
},
{
closed = 1;
nodes = (
(119,335,o),
(109,351,o),
(109,391,cs),
(109,461,o),
(148,666,o),
(207,666,cs),
(226,666,o),
(235,649,o),
(235,610,cs),
(235,543,o),
(197,335,o),
(137,335,cs)
);
},
{
closed = 1;
nodes = (
(524,-10,o),
(575,218,o),
(575,324,cs),
(575,400,o),
(544,438,o),
(494,438,cs),
(382,438,o),
(327,224,o),
(327,105,cs),
(327,29,o),
(356,-10,o),
(408,-10,cs)
);
},
{
closed = 1;
nodes = (
(397,49,o),
(387,66,o),
(387,105,cs),
(387,169,o),
(424,380,o),
(485,380,cs),
(503,380,o),
(513,363,o),
(513,325,cs),
(513,256,o),
(475,49,o),
(415,49,cs)
);
}
);
width = 608;
},
{
layerId = "1C9FFC3E-B033-49C1-8526-F3CD51FE3A6C";
shapes = (
{
closed = 1;
nodes = (
(273,0,l),
(675,714,l),
(551,714,l),
(149,0,l)
);
},
{
closed = 1;
nodes = (
(320,276,o),
(375,472,o),
(375,573,cs),
(375,679,o),
(327,724,o),
(254,724,cs),
(114,724,o),
(55,534,o),
(55,424,cs),
(55,324,o),
(97,276,o),
(176,276,cs)
);
},
{
closed = 1;
nodes = (
(180,386,o),
(173,397,o),
(173,422,cs),
(173,478,o),
(202,612,o),
(239,612,cs),
(251,612,o),
(256,601,o),
(256,577,cs),
(256,521,o),
(228,386,o),
(191,386,cs)
);
},
{
closed = 1;
nodes = (
(714,-8,o),
(771,183,o),
(771,289,cs),
(771,396,o),
(723,440,o),
(650,440,cs),
(527,440,o),
(452,285,o),
(452,140,cs),
(452,40,o),
(493,-8,o),
(573,-8,cs)
);
},
{
closed = 1;
nodes = (
(576,103,o),
(570,114,o),
(570,138,cs),
(570,174,o),
(592,328,o),
(635,328,cs),
(647,328,o),
(653,317,o),
(653,293,cs),
(653,233,o),
(625,103,o),
(588,103,cs)
);
}
);
width = 791;
},
{
layerId = "84606D06-D269-45BD-896C-8402F9D7AD38";
shapes = (
{
closed = 1;
nodes = (
(288,0,l),
(816,714,l),
(675,714,l),
(143,0,l)
);
},
{
closed = 1;
nodes = (
(377,276,o),
(427,441,o),
(427,556,cs),
(427,663,o),
(375,724,o),
(271,724,cs),
(112,724,o),
(56,561,o),
(56,444,cs),
(56,333,o),
(112,276,o),
(214,276,cs)
);
},
{
closed = 1;
nodes = (
(205,394,o),
(197,408,o),
(197,435,cs),
(197,506,o),
(226,606,o),
(262,606,cs),
(281,606,o),
(288,593,o),
(288,565,cs),
(288,500,o),
(262,394,o),
(223,394,cs)
);
},
{
closed = 1;
nodes = (
(857,-10,o),
(907,155,o),
(907,270,cs),
(907,377,o),
(855,438,o),
(751,438,cs),
(592,438,o),
(536,275,o),
(536,158,cs),
(536,47,o),
(592,-10,o),
(694,-10,cs)
);
},
{
closed = 1;
nodes = (
(685,108,o),
(677,122,o),
(677,149,cs),
(677,220,o),
(706,320,o),
(742,320,cs),
(761,320,o),
(768,307,o),
(768,279,cs),
(768,214,o),
(742,108,o),
(703,108,cs)
);
}
);
width = 930;
}
);
script = "";
subCategory = Math;
unicode = 37;
}
{
category = Symbol;
color = 10;
glyphname = ampersand;
layers = (
{
layerId = "891911EE-97A3-4583-AC34-B57874F49FBA";
shapes = (
{
closed = 1;
nodes = (
(151,-10,o),
(187,38,o),
(214,85,c),
(235,0,l),
(258,0,l),
(233,109,l),
(265,171,o),
(290,239,o),
(303,299,c),
(278,299,l),
(265,242,o),
(244,186,o),
(224,144,c),
(165,380,l),
(237,447,o),
(287,534,o),
(287,638,cs),
(287,694,o),
(262,724,o),
(222,724,cs),
(153,724,o),
(115,647,o),
(115,537,cs),
(115,487,o),
(122,432,o),
(134,387,c),
(46,307,o),
(-12,222,o),
(-12,110,cs),
(-12,31,o),
(25,-10,o),
(85,-10,cs)
);
},
{
closed = 1;
nodes = (
(43,15,o),
(15,49,o),
(15,114,cs),
(15,211,o),
(65,286,o),
(143,362,c),
(206,114,l),
(178,64,o),
(147,15,o),
(87,15,cs)
);
},
{
closed = 1;
nodes = (
(147,444,o),
(142,486,o),
(142,538,cs),
(142,621,o),
(170,699,o),
(219,699,cs),
(244,699,o),
(259,676,o),
(259,637,cs),
(259,546,o),
(216,464,o),
(158,407,c)
);
}
);
width = 323;
},
{
layerId = "4ABFEEF6-B0FE-443E-B48D-B4A70A3A2C9A";
shapes = (
{
closed = 1;
nodes = (
(336,-10,o),
(409,38,o),
(482,105,c),
(554,0,l),
(585,0,l),
(500,121,l),
(555,179,o),
(604,246,o),
(640,328,c),
(613,328,l),
(582,257,o),
(534,188,o),
(485,140,c),
(309,386,l),
(428,441,o),
(518,482,o),
(518,597,cs),
(518,670,o),
(460,725,o),
(383,725,cs),
(276,725,o),
(204,652,o),
(204,550,cs),
(204,498,o),
(228,452,o),
(271,395,c),
(141,337,o),
(47,280,o),
(47,146,cs),
(47,48,o),
(122,-10,o),
(223,-10,cs)
);
},
{
closed = 1;
nodes = (
(145,15,o),
(74,62,o),
(74,148,cs),
(74,265,o),
(158,321,o),
(285,377,c),
(468,123,l),
(396,57,o),
(330,15,o),
(226,15,cs)
);
},
{
closed = 1;
nodes = (
(253,459,o),
(231,502,o),
(231,551,cs),
(231,645,o),
(298,700,o),
(379,700,cs),
(440,700,o),
(491,658,o),
(491,597,cs),
(491,486,o),
(377,440,o),
(294,404,c)
);
}
);
width = 682;
},
{
associatedMasterId = "9733853B-DD8E-49B4-939D-1F0D465E8B6E";
attr = {
coordinates = (
151,
100
);
};
background = {
shapes = (
{
closed = 1;
nodes = (
(317.16,-10,o),
(379.11,17.22,o),
(428.32,51.02,c),
(463.02,0,l),
(625.02,0,l),
(532.98,127.92,l),
(592.54,188.36,o),
(645.49,271.24,o),
(677.34,371,c),
(537.46,371,l),
(520.73,318.95,o),
(492.34,262.36,o),
(458.05,228.75,c),
(366.99,365.41,l),
(471.5,419.07,o),
(543.37,477.71,o),
(543.37,575.37,cs),
(543.37,670.27,o),
(468.25,724.61,o),
(362.52,724.61,cs),
(227.79,724.61,o),
(150.55,649.27,o),
(150.55,530.41,cs),
(150.55,489.71,o),
(167.45,434.78,o),
(194.23,396.78,c),
(78.55,350.66,o),
(14.04,286.88,o),
(14.04,177.73,cs),
(14.04,55.39,o),
(102.09,-10,o),
(237.12,-10,cs)
);
},
{
closed = 1;
nodes = (
(190.21,103.44,o),
(155.97,141.66,o),
(155.97,190.12,cs),
(155.97,247.09,o),
(192.01,284.63,o),
(250.89,313.73,c),
(364.22,144.12,l),
(334.91,122.05,o),
(299.67,103.44,o),
(253.87,103.44,cs)
);
},
{
closed = 1;
nodes = (
(288.16,478.46,o),
(280.82,511.73,o),
(280.82,537.8,cs),
(280.82,590.68,o),
(309.72,624.39,o),
(356.57,624.39,cs),
(391.71,624.39,o),
(412.27,600.32,o),
(412.27,566.42,cs),
(412.27,507.1,o),
(360.06,470.9,o),
(310.72,447.24,c)
);
}
);
};
layerId = "21b18c47-0872-4321-93ce-55c068e4a66e";
name = "SemiBold Italic (intermediate)";
shapes = (
{
closed = 1;
nodes = (
(328,-10,o),
(389,13,o),
(441,48,c),
(476,0,l),
(647,0,l),
(547,140,l),
(611,207,o),
(658,288,o),
(698,383,c),
(552,383,l),
(531,330,o),
(511,286,o),
(474,239,c),
(379,367,l),
(490,412,o),
(557,476,o),
(557,575,cs),
(557,655,o),
(505,725,o),
(380,725,cs),
(259,725,o),
(168,655,o),
(168,520,cs),
(168,479,o),
(180,436,o),
(205,394,c),
(88,336,o),
(33,275,o),
(33,175,cs),
(33,56,o),
(109,-10,o),
(244,-10,cs)
);
},
{
closed = 1;
nodes = (
(216,115,o),
(187,150,o),
(187,189,cs),
(187,247,o),
(217,277,o),
(264,304,c),
(374,144,l),
(345,128,o),
(309,115,o),
(266,115,cs)
);
},
{
closed = 1;
nodes = (
(312,467,o),
(303,500,o),
(303,530,cs),
(303,574,o),
(326,611,o),
(371,611,cs),
(397,611,o),
(420,595,o),
(420,558,cs),
(420,507,o),
(376,476,o),
(323,449,c)
);
}
);
width = 708;
},
{
associatedMasterId = "A849C433-1DA2-4174-AEA9-F403839AA1E5";
attr = {
coordinates = (
151,
70
);
};
background = {
shapes = (
{
closed = 1;
nodes = (
(210.11,-10,o),
(250.11,11.58,o),
(300.7,48.7,c),
(318.26,0,l),
(475.58,0,l),
(410.28,142.03,l),
(456.77,205.47,o),
(503.75,297.28,o),
(529.68,376.43,c),
(398.17,376.43,l),
(384.17,330.92,o),
(368.39,292.46,o),
(353.05,263.17,c),
(309.2,375.78,l),
(391.69,439.73,o),
(446.35,515.41,o),
(446.35,602.48,cs),
(446.35,685.73,o),
(382.61,723.39,o),
(314.36,723.39,cs),
(201.45,723.39,o),
(129.1,631.17,o),
(129.1,518.34,cs),
(129.1,469.29,o),
(138.71,429.56,o),
(154.54,392.44,c),
(59.32,331.98,o),
(-1.12,245.15,o),
(-1.12,141.47,cs),
(-1.12,46.49,o),
(55.86,-10,o),
(146.5,-10,cs)
);
},
{
closed = 1;
nodes = (
(149.73,104.53,o),
(133.39,125.82,o),
(133.39,164.01,cs),
(133.39,220.88,o),
(155.41,269.63,o),
(194.84,304.94,c),
(256.4,147.25,l),
(231.84,123.45,o),
(209.55,104.53,o),
(179.19,104.53,cs)
);
},
{
closed = 1;
nodes = (
(256.9,484.74,o),
(252.51,508.81,o),
(252.51,538.88,cs),
(252.51,576.31,o),
(264.85,627.23,o),
(297.26,627.23,cs),
(319.65,627.23,o),
(325.38,606.23,o),
(325.38,584.77,cs),
(325.38,539.34,o),
(299.48,492.03,o),
(265.68,461.06,c)
);
}
);
};
layerId = "505cdf5d-c2cf-4205-aa14-1466363e1ce6";
name = "SemiBold Condensed Italic (intermediate)";
shapes = (
{
closed = 1;
nodes = (
(205,-10,o),
(245,14,o),
(294,51,c),
(312,0,l),
(459,0,l),
(397,140,l),
(442,203,o),
(487,293,o),
(512,371,c),
(389,371,l),
(375,324,o),
(359,285,o),
(343,254,c),
(298,376,l),
(380,440,o),
(434,517,o),
(434,605,cs),
(434,686,o),
(373,723,o),
(307,723,cs),
(197,723,o),
(128,632,o),
(128,519,cs),
(128,470,o),
(137,430,o),
(153,392,c),
(58,330,o),
(-2,244,o),
(-2,139,cs),
(-2,45,o),
(53,-10,o),
(142,-10,cs)
);
},
{
closed = 1;
nodes = (
(141,98,o),
(124,120,o),
(124,160,cs),
(124,220,o),
(148,271,o),
(191,309,c),
(252,145,l),
(228,119,o),
(204,98,o),
(172,98,cs)
);
},
{
closed = 1;
nodes = (
(248,482,o),
(244,507,o),
(244,539,cs),
(244,579,o),
(257,633,o),
(291,633,cs),
(314,633,o),
(320,612,o),
(320,589,cs),
(320,540,o),
(293,490,o),
(257,457,c)
);
}
);
width = 516;
},
{
layerId = "9733853B-DD8E-49B4-939D-1F0D465E8B6E";
shapes = (
{
closed = 1;
nodes = (
(318,-10,o),
(383,27,o),
(446,78,c),
(501,0,l),
(605,0,l),
(506,133,l),
(564,189,o),
(611,256,o),
(645,338,c),
(557,338,l),
(536,285,o),
(506,232,o),
(462,194,c),
(330,378,l),
(435,431,o),
(524,481,o),
(524,582,cs),
(524,670,o),
(462,725,o),
(365,725,cs),
(242,725,o),
(173,646,o),
(173,545,cs),
(173,489,o),
(196,438,o),
(222,396,c),
(100,338,o),
(32,274,o),
(32,168,cs),
(32,52,o),
(108,-10,o),
(216,-10,cs)
);
},
{
closed = 1;
nodes = (
(166,63,o),
(119,106,o),
(119,174,cs),
(119,262,o),
(186,304,o),
(259,342,c),
(404,136,l),
(354,96,o),
(304,63,o),
(233,63,cs)
);
},
{
closed = 1;
nodes = (
(269,469,o),
(257,505,o),
(257,545,cs),
(257,613,o),
(295,654,o),
(361,654,cs),
(412,654,o),
(439,622,o),
(439,575,cs),
(439,504,o),
(358,465,o),
(295,433,c)
);
}
);
width = 673;
},
{
layerId = "A849C433-1DA2-4174-AEA9-F403839AA1E5";
shapes = (
{
closed = 1;
nodes = (
(179,-10,o),
(219,25,o),
(258,67,c),
(278,0,l),
(367,0,l),
(320,128,l),
(361,189,o),
(397,268,o),
(415,338,c),
(339,338,l),
(325,287,o),
(308,240,o),
(289,204,c),
(236,377,l),
(313,444,o),
(364,527,o),
(364,622,cs),
(364,690,o),
(321,724,o),
(268,724,cs),
(174,724,o),
(123,633,o),
(123,522,cs),
(123,476,o),
(132,432,o),
(146,390,c),
(52,321,o),
(-6,236,o),
(-6,125,cs),
(-6,41,o),
(40,-10,o),
(116,-10,cs)
);
},
{
closed = 1;
nodes = (
(93,60,o),
(73,88,o),
(73,139,cs),
(73,216,o),
(106,280,o),
(168,333,c),
(232,132,l),
(205,96,o),
(176,60,o),
(131,60,cs)
);
},
{
closed = 1;
nodes = (
(202,464,o),
(197,496,o),
(197,534,cs),
(197,594,o),
(213,662,o),
(257,662,cs),
(280,662,o),
(290,641,o),
(290,611,cs),
(290,543,o),
(258,478,o),
(212,433,c)
);
}
);
width = 428;
},
{
layerId = "1C9FFC3E-B033-49C1-8526-F3CD51FE3A6C";
shapes = (
{
closed = 1;
nodes = (
(230,-10,o),
(270,3,o),
(328,37,c),
(344,0,l),
(545,0,l),
(468,151,l),
(518,216,o),
(572,316,o),
(603,401,c),
(436,401,l),
(422,359,o),
(407,326,o),
(394,301,c),
(356,375,l),
(442,437,o),
(499,508,o),
(499,590,cs),
(499,683,o),
(422,723,o),
(344,723,cs),
(219,723,o),
(133,630,o),
(133,516,cs),
(133,465,o),
(143,428,o),
(160,394,c),
(64,339,o),
(2,251,o),
(2,152,cs),
(2,50,o),
(66,-10,o),
(166,-10,cs)
);
},
{
closed = 1;
nodes = (
(186,133,o),
(172,150,o),
(172,180,cs),
(172,224,o),
(187,263,o),
(212,287,c),
(272,157,l),
(249,141,o),
(231,133,o),
(210,133,cs)
);
},
{
closed = 1;
nodes = (
(292,498,o),
(288,517,o),
(288,542,cs),
(288,565,o),
(298,605,o),
(323,605,cs),
(345,605,o),
(348,584,o),
(348,568,cs),
(348,537,o),
(326,501,o),
(300,479,c)
);
}
);
width = 598;
},
{
layerId = "84606D06-D269-45BD-896C-8402F9D7AD38";
shapes = (
{
closed = 1;
nodes = (
(325,-10,o),
(385,7,o),
(428,30,c),
(449,0,l),
(665,0,l),
(572,128,l),
(635,192,o),
(695,288,o),
(727,401,c),
(540,401,l),
(526,352,o),
(499,294,o),
(472,266,c),
(409,357,l),
(514,411,o),
(576,473,o),
(576,567,cs),
(576,670,o),
(488,725,o),
(373,725,cs),
(226,725,o),
(138,650,o),
(138,520,cs),
(138,489,o),
(152,432,o),
(179,398,c),
(67,362,o),
(4,297,o),
(4,188,cs),
(4,60,o),
(103,-10,o),
(258,-10,cs)
);
},
{
closed = 1;
nodes = (
(220,140,o),
(195,174,o),
(195,207,cs),
(195,239,o),
(208,270,o),
(252,289,c),
(346,153,l),
(329,146,o),
(306,140,o),
(279,140,cs)
);
},
{
closed = 1;
nodes = (
(315,489,o),
(310,519,o),
(310,533,cs),
(310,572,o),
(332,596,o),
(364,596,cs),
(388,596,o),
(404,577,o),
(404,554,cs),
(404,508,o),
(372,478,o),
(335,463,c)
);
}
);
width = 733;
}
);
script = "";
subCategory = Other;
unicode = 38;
}
{
category = Punctuation;
glyphname = quotesingle;
kernLeft = quote.right;
kernRight = quote.left;
layers = (
{
layerId = "891911EE-97A3-4583-AC34-B57874F49FBA";
shapes = (
{
closed = 1;
nodes = (
(113,456,l),
(174,714,l),
(145,714,l),
(95,456,l)
);
}
);
width = 143;
},
{
layerId = "4ABFEEF6-B0FE-443E-B48D-B4A70A3A2C9A";
shapes = (
{
closed = 1;
nodes = (
(130,456,l),
(189,714,l),
(161,714,l),
(110,456,l)
);
}
);
width = 172;
},
{
layerId = "FAB9F01D-70CE-4F71-A270-EC67BDAC6531";
shapes = (
{
closed = 1;
nodes = (
(194,456,l),
(268,714,l),
(133,714,l),
(98,456,l)
);
}
);
width = 255;
},
{
layerId = "E7382CC2-7CD9-4594-B524-5D480E09B385";
shapes = (
{
closed = 1;
nodes = (
(195,456,l),
(265,714,l),
(136,714,l),
(97,456,l)
);
}
);
width = 214;
},
{
layerId = "9733853B-DD8E-49B4-939D-1F0D465E8B6E";
shapes = (
{
closed = 1;
nodes = (
(165,456,l),
(240,714,l),
(144,714,l),
(109,456,l)
);
}
);
width = 220;
},
{
layerId = "A849C433-1DA2-4174-AEA9-F403839AA1E5";
shapes = (
{
closed = 1;
nodes = (
(162,456,l),
(230,714,l),
(144,714,l),
(103,456,l)
);
}
);
width = 187;
},
{
layerId = "1C9FFC3E-B033-49C1-8526-F3CD51FE3A6C";
shapes = (
{
closed = 1;
nodes = (
(226,456,l),
(298,714,l),
(129,714,l),
(92,456,l)
);
}
);
width = 241;
},
{
layerId = "84606D06-D269-45BD-896C-8402F9D7AD38";
shapes = (
{
closed = 1;
nodes = (
(214,456,l),
(291,714,l),
(124,714,l),
(89,456,l)
);
}
);
width = 238;
}
);
script = "";
subCategory = Other;
unicode = 39;
}
{
category = Punctuation;
glyphname = parenleft;
kernRight = paren.left;
layers = (
{
layerId = "891911EE-97A3-4583-AC34-B57874F49FBA";
shapes = (
{
closed = 1;
nodes = (
(112,-158,l),
(74,-80,o),
(53,28,o),
(53,133,cs),
(53,356,o),
(135,523,o),
(296,710,c),
(272,710,l),
(113,537,o),
(26,363,o),
(26,134,cs),
(26,29,o),
(51,-81,o),
(88,-158,c)
);
}
);
width = 241;
},
{
layerId = "4ABFEEF6-B0FE-443E-B48D-B4A70A3A2C9A";
shapes = (
{
closed = 1;
nodes = (
(126,-158,l),
(81,-79,o),
(58,15,o),
(58,118,cs),
(58,340,o),
(152,561,o),
(311,714,c),
(277,714,l),
(136,577,o),
(32,361,o),
(32,118,cs),
(32,11,o),
(55,-83,o),
(97,-158,c)
);
}
);
width = 242;
},
{
layerId = "9733853B-DD8E-49B4-939D-1F0D465E8B6E";
shapes = (
{
closed = 1;
nodes = (
(180,-158,l),
(144,-76,o),
(124,18,o),
(124,134,c),
(124,365,o),
(225,557,o),
(367,714,c),
(286,714,l),
(129,552,o),
(40,371,o),
(40,133,c),
(40,23,o),
(66,-77,o),
(112,-158,c)
);
}
);
width = 290;
},
{
layerId = "A849C433-1DA2-4174-AEA9-F403839AA1E5";
shapes = (
{
closed = 1;
nodes = (
(134,-158,l),
(106,-85,o),
(93,13,o),
(93,102,cs),
(93,321,o),
(180,542,o),
(321,719,c),
(254,719,l),
(106,556,o),
(18,325,o),
(18,103,cs),
(18,16,o),
(36,-92,o),
(70,-158,c)
);
}
);
width = 257;
},
{
layerId = "1C9FFC3E-B033-49C1-8526-F3CD51FE3A6C";
shapes = (
{
closed = 1;
nodes = (
(178,-158,l),
(160,-85,o),
(156,-12,o),
(156,74,cs),
(156,301,o),
(258,579,o),
(368,734,c),
(233,734,l),
(103,589,o),
(11,280,o),
(11,68,cs),
(11,-5,o),
(20,-107,o),
(42,-158,c)
);
}
);
width = 282;
},
{
layerId = "84606D06-D269-45BD-896C-8402F9D7AD38";
shapes = (
{
closed = 1;
nodes = (
(250,-158,l),
(214,-66,o),
(193,58,o),
(193,151,cs),
(193,394,o),
(299,580,o),
(441,734,c),
(283,734,l),
(121,567,o),
(33,386,o),
(33,159,cs),
(33,55,o),
(60,-75,o),
(107,-158,c)
);
}
);
width = 374;
}
);
script = "";
subCategory = Parenthesis;
unicode = 40;
}
{
category = Punctuation;
glyphname = parenright;
kernLeft = Paren.right;
layers = (
{
layerId = "891911EE-97A3-4583-AC34-B57874F49FBA";
shapes = (
{
closed = 1;
nodes = (
(-45,-158,l),
(114,14,o),
(201,189,o),
(201,418,cs),
(201,523,o),
(176,633,o),
(139,710,c),
(115,710,l),
(153,632,o),
(174,524,o),
(174,419,cs),
(174,196,o),
(92,29,o),
(-69,-158,c)
);
}
);
width = 242;
},
{
layerId = "4ABFEEF6-B0FE-443E-B48D-B4A70A3A2C9A";
shapes = (
{
closed = 1;
nodes = (
(-29,-158,l),
(112,-21,o),
(216,195,o),
(216,438,cs),
(216,545,o),
(193,639,o),
(151,714,c),
(122,714,l),
(167,635,o),
(190,541,o),
(190,438,cs),
(190,216,o),
(96,-5,o),
(-63,-158,c)
);
}
);
width = 242;
},
{
layerId = "FAB9F01D-70CE-4F71-A270-EC67BDAC6531";
shapes = (
{
closed = 1;
nodes = (
(56,-158,l),
(216,7,o),
(302,188,o),
(302,419,c),
(302,526,o),
(278,628,o),
(229,714,c),
(115,714,l),
(151,626,o),
(172,526,o),
(172,424,c),
(172,186,o),
(70,-3,o),
(-72,-158,c)
);
}
);
width = 339;
},
{
layerId = "E7382CC2-7CD9-4594-B524-5D480E09B385";
shapes = (
{
closed = 1;
nodes = (
(25,-158,l),
(160,-8,o),
(253,255,o),
(253,483,cs),
(253,571,o),
(243,656,o),
(213,727,c),
(110,727,l),
(134,659,o),
(142,564,o),
(142,480,cs),
(142,257,o),
(47,8,o),
(-77,-158,c)
);
}
);
width = 270;
},
{
layerId = "9733853B-DD8E-49B4-939D-1F0D465E8B6E";
shapes = (
{
closed = 1;
nodes = (
(3,-158,l),
(161,3,o),
(249,184,o),
(249,422,c),
(249,533,o),
(223,632,o),
(178,714,c),
(110,714,l),
(146,632,o),
(165,537,o),
(165,422,c),
(165,191,o),
(65,-1,o),
(-77,-158,c)
);
}
);
width = 290;
},
{
layerId = "A849C433-1DA2-4174-AEA9-F403839AA1E5";
shapes = (
{
closed = 1;
nodes = (
(-6,-158,l),
(141,3,o),
(229,232,o),
(229,458,cs),
(229,549,o),
(213,647,o),
(178,719,c),
(113,719,l),
(141,651,o),
(154,545,o),
(154,459,cs),
(154,240,o),
(68,19,o),
(-73,-158,c)
);
}
);
width = 257;
},
{
layerId = "1C9FFC3E-B033-49C1-8526-F3CD51FE3A6C";
shapes = (
{
closed = 1;
nodes = (
(54,-158,l),
(179,-18,o),
(275,278,o),
(275,507,cs),
(275,591,o),
(271,664,o),
(245,734,c),
(108,734,l),
(127,667,o),
(130,582,o),
(130,501,cs),
(130,274,o),
(28,-3,o),
(-81,-158,c)
);
}
);
width = 282;
},
{
layerId = "84606D06-D269-45BD-896C-8402F9D7AD38";
shapes = (
{
closed = 1;
nodes = (
(94,-158,l),
(256,9,o),
(339,190,o),
(339,417,cs),
(339,521,o),
(316,645,o),
(265,734,c),
(121,734,l),
(157,642,o),
(179,518,o),
(179,425,cs),
(179,182,o),
(77,-4,o),
(-65,-158,c)
);
}
);
width = 374;
}
);
script = "";
subCategory = Parenthesis;
unicode = 41;
}
{
category = Punctuation;
glyphname = asterisk;
layers = (
{
layerId = "891911EE-97A3-4583-AC34-B57874F49FBA";
shapes = (
{
closed = 1;
nodes = (
(314,500,l),
(249,612,l),
(365,636,l),
(362,655,l),
(247,626,l),
(273,753,l),
(252,757,l),
(232,628,l),
(131,693,l),
(120,677,l),
(227,616,l),
(124,531,l),
(137,517,l),
(237,604,l),
(296,490,l)
);
}
);
width = 317;
},
{
layerId = "4ABFEEF6-B0FE-443E-B48D-B4A70A3A2C9A";
shapes = (
{
closed = 1;
nodes = (
(422,349,l),
(334,534,l),
(534,549,l),
(535,577,l),
(331,550,l),
(380,751,l),
(353,757,l),
(315,554,l),
(141,662,l),
(127,637,l),
(306,540,l),
(150,407,l),
(169,387,l),
(318,528,l),
(396,338,l)
);
}
);
width = 531;
},
{
layerId = "9733853B-DD8E-49B4-939D-1F0D465E8B6E";
shapes = (
{
closed = 1;
nodes = (
(456,326,l),
(369,511,l),
(559,488,l),
(563,570,l),
(359,560,l),
(418,746,l),
(331,763,l),
(311,570,l),
(131,659,l),
(103,581,l),
(283,528,l),
(134,391,l),
(195,330,l),
(318,495,l),
(372,300,l)
);
}
);
width = 551;
},
{
layerId = "A849C433-1DA2-4174-AEA9-F403839AA1E5";
shapes = (
{
closed = 1;
nodes = (
(353,464,l),
(285,579,l),
(401,580,l),
(395,653,l),
(280,629,l),
(309,754,l),
(233,764,l),
(228,635,l),
(122,689,l),
(98,620,l),
(208,588,l),
(113,495,l),
(167,446,l),
(244,551,l),
(287,430,l)
);
}
);
width = 361;
},
{
layerId = "1C9FFC3E-B033-49C1-8526-F3CD51FE3A6C";
shapes = (
{
closed = 1;
nodes = (
(438,381,l),
(353,501,l),
(484,505,l),
(469,650,l),
(342,610,l),
(376,753,l),
(230,770,l),
(230,623,l),
(116,691,l),
(67,554,l),
(194,519,l),
(85,422,l),
(189,316,l),
(265,435,l),
(312,302,l)
);
}
);
width = 442;
},
{
layerId = "84606D06-D269-45BD-896C-8402F9D7AD38";
shapes = (
{
closed = 1;
nodes = (
(477,311,l),
(405,463,l),
(556,443,l),
(567,590,l),
(387,575,l),
(444,737,l),
(294,767,l),
(279,596,l),
(123,677,l),
(74,541,l),
(220,500,l),
(96,388,l),
(218,298,l),
(299,417,l),
(338,269,l)
);
}
);
width = 542;
}
);
script = "";
subCategory = Other;
unicode = 42;
}
{
category = Symbol;
glyphname = plus;
layers = (
{
layerId = "84606D06-D269-45BD-896C-8402F9D7AD38";
shapes = (
{
closed = 1;
nodes = (
(358,597,l),
(227,597,l),
(227,418,l),
(45,418,l),
(45,287,l),
(227,287,l),
(227,111,l),
(358,111,l),
(358,287,l),
(540,287,l),
(540,418,l),
(358,418,l)
);
}
);
width = 586;
},
{
layerId = "1C9FFC3E-B033-49C1-8526-F3CD51FE3A6C";
shapes = (
{
closed = 1;
nodes = (
(327,597,l),
(193,597,l),
(193,418,l),
(44,418,l),
(44,287,l),
(193,287,l),
(193,111,l),
(327,111,l),
(327,287,l),
(476,287,l),
(476,418,l),
(327,418,l)
);
}
);
width = 500;
},
{
layerId = "9733853B-DD8E-49B4-939D-1F0D465E8B6E";
shapes = (
{
closed = 1;
nodes = (
(341,595,l),
(269,595,l),
(269,388,l),
(70,388,l),
(70,317,l),
(269,317,l),
(269,111,l),
(341,111,l),
(341,317,l),
(540,317,l),
(540,388,l),
(341,388,l)
);
}
);
width = 572;
},
{
layerId = "A849C433-1DA2-4174-AEA9-F403839AA1E5";
shapes = (
{
closed = 1;
nodes = (
(259,588,l),
(190,588,l),
(190,387,l),
(40,387,l),
(40,319,l),
(190,319,l),
(190,119,l),
(259,119,l),
(259,319,l),
(408,319,l),
(408,387,l),
(259,387,l)
);
}
);
width = 430;
},
{
layerId = "4ABFEEF6-B0FE-443E-B48D-B4A70A3A2C9A";
shapes = (
{
closed = 1;
nodes = (
(317,583,l),
(293,583,l),
(293,365,l),
(75,365,l),
(75,341,l),
(293,341,l),
(293,123,l),
(317,123,l),
(317,341,l),
(535,341,l),
(535,365,l),
(317,365,l)
);
}
);
width = 570;
},
{
layerId = "891911EE-97A3-4583-AC34-B57874F49FBA";
shapes = (
{
closed = 1;
nodes = (
(212,583,l),
(188,583,l),
(188,363,l),
(29,363,l),
(29,339,l),
(188,339,l),
(188,123,l),
(212,123,l),
(212,339,l),
(369,339,l),
(369,363,l),
(212,363,l)
);
}
);
width = 399;
}
);
script = "";
subCategory = Math;
unicode = 43;
}
{
category = Punctuation;
glyphname = hyphen;
kernLeft = hyphen.right;
kernRight = hyphen.left;
layers = (
{
layerId = "891911EE-97A3-4583-AC34-B57874F49FBA";
shapes = (
{
closed = 1;
nodes = (
(235,259,l),
(235,284,l),
(24,284,l),
(24,259,l)
);
}
);
width = 262;
},
{
layerId = "4ABFEEF6-B0FE-443E-B48D-B4A70A3A2C9A";
shapes = (
{
closed = 1;
nodes = (
(269,259,l),
(274,284,l),
(43,284,l),
(38,259,l)
);
}
);
width = 312;
},
{
layerId = "9733853B-DD8E-49B4-939D-1F0D465E8B6E";
shapes = (
{
closed = 1;
nodes = (
(262,227,l),
(280,308,l),
(44,308,l),
(26,227,l)
);
}
);
width = 313;
},
{
layerId = "A849C433-1DA2-4174-AEA9-F403839AA1E5";
shapes = (
{
closed = 1;
nodes = (
(224,232,l),
(239,308,l),
(30,308,l),
(15,232,l)
);
}
);
width = 259;
},
{
layerId = "1C9FFC3E-B033-49C1-8526-F3CD51FE3A6C";
shapes = (
{
closed = 1;
nodes = (
(263,192,l),
(296,344,l),
(41,344,l),
(9,192,l)
);
}
);
width = 307;
},
{
layerId = "84606D06-D269-45BD-896C-8402F9D7AD38";
shapes = (
{
closed = 1;
nodes = (
(281,192,l),
(312,344,l),
(42,344,l),
(11,192,l)
);
}
);
width = 329;
}
);
script = "";
subCategory = Dash;
unicode = 45;
}
{
category = Punctuation;
glyphname = period;
kernLeft = period.right;
kernRight = period.left;
layers = (
{
layerId = "891911EE-97A3-4583-AC34-B57874F49FBA";
shapes = (
{
closed = 1;
nodes = (
(54,-1,o),
(63,26,o),
(63,43,cs),
(63,60,o),
(56,68,o),
(45,68,cs),
(25,68,o),
(16,42,o),
(16,23,cs),
(16,8,o),
(23,-1,o),
(34,-1,cs)
);
}
);
width = 154;
},
{
layerId = "4ABFEEF6-B0FE-443E-B48D-B4A70A3A2C9A";
shapes = (
{
closed = 1;
nodes = (
(74,-8,o),
(84,14,o),
(84,32,cs),
(84,43,o),
(78,54,o),
(62,54,cs),
(42,54,o),
(32,32,o),
(32,14,cs),
(32,0,o),
(41,-8,o),
(55,-8,cs)
);
}
);
width = 210;
},
{
layerId = "9733853B-DD8E-49B4-939D-1F0D465E8B6E";
shapes = (
{
closed = 1;
nodes = (
(122,-14,o),
(146,27,o),
(146,68,c),
(146,103,o),
(126,121,o),
(97,121,c),
(44,121,o),
(20,82,o),
(20,38,c),
(20,5,o),
(39,-14,o),
(72,-14,c)
);
}
);
width = 256;
},
{
layerId = "A849C433-1DA2-4174-AEA9-F403839AA1E5";
shapes = (
{
closed = 1;
nodes = (
(88,-8,o),
(116,26,o),
(116,71,cs),
(116,98,o),
(101,115,o),
(76,115,cs),
(34,115,o),
(11,77,o),
(11,35,cs),
(11,7,o),
(28,-8,o),
(53,-8,cs)
);
}
);
width = 202;
},
{
layerId = "1C9FFC3E-B033-49C1-8526-F3CD51FE3A6C";
shapes = (
{
closed = 1;
nodes = (
(130,-12,o),
(182,35,o),
(182,108,cs),
(182,150,o),
(155,175,o),
(110,175,cs),
(36,175,o),
(-4,118,o),
(-4,56,cs),
(-4,11,o),
(23,-12,o),
(74,-12,cs)
);
}
);
width = 260;
},
{
layerId = "84606D06-D269-45BD-896C-8402F9D7AD38";
shapes = (
{
closed = 1;
nodes = (
(159,-12,o),
(207,14,o),
(207,100,cs),
(207,152,o),
(171,176,o),
(119,176,cs),
(55,176,o),
(0,141,o),
(0,62,cs),
(0,11,o),
(34,-12,o),
(85,-12,cs)
);
}
);
width = 306;
}
);
script = "";
subCategory = Other;
unicode = 46;
}
{
category = Punctuation;
glyphname = slash;
layers = (
{
layerId = "891911EE-97A3-4583-AC34-B57874F49FBA";
shapes = (
{
closed = 1;
nodes = (
(-19,2,l),
(358,712,l),
(332,712,l),
(-45,2,l)
);
}
);
width = 292;
},
{
layerId = "4ABFEEF6-B0FE-443E-B48D-B4A70A3A2C9A";
shapes = (
{
closed = 1;
nodes = (
(-14,0,l),
(392,714,l),
(363,714,l),
(-43,0,l)
);
}
);
width = 306;
},
{
layerId = "9733853B-DD8E-49B4-939D-1F0D465E8B6E";
shapes = (
{
closed = 1;
nodes = (
(45,0,l),
(441,714,l),
(351,714,l),
(-46,0,l)
);
}
);
width = 356;
},
{
layerId = "A849C433-1DA2-4174-AEA9-F403839AA1E5";
shapes = (
{
closed = 1;
nodes = (
(23,-3,l),
(409,717,l),
(336,717,l),
(-49,-3,l)
);
}
);
width = 334;
},
{
layerId = "1C9FFC3E-B033-49C1-8526-F3CD51FE3A6C";
shapes = (
{
closed = 1;
nodes = (
(91,-10,l),
(490,724,l),
(342,724,l),
(-57,-10,l)
);
}
);
width = 397;
},
{
layerId = "84606D06-D269-45BD-896C-8402F9D7AD38";
shapes = (
{
closed = 1;
nodes = (
(124,-10,l),
(533,724,l),
(365,724,l),
(-44,-10,l)
);
}
);
width = 467;
}
);
script = "";
subCategory = Other;
unicode = 47;
}
{
category = Number;
color = 10;
glyphname = zero;
layers = (
{
layerId = "891911EE-97A3-4583-AC34-B57874F49FBA";
shapes = (
{
closed = 1;
nodes = (
(260,-10,o),
(340,390,o),
(340,575,cs),
(340,676,o),
(311,724,o),
(253,724,cs),
(96,724,o),
(19,311,o),
(19,158,cs),
(19,40,o),
(56,-10,o),
(111,-10,cs)
);
},
{
closed = 1;
nodes = (
(72,15,o),
(46,50,o),
(46,158,cs),
(46,306,o),
(123,699,o),
(251,699,cs),
(294,699,o),
(313,665,o),
(313,574,cs),
(313,415,o),
(239,15,o),
(111,15,cs)
);
}
);
width = 343;
},
{
layerId = "4ABFEEF6-B0FE-443E-B48D-B4A70A3A2C9A";
shapes = (
{
closed = 1;
nodes = (
(430,-10,o),
(528,273,o),
(528,522,cs),
(528,644,o),
(473,725,o),
(359,725,cs),
(151,725,o),
(66,424,o),
(66,203,cs),
(66,62,o),
(134,-10,o),
(236,-10,cs)
);
},
{
closed = 1;
nodes = (
(148,15,o),
(93,76,o),
(93,204,cs),
(93,406,o),
(168,700,o),
(358,700,cs),
(457,700,o),
(501,632,o),
(501,520,cs),
(501,291,o),
(410,15,o),
(237,15,cs)
);
}
);
width = 550;
},
{
associatedMasterId = "9733853B-DD8E-49B4-939D-1F0D465E8B6E";
attr = {
coordinates = (
151,
100
);
};
background = {
shapes = (
{
closed = 1;
nodes = (
(454.32,-10,o),
(552.91,234.65,o),
(552.91,485.85,cs),
(552.91,617.99,o),
(497.13,725,o),
(355.83,725,cs),
(131.12,725,o),
(41.14,453.4,o),
(41.14,229.34,cs),
(41.14,72.12,o),
(112.29,-10,o),
(237.83,-10,cs)
);
},
{
closed = 1;
nodes = (
(208.33,113.19,o),
(191.75,151.84,o),
(191.75,226.9,cs),
(191.75,385.33,o),
(254.94,601.81,o),
(340.46,601.81,cs),
(383.11,601.81,o),
(401.91,561.23,o),
(401.91,489.07,cs),
(401.91,329.4,o),
(345.67,113.19,o),
(253.32,113.19,cs)
);
}
);
};
layerId = "a5edd1a1-539d-44de-b99a-009ce9c287d8";
name = "SemiBold Italic (intermediate)";
shapes = (
{
closed = 1;
nodes = (
(450,-10,o),
(542,240,o),
(542,494,cs),
(542,655,o),
(469,725,o),
(347,725,cs),
(141,725,o),
(32,489,o),
(32,228,cs),
(32,76,o),
(94,-10,o),
(229,-10,cs)
);
},
{
closed = 1;
nodes = (
(196,112,o),
(180,151,o),
(180,225,cs),
(180,349,o),
(234,603,o),
(334,603,cs),
(374,603,o),
(394,571,o),
(394,499,cs),
(394,341,o),
(336,112,o),
(241,112,cs)
);
}
);
width = 551;
},
{
layerId = "9733853B-DD8E-49B4-939D-1F0D465E8B6E";
shapes = (
{
closed = 1;
nodes = (
(447,-10,o),
(534,256,o),
(534,495,cs),
(534,643,o),
(477,725,o),
(354,725,cs),
(136,725,o),
(57,429,o),
(57,233,cs),
(57,77,o),
(119,-10,o),
(236,-10,cs)
);
},
{
closed = 1;
nodes = (
(176,65,o),
(146,125,o),
(146,233,cs),
(146,414,o),
(222,650,o),
(349,650,cs),
(413,650,o),
(444,596,o),
(444,497,cs),
(444,305,o),
(378,65,o),
(246,65,cs)
);
}
);
width = 551;
},
{
layerId = "A849C433-1DA2-4174-AEA9-F403839AA1E5";
shapes = (
{
closed = 1;
nodes = (
(318,-10,o),
(390,391,o),
(390,557,cs),
(390,671,o),
(352,724,o),
(276,724,cs),
(95,724,o),
(22,318,o),
(22,160,cs),
(22,43,o),
(60,-10,o),
(137,-10,cs)
);
},
{
closed = 1;
nodes = (
(112,63,o),
(98,91,o),
(98,158,cs),
(98,279,o),
(167,651,o),
(269,651,cs),
(301,651,o),
(314,621,o),
(314,560,cs),
(314,433,o),
(249,63,o),
(144,63,cs)
);
}
);
width = 391;
},
{
layerId = "1C9FFC3E-B033-49C1-8526-F3CD51FE3A6C";
shapes = (
{
closed = 1;
nodes = (
(384,-10,o),
(476,315,o),
(476,515,cs),
(476,661,o),
(426,724,o),
(318,724,cs),
(104,724,o),
(32,351,o),
(32,192,cs),
(32,53,o),
(81,-10,o),
(188,-10,cs)
);
},
{
closed = 1;
nodes = (
(192,137,o),
(186,153,o),
(186,185,cs),
(186,259,o),
(246,577,o),
(301,577,cs),
(317,577,o),
(322,561,o),
(322,527,cs),
(322,434,o),
(260,137,o),
(208,137,cs)
);
}
);
width = 474;
},
{
layerId = "84606D06-D269-45BD-896C-8402F9D7AD38";
shapes = (
{
closed = 1;
nodes = (
(459,-10,o),
(565,221,o),
(565,480,cs),
(565,602,o),
(510,725,o),
(357,725,cs),
(128,725,o),
(31,469,o),
(31,227,cs),
(31,69,o),
(108,-10,o),
(239,-10,cs)
);
},
{
closed = 1;
nodes = (
(229,144,o),
(221,169,o),
(221,223,cs),
(221,367,o),
(276,571,o),
(335,571,cs),
(364,571,o),
(375,539,o),
(375,484,cs),
(375,345,o),
(325,144,o),
(258,144,cs)
);
}
);
width = 580;
}
);
script = "";
subCategory = "Decimal Digit";
unicode = 48;
}
{
category = Number;
color = 10;
glyphname = one;
layers = (
{
layerId = "891911EE-97A3-4583-AC34-B57874F49FBA";
shapes = (
{
closed = 1;
nodes = (
(105,0,l),
(131,0,l),
(282,714,l),
(254,714,l),
(114,601,l),
(130,583,l),
(220,656,ls),
(233,666,o),
(242,675,o),
(251,684,c),
(243,653,o),
(238,630,o),
(233,606,cs)
);
}
);
width = 343;
},
{
layerId = "4ABFEEF6-B0FE-443E-B48D-B4A70A3A2C9A";
shapes = (
{
closed = 1;
nodes = (
(229,0,l),
(256,0,l),
(407,714,l),
(382,714,l),
(166,571,l),
(179,551,l),
(315,641,ls),
(343,660,o),
(358,671,o),
(376,685,c),
(369,658,o),
(360,620,o),
(348,563,cs)
);
}
);
width = 550;
},
{
associatedMasterId = "9733853B-DD8E-49B4-939D-1F0D465E8B6E";
attr = {
coordinates = (
151,
100
);
};
background = {
shapes = (
{
closed = 1;
nodes = (
(190.111,0,l),
(332.87,0,l),
(484.43,714,l),
(368.82,714,l),
(102.06,551.25,l),
(160.01,455.2,l),
(255.48,514.74,ls),
(275.77,526.86,o),
(301.04,546.91,o),
(320.82,564.64,c),
(308.16,529.27,o),
(292.21,469.01,o),
(281.48,422.53,cs)
);
}
);
};
layerId = "449de072-156a-4d9d-b187-cd7448cbba6f";
name = "SemiBold Italic (intermediate)";
shapes = (
{
closed = 1;
nodes = (
(187,0,l),
(336,0,l),
(487,714,l),
(365,714,l),
(89,544,l),
(154,439,l),
(249,499,ls),
(270,512,o),
(300,535,o),
(312,545,c),
(299,502,o),
(282,439,o),
(275,405,cs)
);
}
);
width = 551;
},
{
associatedMasterId = "A849C433-1DA2-4174-AEA9-F403839AA1E5";
attr = {
coordinates = (
151,
70
);
};
background = {
shapes = (
{
closed = 1;
nodes = (
(145.349,0,l),
(276.2,0,l),
(427.81,714,l),
(309.67,714,l),
(94.24,514.3,l),
(154.42,431.58,l),
(226.66,497.7,ls),
(239.66,509.31,o),
(250.88,522.14,o),
(261.49,534.97,c),
(248.54,488,o),
(244.1,468.02,o),
(234.88,424.75,cs)
);
}
);
};
layerId = "17aec175-78f4-434f-96c3-c360737d948f";
name = "SemiBold Condensed Italic (intermediate)";
shapes = (
{
closed = 1;
nodes = (
(142,0,l),
(265,0,l),
(417,714,l),
(306,714,l),
(96,521,l),
(153,443,l),
(226,510,ls),
(239,521,o),
(250,534,o),
(261,546,c),
(248,499,o),
(244,480,o),
(234,437,cs)
);
}
);
width = 434;
},
{
layerId = "9733853B-DD8E-49B4-939D-1F0D465E8B6E";
shapes = (
{
closed = 1;
nodes = (
(202,0,l),
(291,0,l),
(444,714,l),
(367,714,l),
(143,572,l),
(184,506,l),
(272,561,ls),
(299,578,o),
(319,593,o),
(339,614,c),
(327,575,o),
(310,504,o),
(297,442,cs)
);
}
);
width = 551;
},
{
layerId = "A849C433-1DA2-4174-AEA9-F403839AA1E5";
shapes = (
{
closed = 1;
nodes = (
(123.998,0,l),
(203,0,l),
(354,714,l),
(281,714,l),
(104,557,l),
(141,506,l),
(223,577,ls),
(236,588,o),
(246,599,o),
(256,610,c),
(240,549,o),
(238,540,o),
(230,501,cs)
);
}
);
width = 391;
},
{
layerId = "1C9FFC3E-B033-49C1-8526-F3CD51FE3A6C";
shapes = (
{
closed = 1;
nodes = (
(159,0,l),
(323,0,l),
(475,714,l),
(328,714,l),
(88,487,l),
(163,384,l),
(229,447,ls),
(242,459,o),
(254,473,o),
(265,487,c),
(254,449,o),
(248,422,o),
(238,376,cs)
);
}
);
width = 474;
},
{
layerId = "84606D06-D269-45BD-896C-8402F9D7AD38";
shapes = (
{
closed = 1;
nodes = (
(188,0,l),
(378,0,l),
(528,714,l),
(376,714,l),
(73,527,l),
(147,404,l),
(246,465,ls),
(262,475,o),
(291,498,o),
(310,515,c),
(297,482,o),
(281,427,o),
(273,390,cs)
);
}
);
width = 580;
}
);
script = "";
subCategory = "Decimal Digit";
unicode = 49;
}
{
category = Number;
glyphname = two;
layers = (
{
layerId = "891911EE-97A3-4583-AC34-B57874F49FBA";
shapes = (
{
closed = 1;
nodes = (
(231,0,l),
(235,25,l),
(0,25,l),
(0,28,l),
(162,230,ls),
(263,356,o),
(344,467,o),
(344,592,cs),
(344,674,o),
(292,724,o),
(223,724,cs),
(170,724,o),
(133,704,o),
(112,688,c),
(127,666,l),
(151,684,o),
(178,699,o),
(220,699,cs),
(278,699,o),
(317,662,o),
(317,591,cs),
(317,467,o),
(240,368,o),
(137,238,cs),
(-32,25,l),
(-35,0,l)
);
}
);
width = 343;
},
{
layerId = "4ABFEEF6-B0FE-443E-B48D-B4A70A3A2C9A";
shapes = (
{
closed = 1;
nodes = (
(420,0,l),
(425,25,l),
(52,25,l),
(52,26,l),
(297,246,ls),
(409,346,o),
(507,443,o),
(507,579,cs),
(507,664,o),
(446,724,o),
(352,724,cs),
(300,724,o),
(233,706,o),
(165,655,c),
(178,635,l),
(239,678,o),
(297,699,o),
(352,699,cs),
(430,699,o),
(481,655,o),
(481,579,cs),
(481,442,o),
(368,344,o),
(278,262,cs),
(14,23,l),
(10,0,l)
);
}
);
width = 550;
},
{
layerId = "FAB9F01D-70CE-4F71-A270-EC67BDAC6531";
shapes = (
{
closed = 1;
nodes = (
(446,0,l),
(472,127,l),
(195,127,l),
(195,132,l),
(326,240,ls),
(447,339,o),
(536,423,o),
(536,550,cs),
(536,639,o),
(475,724,o),
(335,724,cs),
(233,724,o),
(157,680,o),
(90,623,c),
(161,524,l),
(222,574,o),
(263,598,o),
(311,598,cs),
(356,598,o),
(385,572,o),
(385,523,cs),
(385,468,o),
(346,414,o),
(230,311,cs),
(-3,104,l),
(-24,0,l)
);
}
);
width = 551;
},
{
layerId = "E7382CC2-7CD9-4594-B524-5D480E09B385";
shapes = (
{
closed = 1;
nodes = (
(322,0,l),
(345,110,l),
(136,110,l),
(136,113,l),
(267,259,ls),
(361,362,o),
(432,463,o),
(432,578,cs),
(432,667,o),
(373,724,o),
(286,724,cs),
(216,724,o),
(156,694,o),
(101,633,c),
(143,545,l),
(177,576,o),
(218,614,o),
(257,614,cs),
(289,614,o),
(304,592,o),
(304,553,cs),
(304,466,o),
(235,378,o),
(162,292,cs),
(-12,89,l),
(-30,0,l)
);
}
);
width = 434;
},
{
layerId = "9733853B-DD8E-49B4-939D-1F0D465E8B6E";
shapes = (
{
closed = 1;
nodes = (
(445,0,l),
(460,80,l),
(134,80,l),
(134,84,l),
(302,230,ls),
(467,374,o),
(528,446,o),
(528,561,cs),
(528,657,o),
(461,724,o),
(340,724,cs),
(254,724,o),
(190,691,o),
(135,647,c),
(177,587,l),
(224,622,o),
(271,649,o),
(330,649,cs),
(398,649,o),
(436,607,o),
(436,547,cs),
(436,453,o),
(378,399,o),
(246,280,cs),
(19,75,l),
(3,0,l)
);
}
);
width = 551;
},
{
layerId = "A849C433-1DA2-4174-AEA9-F403839AA1E5";
shapes = (
{
closed = 1;
nodes = (
(280,0,l),
(295,71,l),
(74,71,l),
(74,74,l),
(219,246,ls),
(317,359,o),
(392,469,o),
(392,584,cs),
(392,671,o),
(339,724,o),
(258,724,cs),
(197,724,o),
(149,699,o),
(106,658,c),
(136,600,l),
(171,628,o),
(202,653,o),
(242,653,cs),
(287,653,o),
(310,624,o),
(310,571,cs),
(310,464,o),
(233,368,o),
(151,267,cs),
(-22,59,l),
(-33,0,l)
);
}
);
width = 391;
},
{
layerId = "1C9FFC3E-B033-49C1-8526-F3CD51FE3A6C";
shapes = (
{
closed = 1;
nodes = (
(361,0,l),
(392,146,l),
(194,146,l),
(194,149,l),
(312,271,ls),
(403,365,o),
(470,458,o),
(470,572,cs),
(470,662,o),
(404,724,o),
(311,724,cs),
(233,724,o),
(164,690,o),
(97,609,c),
(150,494,l),
(184,528,o),
(233,578,o),
(270,578,cs),
(291,578,o),
(299,562,o),
(299,537,cs),
(299,468,o),
(236,387,o),
(173,315,cs),
(-3,116,l),
(-28,0,l)
);
}
);
width = 474;
},
{
layerId = "84606D06-D269-45BD-896C-8402F9D7AD38";
shapes = (
{
closed = 1;
nodes = (
(463,0,l),
(496,159,l),
(257,159,l),
(257,165,l),
(357,251,ls),
(503,377,o),
(545,451,o),
(545,544,cs),
(545,656,o),
(464,724,o),
(346,724,cs),
(238,724,o),
(152,682,o),
(82,616,c),
(173,490,l),
(224,537,o),
(268,562,o),
(310,562,cs),
(336,562,o),
(355,546,o),
(355,514,cs),
(355,478,o),
(329,423,o),
(234,338,cs),
(-2,125,l),
(-28,0,l)
);
}
);
width = 580;
}
);
script = "";
subCategory = "Decimal Digit";
unicode = 50;
}
{
category = Number;
color = 10;
glyphname = four;
layers = (
{
layerId = "891911EE-97A3-4583-AC34-B57874F49FBA";
shapes = (
{
closed = 1;
nodes = (
(194,0,l),
(230,168,l),
(299,168,l),
(304,193,l),
(235,193,l),
(348,723,l),
(306,723,l),
(-17,187,l),
(-20,168,l),
(204,168,l),
(168,0,l)
);
},
{
closed = 1;
nodes = (
(270,616,ls),
(289,648,o),
(300,667,o),
(317,699,c),
(319,699,l),
(311,665,o),
(302,623,o),
(293,583,cs),
(209,193,l),
(16,193,l)
);
}
);
width = 343;
},
{
layerId = "4ABFEEF6-B0FE-443E-B48D-B4A70A3A2C9A";
shapes = (
{
closed = 1;
nodes = (
(356,0,l),
(397,194,l),
(523,194,l),
(529,219,l),
(402,219,l),
(508,718,l),
(477,718,l),
(19,212,l),
(15,194,l),
(371,194,l),
(330,0,l)
);
},
{
closed = 1;
nodes = (
(395,592,ls),
(433,633,o),
(449,652,o),
(475,686,c),
(477,686,l),
(464,633,o),
(458,606,o),
(441,524,cs),
(376,219,l),
(57,219,l)
);
}
);
width = 550;
},
{
associatedMasterId = "9733853B-DD8E-49B4-939D-1F0D465E8B6E";
attr = {
coordinates = (
151,
100
);
};
background = {
shapes = (
{
closed = 1;
nodes = (
(392.16,0,l),
(423.94,149.34,l),
(511.59,149.34,l),
(534.98,261.12,l),
(447.72,261.12,l),
(543.16,714.66,l),
(403.11,714.66,l),
(18.14,249.7,l),
(-1.81,149.34,l),
(286.4,149.34,l),
(255.01,0,l)
);
},
{
closed = 1;
nodes = (
(314.42,458.5,ls),
(334.57,481.14,o),
(363.35,525.02,o),
(377.79,548.73,c),
(381.79,548.73,l),
(373.45,521.32,o),
(353.16,449.62,o),
(340.99,399.65,cs),
(309.79,261.12,l),
(152,261.12,l)
);
}
);
};
layerId = "f06528f9-cad1-484b-8a62-5e77f461bac7";
name = "SemiBold Italic (intermediate)";
shapes = (
{
closed = 1;
nodes = (
(388,0,l),
(419,148,l),
(502,148,l),
(527,265,l),
(444,265,l),
(539,714,l),
(387,714,l),
(11,262,l),
(-12,148,l),
(276,148,l),
(245,0,l)
);
},
{
closed = 1;
nodes = (
(302,447,ls),
(325,475,o),
(349,509,o),
(364,535,c),
(369,535,l),
(360,511,o),
(340,437,o),
(329,386,cs),
(301,265,l),
(149,265,l)
);
}
);
width = 551;
},
{
associatedMasterId = "A849C433-1DA2-4174-AEA9-F403839AA1E5";
attr = {
coordinates = (
151,
70
);
};
background = {
shapes = (
{
closed = 1;
nodes = (
(299.29,0,l),
(329.85,145.02,l),
(395.02,145.02,l),
(418.56,255.5,l),
(353.39,255.5,l),
(451.07,716.34,l),
(322.37,716.34,l),
(10.25,250.11,l),
(-11.9,145.02,l),
(201,145.02,l),
(170.05,0,l)
);
},
{
closed = 1;
nodes = (
(249.44,468.15,ls),
(258.12,481.34,o),
(265.63,495.58,o),
(284.75,532.43,c),
(287.75,532.43,l),
(282.58,510.97,o),
(273.58,481.85,o),
(269.02,461.61,cs),
(224.54,255.5,l),
(113.8,255.5,l)
);
}
);
};
layerId = "c0b8a88e-fa0a-4782-ba49-67913aef4122";
name = "SemiBold Condensed Italic (intermediate)";
shapes = (
{
closed = 1;
nodes = (
(291,0,l),
(322,147,l),
(387,147,l),
(409,251,l),
(344,251,l),
(443,717,l),
(321,717,l),
(8,245,l),
(-13,147,l),
(201,147,l),
(170,0,l)
);
},
{
closed = 1;
nodes = (
(249,478,ls),
(259,492,o),
(267,508,o),
(287,545,c),
(290,545,l),
(284,522,o),
(275,492,o),
(270,471,cs),
(223,251,l),
(106,251,l)
);
}
);
width = 434;
},
{
layerId = "9733853B-DD8E-49B4-939D-1F0D465E8B6E";
shapes = (
{
closed = 1;
nodes = (
(373,0,l),
(408,162,l),
(519,162,l),
(536,240,l),
(426,240,l),
(525,714,l),
(424,714,l),
(21,242,l),
(6,162,l),
(323,162,l),
(288,0,l)
);
},
{
closed = 1;
nodes = (
(360,531,ls),
(377,551,o),
(412,598,o),
(428,624,c),
(432,624,l),
(419,578,o),
(392,484,o),
(376,411,cs),
(340,240,l),
(111,240,l)
);
}
);
width = 551;
},
{
layerId = "A849C433-1DA2-4174-AEA9-F403839AA1E5";
shapes = (
{
closed = 1;
nodes = (
(245,0,l),
(278,156,l),
(345,156,l),
(360,225,l),
(293,225,l),
(398,720,l),
(312,720,l),
(-5,219,l),
(-18,156,l),
(201,156,l),
(167,0,l)
);
},
{
closed = 1;
nodes = (
(247,520,ls),
(263,546,o),
(276,570,o),
(300,616,c),
(303,616,l),
(296,586,o),
(287,552,o),
(280,522,cs),
(216,225,l),
(65,225,l)
);
}
);
width = 391;
},
{
layerId = "1C9FFC3E-B033-49C1-8526-F3CD51FE3A6C";
shapes = (
{
closed = 1;
nodes = (
(334,0,l),
(363,138,l),
(427,138,l),
(456,275,l),
(392,275,l),
(485,714,l),
(329,714,l),
(20,270,l),
(-8,138,l),
(201,138,l),
(172,0,l)
);
},
{
closed = 1;
nodes = (
(251,435,ls),
(255,440,o),
(259,448,o),
(275,479,c),
(278,479,l),
(274,463,o),
(265,437,o),
(262,423,cs),
(230,275,l),
(145,275,l)
);
}
);
width = 474;
},
{
layerId = "84606D06-D269-45BD-896C-8402F9D7AD38";
shapes = (
{
closed = 1;
nodes = (
(418,0,l),
(447,138,l),
(520,138,l),
(550,282,l),
(477,282,l),
(568,714,l),
(392,714,l),
(20,263,l),
(-5,138,l),
(263,138,l),
(234,0,l)
);
},
{
closed = 1;
nodes = (
(286,396,ls),
(306,419,o),
(330,458,o),
(342,480,c),
(346,480,l),
(342,467,o),
(326,411,o),
(317,377,cs),
(293,282,l),
(191,282,l)
);
}
);
width = 580;
}
);
script = "";
subCategory = "Decimal Digit";
unicode = 52;
}
{
category = Number;
glyphname = five;
layers = (
{
layerId = "891911EE-97A3-4583-AC34-B57874F49FBA";
shapes = (
{
closed = 1;
nodes = (
(224,-10,o),
(290,129,o),
(290,259,cs),
(290,359,o),
(238,422,o),
(147,422,cs),
(118,422,o),
(98,416,o),
(85,412,c),
(162,689,l),
(343,689,l),
(349,714,l),
(143,714,l),
(57,406,l),
(72,383,l),
(92,391,o),
(115,397,o),
(145,397,cs),
(223,397,o),
(263,352,o),
(263,257,cs),
(263,140,o),
(208,15,o),
(72,15,cs),
(27,15,o),
(-7,31,o),
(-27,44,c),
(-27,14,l),
(-9,4,o),
(27,-10,o),
(71,-10,cs)
);
}
);
width = 343;
},
{
layerId = "4ABFEEF6-B0FE-443E-B48D-B4A70A3A2C9A";
shapes = (
{
closed = 1;
nodes = (
(347,-10,o),
(475,73,o),
(475,247,cs),
(475,354,o),
(398,427,o),
(285,427,cs),
(226,427,o),
(186,417,o),
(154,408,c),
(239,689,l),
(532,689,l),
(537,714,l),
(220,714,l),
(124,393,l),
(139,379,l),
(189,393,o),
(226,402,o),
(285,402,cs),
(390,402,o),
(448,340,o),
(448,246,cs),
(448,87,o),
(335,15,o),
(208,15,cs),
(142,15,o),
(75,35,o),
(38,62,c),
(38,32,l),
(73,8,o),
(137,-10,o),
(206,-10,cs)
);
}
);
width = 550;
},
{
layerId = "9733853B-DD8E-49B4-939D-1F0D465E8B6E";
shapes = (
{
closed = 1;
nodes = (
(419,-10,o),
(487,129,o),
(487,248,cs),
(487,365,o),
(411,437,o),
(293,437,cs),
(257,437,o),
(230,432,o),
(206,427,c),
(266,634,l),
(519,634,l),
(536,714,l),
(207,714,l),
(110,378,l),
(147,349,l),
(190,360,o),
(221,367,o),
(261,367,cs),
(344,367,o),
(395,319,o),
(395,237,cs),
(395,145,o),
(340,64,o),
(200,64,cs),
(141,64,o),
(85,84,o),
(37,114,c),
(37,29,l),
(81,3,o),
(137,-10,o),
(200,-10,cs)
);
}
);
width = 551;
},
{
layerId = "A849C433-1DA2-4174-AEA9-F403839AA1E5";
shapes = (
{
closed = 1;
nodes = (
(266,-10,o),
(342,125,o),
(342,265,cs),
(342,376,o),
(291,439,o),
(204,439,cs),
(185,439,o),
(166,436,o),
(148,431,c),
(207,641,l),
(385,641,l),
(401,714,l),
(152,714,l),
(63,385,l),
(89,354,l),
(115,364,o),
(139,370,o),
(165,370,cs),
(228,370,o),
(259,327,o),
(259,250,cs),
(259,150,o),
(205,60,o),
(105,60,cs),
(57,60,o),
(17,75,o),
(-11,99,c),
(-11,15,l),
(13,2,o),
(54,-10,o),
(104,-10,cs)
);
}
);
width = 391;
},
{
layerId = "1C9FFC3E-B033-49C1-8526-F3CD51FE3A6C";
shapes = (
{
closed = 1;
nodes = (
(368,-10,o),
(430,164,o),
(430,295,cs),
(430,405,o),
(379,468,o),
(303,468,cs),
(291,468,o),
(275,467,o),
(254,462,c),
(282,567,l),
(458,567,l),
(489,714,l),
(172,714,l),
(76,346,l),
(121,308,l),
(147,319,o),
(171,327,o),
(195,327,cs),
(236,327,o),
(256,304,o),
(256,262,cs),
(256,200,o),
(221,134,o),
(161,134,cs),
(109,134,o),
(56,154,o),
(19,186,c),
(19,19,l),
(53,1,o),
(98,-10,o),
(161,-10,cs)
);
}
);
width = 474;
},
{
layerId = "84606D06-D269-45BD-896C-8402F9D7AD38";
shapes = (
{
closed = 1;
nodes = (
(398,-10,o),
(518,76,o),
(518,256,cs),
(518,393,o),
(430,468,o),
(320,468,cs),
(312,468,o),
(300,468,o),
(283,466,c),
(312,556,l),
(542,556,l),
(575,714,l),
(178,714,l),
(73,348,l),
(133,303,l),
(157,312,o),
(198,319,o),
(232,319,cs),
(293,319,o),
(323,281,o),
(323,236,cs),
(323,170,o),
(274,142,o),
(188,142,cs),
(132,142,o),
(58,161,o),
(10,189,c),
(10,31,l),
(48,3,o),
(139,-10,o),
(212,-10,cs)
);
}
);
width = 580;
}
);
script = "";
subCategory = "Decimal Digit";
unicode = 53;
}
{
category = Number;
glyphname = six;
layers = (
{
layerId = "891911EE-97A3-4583-AC34-B57874F49FBA";
shapes = (
{
closed = 1;
nodes = (
(252,-10,o),
(306,168,o),
(306,295,cs),
(306,384,o),
(263,435,o),
(199,435,cs),
(143,435,o),
(102,403,o),
(72,352,c),
(68,352,l),
(122,591,o),
(194,699,o),
(301,699,cs),
(322,699,o),
(341,695,o),
(354,688,c),
(364,713,l),
(349,720,o),
(330,724,o),
(302,724,cs),
(209,724,o),
(148,652,o),
(112,576,cs),
(63,472,o),
(22,306,o),
(22,150,cs),
(22,41,o),
(66,-10,o),
(127,-10,cs)
);
},
{
closed = 1;
nodes = (
(78,15,o),
(49,58,o),
(49,154,cs),
(49,214,o),
(53,252,o),
(63,284,cs),
(84,355,o),
(130,410,o),
(199,410,cs),
(248,410,o),
(279,369,o),
(279,291,cs),
(279,190,o),
(236,15,o),
(129,15,cs)
);
}
);
width = 343;
},
{
layerId = "4ABFEEF6-B0FE-443E-B48D-B4A70A3A2C9A";
shapes = (
{
closed = 1;
nodes = (
(375,-10,o),
(491,104,o),
(491,267,cs),
(491,369,o),
(426,439,o),
(324,439,cs),
(216,439,o),
(144,378,o),
(107,322,c),
(105,322,l),
(170,604,o),
(302,701,o),
(448,701,cs),
(484,701,o),
(516,695,o),
(537,686,c),
(543,712,l),
(520,720,o),
(484,726,o),
(448,726,cs),
(375,726,o),
(295,701,o),
(233,639,cs),
(134,540,o),
(68,348,o),
(68,209,cs),
(68,91,o),
(118,-10,o),
(253,-10,cs)
);
},
{
closed = 1;
nodes = (
(125,15,o),
(95,115,o),
(95,197,cs),
(95,219,o),
(98,241,o),
(101,258,cs),
(115,327,o),
(204,414,o),
(321,414,cs),
(408,414,o),
(464,361,o),
(464,267,cs),
(464,143,o),
(379,15,o),
(252,15,cs)
);
}
);
width = 550;
},
{
layerId = "9733853B-DD8E-49B4-939D-1F0D465E8B6E";
shapes = (
{
closed = 1;
nodes = (
(422,-10,o),
(500,136,o),
(500,269,cs),
(500,384,o),
(436,449,o),
(338,449,cs),
(269,449,o),
(211,416,o),
(173,366,c),
(169,366,l),
(216,567,o),
(317,649,o),
(444,649,cs),
(480,649,o),
(506,644,o),
(528,637,c),
(546,713,l),
(522,720,o),
(489,724,o),
(454,724,cs),
(351,724,o),
(273,690,o),
(216,632,cs),
(110,529,o),
(63,348,o),
(63,209,cs),
(63,60,o),
(139,-10,o),
(251,-10,cs)
);
},
{
closed = 1;
nodes = (
(180,64,o),
(150,131,o),
(150,203,cs),
(150,230,o),
(153,258,o),
(162,279,cs),
(179,321,o),
(235,378,o),
(308,378,cs),
(379,378,o),
(413,336,o),
(413,261,cs),
(413,160,o),
(358,64,o),
(260,64,cs)
);
}
);
width = 551;
},
{
layerId = "A849C433-1DA2-4174-AEA9-F403839AA1E5";
shapes = (
{
closed = 1;
nodes = (
(298,-10,o),
(358,172,o),
(358,302,cs),
(358,388,o),
(324,451,o),
(252,451,cs),
(201,451,o),
(158,422,o),
(129,376,c),
(126,376,l),
(172,559,o),
(241,654,o),
(335,654,cs),
(358,654,o),
(380,650,o),
(398,643,c),
(416,714,l),
(395,720,o),
(370,724,o),
(335,724,cs),
(248,724,o),
(183,661,o),
(142,598,cs),
(69,492,o),
(25,319,o),
(25,170,cs),
(25,63,o),
(64,-10,o),
(155,-10,cs)
);
},
{
closed = 1;
nodes = (
(124,61,o),
(102,98,o),
(102,166,cs),
(102,217,o),
(109,266,o),
(124,297,cs),
(141,344,o),
(175,381,o),
(222,381,cs),
(257,381,o),
(278,349,o),
(278,294,cs),
(278,213,o),
(245,61,o),
(160,61,cs)
);
}
);
width = 391;
},
{
layerId = "1C9FFC3E-B033-49C1-8526-F3CD51FE3A6C";
shapes = (
{
closed = 1;
nodes = (
(378,-10,o),
(449,176,o),
(449,306,cs),
(449,404,o),
(419,476,o),
(336,476,cs),
(293,476,o),
(255,453,o),
(228,415,c),
(226,415,l),
(258,522,o),
(313,584,o),
(395,584,cs),
(421,584,o),
(448,580,o),
(477,572,c),
(507,715,l),
(475,721,o),
(442,724,o),
(394,724,cs),
(313,724,o),
(245,689,o),
(191,635,cs),
(85,529,o),
(32,346,o),
(32,208,cs),
(32,74,o),
(81,-10,o),
(209,-10,cs)
);
},
{
closed = 1;
nodes = (
(202,134,o),
(194,153,o),
(194,190,cs),
(194,227,o),
(206,291,o),
(229,318,cs),
(237,329,o),
(248,336,o),
(259,336,cs),
(274,336,o),
(281,321,o),
(281,292,cs),
(281,250,o),
(265,134,o),
(216,134,cs)
);
}
);
width = 474;
},
{
layerId = "84606D06-D269-45BD-896C-8402F9D7AD38";
shapes = (
{
closed = 1;
nodes = (
(443,-10,o),
(540,115,o),
(540,281,cs),
(540,415,o),
(478,477,o),
(380,477,cs),
(298,477,o),
(256,436,o),
(230,394,c),
(226,394,l),
(265,517,o),
(314,573,o),
(468,573,cs),
(494,573,o),
(532,568,o),
(557,561,c),
(588,709,l),
(550,718,o),
(511,724,o),
(474,724,cs),
(341,724,o),
(262,708,o),
(176,628,cs),
(88,547,o),
(39,386,o),
(39,249,cs),
(39,95,o),
(109,-10,o),
(272,-10,cs)
);
},
{
closed = 1;
nodes = (
(245,140,o),
(226,162,o),
(226,205,cs),
(226,226,o),
(229,246,o),
(234,263,cs),
(247,303,o),
(272,329,o),
(303,329,cs),
(334,329,o),
(348,305,o),
(348,266,cs),
(348,203,o),
(323,140,o),
(274,140,cs)
);
}
);
width = 580;
}
);
script = "";
subCategory = "Decimal Digit";
unicode = 54;
}
{
category = Number;
color = 10;
glyphname = seven;
layers = (
{
layerId = "891911EE-97A3-4583-AC34-B57874F49FBA";
shapes = (
{
closed = 1;
nodes = (
(66,0,l),
(379,689,l),
(380,714,l),
(99,714,l),
(94,689,l),
(351,689,l),
(37,0,l)
);
}
);
width = 343;
},
{
layerId = "4ABFEEF6-B0FE-443E-B48D-B4A70A3A2C9A";
shapes = (
{
closed = 1;
nodes = (
(146,0,l),
(559,697,l),
(562,714,l),
(133,714,l),
(128,689,l),
(524,689,l),
(114,0,l)
);
}
);
width = 550;
},
{
associatedMasterId = "9733853B-DD8E-49B4-939D-1F0D465E8B6E";
attr = {
coordinates = (
151,
100
);
};
background = {
shapes = (
{
closed = 1;
nodes = (
(212.6,0,l),
(579.5,617.77,l),
(599.82,714,l),
(121.78,714,l),
(94.8,585.98,l),
(400.93,585.98,l),
(41.96,0,l)
);
}
);
};
layerId = "f4abd2ec-41b0-47f8-83ef-9869c4889515";
name = "SemiBold Italic (intermediate)";
shapes = (
{
closed = 1;
nodes = (
(207,0,l),
(574,619,l),
(594,714,l),
(118,714,l),
(91,587,l),
(398,587,l),
(38,0,l)
);
}
);
width = 551;
},
{
layerId = "9733853B-DD8E-49B4-939D-1F0D465E8B6E";
shapes = (
{
closed = 1;
nodes = (
(176,0,l),
(549,644,l),
(562,714,l),
(123,714,l),
(107,636,l),
(454,636,l),
(81,0,l)
);
}
);
width = 551;
},
{
layerId = "A849C433-1DA2-4174-AEA9-F403839AA1E5";
shapes = (
{
closed = 1;
nodes = (
(113,0,l),
(424,655,l),
(434,714,l),
(109,714,l),
(93.994,641.005,l),
(340,641,l),
(31,0,l)
);
}
);
width = 391;
},
{
layerId = "1C9FFC3E-B033-49C1-8526-F3CD51FE3A6C";
shapes = (
{
closed = 1;
nodes = (
(198,0,l),
(504,603,l),
(528,713,l),
(133,713,l),
(102,566,l),
(330,566,l),
(27,0,l)
);
}
);
width = 474;
},
{
layerId = "84606D06-D269-45BD-896C-8402F9D7AD38";
shapes = (
{
closed = 1;
nodes = (
(236,0,l),
(599,601,l),
(624,714,l),
(121,714,l),
(87,554,l),
(367,554,l),
(17,0,l)
);
}
);
width = 580;
}
);
script = "";
subCategory = "Decimal Digit";
unicode = 55;
}
{
category = Number;
color = 10;
glyphname = eight;
layers = (
{
layerId = "891911EE-97A3-4583-AC34-B57874F49FBA";
shapes = (
{
closed = 1;
nodes = (
(228,-10,o),
(287,77,o),
(287,174,cs),
(287,257,o),
(250,315,o),
(198,372,c),
(297,422,o),
(353,496,o),
(353,596,cs),
(353,671,o),
(304,724,o),
(237,724,cs),
(144,724,o),
(87,651,o),
(87,551,cs),
(87,482,o),
(115,428,o),
(158,378,c),
(53,325,o),
(-13,258,o),
(-13,138,cs),
(-13,52,o),
(43,-10,o),
(124,-10,cs)
);
},
{
closed = 1;
nodes = (
(58,16,o),
(14,66,o),
(14,140,cs),
(14,255,o),
(80,312,o),
(174,360,c),
(221,308,o),
(260,254,o),
(260,174,cs),
(260,86,o),
(212,16,o),
(124,16,cs)
);
},
{
closed = 1;
nodes = (
(141,436,o),
(114,483,o),
(114,553,cs),
(114,646,o),
(165,699,o),
(236,699,cs),
(288,699,o),
(326,661,o),
(326,593,cs),
(326,505,o),
(280,437,o),
(182,389,c)
);
}
);
width = 343;
},
{
layerId = "4ABFEEF6-B0FE-443E-B48D-B4A70A3A2C9A";
shapes = (
{
closed = 1;
nodes = (
(362,-10,o),
(472,60,o),
(472,190,cs),
(472,290,o),
(408,333,o),
(333,373,c),
(444,416,o),
(530,473,o),
(530,580,cs),
(530,659,o),
(461,724,o),
(361,724,cs),
(245,724,o),
(161,654,o),
(161,542,cs),
(161,459,o),
(215,414,o),
(274,377,c),
(148,337,o),
(47,285,o),
(47,158,cs),
(47,58,o),
(128,-10,o),
(238,-10,cs)
);
},
{
closed = 1;
nodes = (
(144,15,o),
(73,69,o),
(73,158,cs),
(73,281,o),
(182,323,o),
(303,363,c),
(386,316,o),
(446,284,o),
(446,190,cs),
(446,72,o),
(347,15,o),
(239,15,cs)
);
},
{
closed = 1;
nodes = (
(237,426,o),
(187,469,o),
(187,542,cs),
(187,646,o),
(263,699,o),
(360,699,cs),
(441,699,o),
(503,654,o),
(503,580,cs),
(503,481,o),
(418,428,o),
(306,387,c)
);
}
);
width = 550;
},
{
associatedMasterId = "9733853B-DD8E-49B4-939D-1F0D465E8B6E";
attr = {
coordinates = (
151,
100
);
};
background = {
shapes = (
{
closed = 1;
nodes = (
(418.88,-10,o),
(507.91,76.24,o),
(507.91,200.32,cs),
(507.91,280.61,o),
(471.23,333.66,o),
(407.72,378.1,c),
(496.33,410.22,o),
(556.42,476.25,o),
(556.42,563.95,cs),
(556.42,652.66,o),
(490.78,725,o),
(356.73,725,cs),
(212.11,725,o),
(125.21,639.36,o),
(125.21,526.63,cs),
(125.21,451.19,o),
(160.43,408.8,o),
(204.72,374.85,c),
(94.26,334.73,o),
(32.19,267.12,o),
(32.19,166.56,cs),
(32.19,70.17,o),
(106.78,-10,o),
(255.76,-10,cs)
);
},
{
closed = 1;
nodes = (
(215.5,102.65,o),
(176.26,130.84,o),
(176.26,182.54,cs),
(176.26,248.48,o),
(225.13,286.82,o),
(289.29,313.38,c),
(338.55,283.92,o),
(364.84,246.46,o),
(364.84,197.71,cs),
(364.84,144.08,o),
(326.94,102.65,o),
(262.32,102.65,cs)
);
},
{
closed = 1;
nodes = (
(289.96,456.25,o),
(267.11,487.37,o),
(267.11,526.63,cs),
(267.11,577.11,o),
(301.91,611.96,o),
(348.51,611.96,cs),
(386.94,611.96,o),
(415.57,588.16,o),
(415.57,546.41,cs),
(415.57,499.81,o),
(384.65,460.64,o),
(323.54,437.62,c)
);
}
);
};
layerId = "c4836f09-d60d-49d6-959e-33d8667323f3";
name = "SemiBold Italic (intermediate)";
shapes = (
{
closed = 1;
nodes = (
(424,-10,o),
(504,91,o),
(504,196,cs),
(504,287,o),
(450,340,o),
(398,374,c),
(477,402,o),
(550,459,o),
(550,562,cs),
(550,650,o),
(485,725,o),
(352,725,cs),
(198,725,o),
(116,635,o),
(116,525,cs),
(116,458,o),
(157,410,o),
(197,379,c),
(88,339,o),
(27,273,o),
(27,171,cs),
(27,68,o),
(102,-10,o),
(251,-10,cs)
);
},
{
closed = 1;
nodes = (
(207,101,o),
(172,135,o),
(172,187,cs),
(172,246,o),
(209,285,o),
(284,314,c),
(329,285,o),
(361,250,o),
(361,195,cs),
(361,147,o),
(330,101,o),
(262,101,cs)
);
},
{
closed = 1;
nodes = (
(282,456,o),
(258,487,o),
(258,534,cs),
(258,579,o),
(287,615,o),
(339,615,cs),
(380,615,o),
(408,588,o),
(408,544,cs),
(408,492,o),
(374,458,o),
(318,436,c)
);
}
);
width = 551;
},
{
layerId = "9733853B-DD8E-49B4-939D-1F0D465E8B6E";
shapes = (
{
closed = 1;
nodes = (
(414,-10,o),
(489,86,o),
(489,193,cs),
(489,280,o),
(445,330,o),
(376,372,c),
(464,409,o),
(543,461,o),
(543,567,cs),
(543,649,o),
(492,725,o),
(361,725,cs),
(242,725,o),
(149,654,o),
(149,537,cs),
(149,464,o),
(183,421,o),
(234,384,c),
(115,339,o),
(45,272,o),
(45,169,cs),
(45,72,o),
(108,-10,o),
(246,-10,cs)
);
},
{
closed = 1;
nodes = (
(185,63,o),
(136,104,o),
(136,174,cs),
(136,268,o),
(205,310,o),
(296,339,c),
(366,301,o),
(399,255,o),
(399,191,cs),
(399,127,o),
(355,63,o),
(255,63,cs)
);
},
{
closed = 1;
nodes = (
(268,441,o),
(236,477,o),
(236,537,cs),
(236,607,o),
(283,651,o),
(354,651,cs),
(415,651,o),
(454,615,o),
(454,558,cs),
(454,487,o),
(406,446,o),
(315,412,c)
);
}
);
width = 551;
},
{
layerId = "A849C433-1DA2-4174-AEA9-F403839AA1E5";
shapes = (
{
closed = 1;
nodes = (
(267,-10,o),
(338,87,o),
(338,193,cs),
(338,261,o),
(314,317,o),
(257,373,c),
(349,423,o),
(403,497,o),
(403,588,cs),
(403,671,o),
(351,724,o),
(269,724,cs),
(157,724,o),
(91,641,o),
(91,536,cs),
(91,476,o),
(112,424,o),
(154,377,c),
(53,321,o),
(-7,252,o),
(-7,143,cs),
(-7,48,o),
(51,-10,o),
(151,-10,cs)
);
},
{
closed = 1;
nodes = (
(101,57,o),
(71,98,o),
(71,149,cs),
(71,240,o),
(124,294,o),
(196,334,c),
(235,292,o),
(261,246,o),
(261,189,cs),
(260,118,o),
(225,57,o),
(152,57,cs)
);
},
{
closed = 1;
nodes = (
(185,449,o),
(167,488,o),
(167,538,cs),
(167,612,o),
(203,657,o),
(260,657,cs),
(300,657,o),
(326,628,o),
(326,576,cs),
(326,511,o),
(289,454,o),
(216,415,c)
);
}
);
width = 391;
},
{
layerId = "1C9FFC3E-B033-49C1-8526-F3CD51FE3A6C";
shapes = (
{
closed = 1;
nodes = (
(330,-10,o),
(426,101,o),
(426,220,cs),
(426,279,o),
(407,328,o),
(354,376,c),
(437,426,o),
(487,494,o),
(487,578,cs),
(487,675,o),
(422,724,o),
(323,724,cs),
(186,724,o),
(103,631,o),
(103,507,cs),
(103,462,o),
(119,412,o),
(155,373,c),
(60,313,o),
(9,243,o),
(9,152,cs),
(9,49,o),
(79,-10,o),
(198,-10,cs)
);
},
{
closed = 1;
nodes = (
(181,122,o),
(168,138,o),
(168,165,cs),
(168,218,o),
(200,264,o),
(237,292,c),
(259,266,o),
(270,238,o),
(270,211,cs),
(270,167,o),
(247,122,o),
(203,122,cs)
);
},
{
closed = 1;
nodes = (
(265,473,o),
(256,496,o),
(256,517,cs),
(256,560,o),
(273,592,o),
(300,592,cs),
(318,592,o),
(329,582,o),
(329,555,cs),
(329,519,o),
(313,486,o),
(276,458,c)
);
}
);
width = 474;
},
{
layerId = "84606D06-D269-45BD-896C-8402F9D7AD38";
shapes = (
{
closed = 1;
nodes = (
(422,-10,o),
(520,70,o),
(520,205,cs),
(520,281,o),
(488,336,o),
(428,382,c),
(517,411,o),
(565,486,o),
(565,562,cs),
(565,655,o),
(490,725,o),
(354,725,cs),
(193,725,o),
(110,630,o),
(110,520,cs),
(110,443,o),
(146,401,o),
(186,369,c),
(81,332,o),
(24,264,o),
(24,165,cs),
(24,69,o),
(106,-10,o),
(262,-10,cs)
);
},
{
closed = 1;
nodes = (
(235,128,o),
(202,148,o),
(202,188,cs),
(202,236,o),
(238,272,o),
(285,297,c),
(321,273,o),
(343,241,o),
(343,202,cs),
(343,155,o),
(309,128,o),
(267,128,cs)
);
},
{
closed = 1;
nodes = (
(304,466,o),
(287,494,o),
(287,520,cs),
(287,558,o),
(314,587,o),
(345,587,cs),
(369,587,o),
(391,571,o),
(391,539,cs),
(391,508,o),
(371,470,o),
(329,454,c)
);
}
);
width = 580;
}
);
script = "";
subCategory = "Decimal Digit";
unicode = 56;
}
{
category = Number;
glyphname = nine;
layers = (
{
layerId = "891911EE-97A3-4583-AC34-B57874F49FBA";
shapes = (
{
closed = 1;
nodes = (
(153,-10,o),
(211,62,o),
(247,138,cs),
(296,242,o),
(337,408,o),
(337,564,cs),
(337,672,o),
(294,724,o),
(230,724,cs),
(107,724,o),
(53,546,o),
(53,419,cs),
(53,331,o),
(95,279,o),
(160,279,cs),
(216,279,o),
(259,311,o),
(289,362,c),
(291,362,l),
(237,123,o),
(165,15,o),
(58,15,cs),
(32,15,o),
(8,21,o),
(-5,29,c),
(-5,1,l),
(9,-5,o),
(29,-10,o),
(57,-10,cs)
);
},
{
closed = 1;
nodes = (
(111,304,o),
(80,345,o),
(80,423,cs),
(80,524,o),
(123,699,o),
(230,699,cs),
(281,699,o),
(310,656,o),
(310,560,cs),
(310,500,o),
(306,462,o),
(296,430,cs),
(275,359,o),
(229,304,o),
(160,304,cs)
);
}
);
width = 343;
},
{
layerId = "4ABFEEF6-B0FE-443E-B48D-B4A70A3A2C9A";
shapes = (
{
closed = 1;
nodes = (
(226,-10,o),
(291,13,o),
(348,65,cs),
(450,158,o),
(523,363,o),
(523,507,cs),
(523,629,o),
(468,724,o),
(342,724,cs),
(209,724,o),
(100,604,o),
(100,443,cs),
(100,347,o),
(164,275,o),
(269,275,cs),
(375,275,o),
(447,333,o),
(482,387,c),
(484,387,l),
(417,115,o),
(289,15,o),
(165,15,cs),
(119,15,o),
(73,24,o),
(47,34,c),
(47,6,l),
(76,-3,o),
(119,-10,o),
(165,-10,cs)
);
},
{
closed = 1;
nodes = (
(183,300,o),
(127,355,o),
(127,443,cs),
(127,573,o),
(209,699,o),
(342,699,cs),
(459,699,o),
(496,607,o),
(496,512,cs),
(496,490,o),
(495,475,o),
(491,458,cs),
(474,383,o),
(387,300,o),
(270,300,cs)
);
}
);
width = 550;
},
{
layerId = "9733853B-DD8E-49B4-939D-1F0D465E8B6E";
shapes = (
{
closed = 1;
nodes = (
(251,-10,o),
(328,17,o),
(389,85,cs),
(473,179,o),
(522,364,o),
(522,504,cs),
(522,649,o),
(453,724,o),
(336,724,cs),
(182,724,o),
(87,598,o),
(87,454,cs),
(87,332,o),
(149,265,o),
(259,265,cs),
(323,265,o),
(378,296,o),
(411,343,c),
(416,343,l),
(376,157,o),
(300,66,o),
(167,66,cs),
(121,66,o),
(83,76,o),
(47,88,c),
(47,7,l),
(81,-4,o),
(125,-10,o),
(165,-10,cs)
);
},
{
closed = 1;
nodes = (
(209,336,o),
(174,380,o),
(174,458,cs),
(174,563,o),
(231,650,o),
(331,650,cs),
(398,650,o),
(435,595,o),
(435,516,cs),
(435,482,o),
(430,454,o),
(421,432,cs),
(393,370,o),
(340,336,o),
(277,336,cs)
);
}
);
width = 551;
},
{
layerId = "A849C433-1DA2-4174-AEA9-F403839AA1E5";
shapes = (
{
closed = 1;
nodes = (
(185,-10,o),
(255,65,o),
(301,160,cs),
(357,266,o),
(387,419,o),
(387,548,cs),
(387,663,o),
(343,724,o),
(261,724,cs),
(115,724,o),
(55,541,o),
(55,414,cs),
(55,329,o),
(88,263,o),
(161,263,cs),
(210,263,o),
(254,293,o),
(284,338,c),
(287,338,l),
(244,155,o),
(176,60,o),
(80,60,cs),
(48,60,o),
(19,65,o),
(-1,73,c),
(-1,1,l),
(21,-5,o),
(47,-10,o),
(83,-10,cs)
);
},
{
closed = 1;
nodes = (
(155,334,o),
(134,366,o),
(134,425,cs),
(134,514,o),
(175,653,o),
(253,653,cs),
(290,653,o),
(310,617,o),
(310,550,cs),
(310,478,o),
(296,420,o),
(267,384,cs),
(249,354,o),
(223,334,o),
(191,334,cs)
);
}
);
width = 391;
},
{
layerId = "1C9FFC3E-B033-49C1-8526-F3CD51FE3A6C";
shapes = (
{
closed = 1;
nodes = (
(285,-10,o),
(379,123,o),
(429,259,cs),
(464,355,o),
(477,453,o),
(477,506,cs),
(477,644,o),
(419,724,o),
(307,724,cs),
(130,724,o),
(60,525,o),
(60,396,cs),
(60,307,o),
(90,238,o),
(173,238,cs),
(215,238,o),
(252,262,o),
(281,299,c),
(283,299,l),
(250,192,o),
(196,130,o),
(114,130,cs),
(79,130,o),
(41,135,o),
(12,145,c),
(12,2,l),
(44,-5,o),
(76,-10,o),
(122,-10,cs)
);
},
{
closed = 1;
nodes = (
(235,378,o),
(228,393,o),
(228,422,cs),
(228,463,o),
(248,580,o),
(293,580,cs),
(307,580,o),
(315,562,o),
(315,524,cs),
(315,492,o),
(306,442,o),
(289,410,cs),
(279,391,o),
(266,378,o),
(250,378,cs)
);
}
);
width = 474;
},
{
layerId = "84606D06-D269-45BD-896C-8402F9D7AD38";
shapes = (
{
closed = 1;
nodes = (
(270,-10,o),
(356,27,o),
(418,86,cs),
(517,180,o),
(555,328,o),
(555,465,cs),
(555,616,o),
(486,724,o),
(323,724,cs),
(136,724,o),
(53,587,o),
(53,433,cs),
(53,313,o),
(113,235,o),
(213,235,cs),
(295,235,o),
(334,278,o),
(360,320,c),
(364,320,l),
(338,201,o),
(274,146,o),
(151,140,cs),
(114,138,o),
(84,145,o),
(52,158,c),
(52,5,l),
(81,-4,o),
(114,-10,o),
(155,-10,cs)
);
},
{
closed = 1;
nodes = (
(260,385,o),
(245,408,o),
(245,455,cs),
(245,519,o),
(277,574,o),
(320,574,cs),
(351,574,o),
(368,543,o),
(368,503,cs),
(368,482,o),
(364,463,o),
(358,446,cs),
(345,410,o),
(320,385,o),
(290,385,cs)
);
}
);
width = 580;
}
);
script = "";
subCategory = "Decimal Digit";
unicode = 57;
}
{
category = Punctuation;
glyphname = colon;
kernLeft = colon;
layers = (
{
layerId = "891911EE-97A3-4583-AC34-B57874F49FBA";
shapes = (
{
closed = 1;
nodes = (
(138,460,o),
(147,487,o),
(147,504,cs),
(147,521,o),
(140,529,o),
(129,529,cs),
(109,529,o),
(100,503,o),
(100,484,cs),
(100,469,o),
(107,460,o),
(118,460,cs)
);
},
{
closed = 1;
nodes = (
(40,-1,o),
(49,26,o),
(49,43,cs),
(49,60,o),
(42,68,o),
(31,68,cs),
(11,68,o),
(2,42,o),
(2,23,cs),
(2,8,o),
(9,-1,o),
(20,-1,cs)
);
}
);
width = 153;
},
{
layerId = "4ABFEEF6-B0FE-443E-B48D-B4A70A3A2C9A";
shapes = (
{
closed = 1;
nodes = (
(176,470,o),
(186,492,o),
(186,510,cs),
(186,521,o),
(180,532,o),
(164,532,cs),
(144,532,o),
(134,510,o),
(134,492,cs),
(134,478,o),
(143,470,o),
(157,470,cs)
);
},
{
closed = 1;
nodes = (
(74,-8,o),
(84,14,o),
(84,32,cs),
(84,43,o),
(78,54,o),
(62,54,cs),
(42,54,o),
(32,32,o),
(32,14,cs),
(32,0,o),
(41,-8,o),
(55,-8,cs)
);
}
);
width = 210;
},
{
layerId = "FAB9F01D-70CE-4F71-A270-EC67BDAC6531";
shapes = (
{
closed = 1;
nodes = (
(236,390,o),
(274,430,o),
(274,485,cs),
(274,530,o),
(245,556,o),
(201,556,cs),
(128,556,o),
(101,507,o),
(101,459,cs),
(101,424,o),
(121,390,o),
(177,390,cs)
);
},
{
closed = 1;
nodes = (
(147,-13,o),
(185,27,o),
(185,82,cs),
(185,127,o),
(156,153,o),
(112,153,cs),
(39,153,o),
(12,104,o),
(12,56,cs),
(12,21,o),
(32,-13,o),
(88,-13,cs)
);
}
);
width = 285;
},
{
layerId = "E7382CC2-7CD9-4594-B524-5D480E09B385";
shapes = (
{
closed = 1;
nodes = (
(194,396,o),
(233,436,o),
(233,495,cs),
(233,529,o),
(212,551,o),
(177,551,cs),
(118,551,o),
(87,502,o),
(87,451,cs),
(87,414,o),
(109,396,o),
(148,396,cs)
);
},
{
closed = 1;
nodes = (
(106,-10,o),
(147,31,o),
(147,90,cs),
(147,125,o),
(126,146,o),
(90,146,cs),
(32,146,o),
(0,98,o),
(0,46,cs),
(0,9,o),
(22,-10,o),
(61,-10,cs)
);
}
);
width = 236;
},
{
layerId = "9733853B-DD8E-49B4-939D-1F0D465E8B6E";
shapes = (
{
closed = 1;
nodes = (
(201,415,o),
(225,455,o),
(225,497,cs),
(225,533,o),
(205,550,o),
(176,550,cs),
(123,550,o),
(99,511,o),
(99,466,cs),
(99,434,o),
(118,415,o),
(151,415,cs)
);
},
{
closed = 1;
nodes = (
(122,-14,o),
(146,27,o),
(146,68,cs),
(146,103,o),
(126,121,o),
(97,121,cs),
(44,121,o),
(20,82,o),
(20,38,cs),
(20,5,o),
(39,-14,o),
(72,-14,cs)
);
}
);
width = 256;
},
{
layerId = "A849C433-1DA2-4174-AEA9-F403839AA1E5";
shapes = (
{
closed = 1;
nodes = (
(171,417,o),
(198,451,o),
(198,496,cs),
(198,521,o),
(184,540,o),
(158,540,cs),
(117,540,o),
(93,502,o),
(93,460,cs),
(93,432,o),
(110,417,o),
(135,417,cs)
);
},
{
closed = 1;
nodes = (
(79,-8,o),
(107,26,o),
(107,71,cs),
(107,98,o),
(92,115,o),
(67,115,cs),
(25,115,o),
(2,77,o),
(2,35,cs),
(2,7,o),
(19,-8,o),
(44,-8,cs)
);
}
);
width = 204;
},
{
layerId = "1C9FFC3E-B033-49C1-8526-F3CD51FE3A6C";
shapes = (
{
closed = 1;
nodes = (
(216,374,o),
(267,421,o),
(267,494,cs),
(267,536,o),
(240,561,o),
(196,561,cs),
(121,561,o),
(82,503,o),
(82,442,cs),
(82,396,o),
(109,374,o),
(160,374,cs)
);
},
{
closed = 1;
nodes = (
(133,-12,o),
(185,35,o),
(185,108,cs),
(185,150,o),
(158,175,o),
(113,175,cs),
(39,175,o),
(-1,118,o),
(-1,56,cs),
(-1,11,o),
(26,-12,o),
(77,-12,cs)
);
}
);
width = 267;
},
{
layerId = "84606D06-D269-45BD-896C-8402F9D7AD38";
shapes = (
{
closed = 1;
nodes = (
(254,372,o),
(302,398,o),
(302,485,cs),
(302,536,o),
(266,560,o),
(213,560,cs),
(149,560,o),
(95,526,o),
(95,447,cs),
(95,396,o),
(129,372,o),
(180,372,cs)
);
},
{
closed = 1;
nodes = (
(159,-12,o),
(207,14,o),
(207,100,cs),
(207,152,o),
(171,176,o),
(119,176,cs),
(55,176,o),
(0,141,o),
(0,62,cs),
(0,11,o),
(34,-12,o),
(85,-12,cs)
);
}
);
width = 306;
}
);
script = "";
subCategory = Other;
unicode = 58;
}
{
category = Punctuation;
glyphname = semicolon;
kernLeft = colon;
layers = (
{
layerId = "891911EE-97A3-4583-AC34-B57874F49FBA";
shapes = (
{
closed = 1;
nodes = (
(-26,-127,l),
(12,-72,o),
(56,22,o),
(74,80,c),
(70,91,l),
(46,91,l),
(30,26,o),
(-12,-69,o),
(-45,-127,c)
);
},
{
closed = 1;
nodes = (
(144,460,o),
(153,487,o),
(153,504,cs),
(153,521,o),
(146,529,o),
(135,529,cs),
(115,529,o),
(106,503,o),
(106,484,cs),
(106,469,o),
(113,460,o),
(124,460,cs)
);
}
);
width = 156;
},
{
layerId = "4ABFEEF6-B0FE-443E-B48D-B4A70A3A2C9A";
shapes = (
{
closed = 1;
nodes = (
(-22,-129,l),
(20,-60,o),
(60,30,o),
(88,104,c),
(87,116,l),
(60,116,l),
(34,40,o),
(4,-32,o),
(-45,-129,c)
);
},
{
closed = 1;
nodes = (
(175,470,o),
(185,492,o),
(185,510,cs),
(185,521,o),
(179,532,o),
(163,532,cs),
(143,532,o),
(133,510,o),
(133,492,cs),
(133,478,o),
(142,470,o),
(156,470,cs)
);
}
);
width = 210;
},
{
layerId = "FAB9F01D-70CE-4F71-A270-EC67BDAC6531";
shapes = (
{
closed = 1;
nodes = (
(60,-129,l),
(107,-56,o),
(156,34,o),
(188,105,c),
(184,116,l),
(45,116,l),
(20,47,o),
(-15,-50,o),
(-50,-129,c)
);
},
{
closed = 1;
nodes = (
(236,390,o),
(274,430,o),
(274,485,cs),
(274,530,o),
(245,556,o),
(201,556,cs),
(128,556,o),
(101,507,o),
(101,459,cs),
(101,424,o),
(121,390,o),
(177,390,cs)
);
}
);
width = 285;
},
{
layerId = "E7382CC2-7CD9-4594-B524-5D480E09B385";
shapes = (
{
closed = 1;
nodes = (
(43,-135,l),
(86,-62,o),
(126,26,o),
(160,119,c),
(157,130,l),
(38,130,l),
(13,40,o),
(-19,-49,o),
(-54,-135,c)
);
},
{
closed = 1;
nodes = (
(197,396,o),
(236,436,o),
(236,495,cs),
(236,529,o),
(215,551,o),
(180,551,cs),
(121,551,o),
(90,502,o),
(90,451,cs),
(90,414,o),
(112,396,o),
(151,396,cs)
);
}
);
width = 236;
},
{
layerId = "9733853B-DD8E-49B4-939D-1F0D465E8B6E";
shapes = (
{
closed = 1;
nodes = (
(18,-129,l),
(65,-56,o),
(117,34,o),
(150,105,c),
(146,116,l),
(50,116,l),
(25,47,o),
(-14,-50,o),
(-49,-129,c)
);
},
{
closed = 1;
nodes = (
(201,415,o),
(225,455,o),
(225,497,cs),
(225,533,o),
(205,550,o),
(176,550,cs),
(123,550,o),
(99,511,o),
(99,466,cs),
(99,434,o),
(118,415,o),
(151,415,cs)
);
}
);
width = 256;
},
{
layerId = "A849C433-1DA2-4174-AEA9-F403839AA1E5";
shapes = (
{
closed = 1;
nodes = (
(10,-132,l),
(54,-59,o),
(95,23,o),
(126,102,c),
(122,112,l),
(42,112,l),
(20,35,o),
(-13,-50,o),
(-50,-132,c)
);
},
{
closed = 1;
nodes = (
(176,417,o),
(203,451,o),
(203,496,cs),
(203,521,o),
(189,540,o),
(163,540,cs),
(121,540,o),
(98,502,o),
(98,460,cs),
(98,432,o),
(115,417,o),
(140,417,cs)
);
}
);
width = 204;
},
{
layerId = "1C9FFC3E-B033-49C1-8526-F3CD51FE3A6C";
shapes = (
{
closed = 1;
nodes = (
(73,-139,l),
(116,-64,o),
(155,28,o),
(192,136,c),
(189,146,l),
(33,146,l),
(6,45,o),
(-25,-48,o),
(-59,-139,c)
);
},
{
closed = 1;
nodes = (
(216,374,o),
(267,421,o),
(267,494,cs),
(267,536,o),
(240,561,o),
(196,561,cs),
(121,561,o),
(82,503,o),
(82,442,cs),
(82,396,o),
(109,374,o),
(160,374,cs)
);
}
);
width = 267;
},
{
layerId = "84606D06-D269-45BD-896C-8402F9D7AD38";
shapes = (
{
closed = 1;
nodes = (
(84,-129,l),
(131,-56,o),
(178,34,o),
(209,105,c),
(205,116,l),
(35,116,l),
(10,47,o),
(-22,-50,o),
(-57,-129,c)
);
},
{
closed = 1;
nodes = (
(254,372,o),
(302,398,o),
(302,485,cs),
(302,536,o),
(266,560,o),
(213,560,cs),
(149,560,o),
(95,526,o),
(95,447,cs),
(95,396,o),
(129,372,o),
(180,372,cs)
);
}
);
width = 306;
}
);
script = "";
subCategory = Other;
unicode = 59;
}
{
category = Symbol;
glyphname = less;
layers = (
{
layerId = "84606D06-D269-45BD-896C-8402F9D7AD38";
shapes = (
{
closed = 1;
nodes = (
(539,231,l),
(236,354,l),
(539,492,l),
(539,637,l),
(45,390,l),
(45,306,l),
(539,87,l)
);
}
);
width = 586;
},
{
layerId = "1C9FFC3E-B033-49C1-8526-F3CD51FE3A6C";
shapes = (
{
closed = 1;
nodes = (
(476,256,l),
(230,361,l),
(476,464,l),
(476,609,l),
(39,403,l),
(39,319,l),
(476,112,l)
);
}
);
width = 500;
},
{
layerId = "9733853B-DD8E-49B4-939D-1F0D465E8B6E";
shapes = (
{
closed = 1;
nodes = (
(541,194,l),
(164,352,l),
(541,530,l),
(541,608,l),
(70,373,l),
(70,323,l),
(541,116,l)
);
}
);
width = 572;
},
{
layerId = "A849C433-1DA2-4174-AEA9-F403839AA1E5";
shapes = (
{
closed = 1;
nodes = (
(410,210,l),
(131,355,l),
(410,500,l),
(410,578,l),
(39,380,l),
(39,332,l),
(410,132,l)
);
}
);
width = 430;
},
{
layerId = "4ABFEEF6-B0FE-443E-B48D-B4A70A3A2C9A";
shapes = (
{
closed = 1;
nodes = (
(534,164,l),
(111,362,l),
(534,560,l),
(534,586,l),
(76,371,l),
(76,353,l),
(534,138,l)
);
}
);
width = 570;
},
{
layerId = "891911EE-97A3-4583-AC34-B57874F49FBA";
shapes = (
{
closed = 1;
nodes = (
(369,176,l),
(58,366,l),
(369,530,l),
(369,558,l),
(29,377,l),
(29,355,l),
(369,148,l)
);
}
);
width = 399;
}
);
script = "";
subCategory = Math;
unicode = 60;
}
{
category = Symbol;
color = 10;
glyphname = equal;
layers = (
{
layerId = "84606D06-D269-45BD-896C-8402F9D7AD38";
shapes = (
{
closed = 1;
nodes = (
(541,398,l),
(541,529,l),
(45,529,l),
(45,398,l)
);
},
{
closed = 1;
nodes = (
(541,175,l),
(541,307,l),
(45,307,l),
(45,175,l)
);
}
);
width = 586;
},
{
layerId = "1C9FFC3E-B033-49C1-8526-F3CD51FE3A6C";
shapes = (
{
closed = 1;
nodes = (
(476,398,l),
(476,529,l),
(44,529,l),
(44,398,l)
);
},
{
closed = 1;
nodes = (
(476,175,l),
(476,307,l),
(44,307,l),
(44,175,l)
);
}
);
width = 500;
},
{
layerId = "9733853B-DD8E-49B4-939D-1F0D465E8B6E";
shapes = (
{
closed = 1;
nodes = (
(534,416,l),
(534,487,l),
(76,487,l),
(76,416,l)
);
},
{
closed = 1;
nodes = (
(534,217,l),
(534,288,l),
(76,288,l),
(76,217,l)
);
}
);
width = 572;
},
{
associatedMasterId = "9733853B-DD8E-49B4-939D-1F0D465E8B6E";
attr = {
coordinates = (
151,
100
);
};
background = {
shapes = (
{
closed = 1;
nodes = (
(538.27,405.02,l),
(538.27,512.62,l),
(57.09,512.62,l),
(57.09,405.02,l)
);
},
{
closed = 1;
nodes = (
(538.27,191.38,l),
(538.27,299.59,l),
(57.09,299.59,l),
(57.09,191.38,l)
);
}
);
};
layerId = "fcbc352f-3235-4e2d-92c6-4067541a9377";
name = "SemiBold Italic (intermediate)";
shapes = (
{
closed = 1;
nodes = (
(538,394,l),
(538,500,l),
(53,500,l),
(53,394,l)
);
},
{
closed = 1;
nodes = (
(538,204,l),
(538,311,l),
(53,311,l),
(53,204,l)
);
}
);
width = 572;
},
{
layerId = "A849C433-1DA2-4174-AEA9-F403839AA1E5";
shapes = (
{
closed = 1;
nodes = (
(408,425,l),
(408,493,l),
(40,493,l),
(40,425,l)
);
},
{
closed = 1;
nodes = (
(408,211,l),
(408,279,l),
(40,279,l),
(40,211,l)
);
}
);
width = 430;
},
{
layerId = "4ABFEEF6-B0FE-443E-B48D-B4A70A3A2C9A";
shapes = (
{
closed = 1;
nodes = (
(535,443,l),
(535,467,l),
(75,467,l),
(75,443,l)
);
},
{
closed = 1;
nodes = (
(535,239,l),
(535,263,l),
(75,263,l),
(75,239,l)
);
}
);
width = 570;
},
{
layerId = "891911EE-97A3-4583-AC34-B57874F49FBA";
shapes = (
{
closed = 1;
nodes = (
(369,447,l),
(369,473,l),
(29,473,l),
(29,447,l)
);
},
{
closed = 1;
nodes = (
(369,232,l),
(369,258,l),
(29,258,l),
(29,232,l)
);
}
);
width = 399;
}
);
script = "";
subCategory = Math;
unicode = 61;
}
{
category = Symbol;
color = 10;
glyphname = greater;
layers = (
{
layerId = "84606D06-D269-45BD-896C-8402F9D7AD38";
shapes = (
{
closed = 1;
nodes = (
(45,87,l),
(539,306,l),
(539,390,l),
(45,637,l),
(45,492,l),
(348,354,l),
(45,231,l)
);
}
);
width = 586;
},
{
layerId = "1C9FFC3E-B033-49C1-8526-F3CD51FE3A6C";
shapes = (
{
closed = 1;
nodes = (
(44,112,l),
(481,319,l),
(481,403,l),
(44,609,l),
(44,464,l),
(290,361,l),
(44,256,l)
);
}
);
width = 500;
},
{
layerId = "9733853B-DD8E-49B4-939D-1F0D465E8B6E";
shapes = (
{
closed = 1;
nodes = (
(70,116,l),
(541,323,l),
(541,373,l),
(70,608,l),
(70,530,l),
(447,351,l),
(70,194,l)
);
}
);
width = 572;
},
{
associatedMasterId = "9733853B-DD8E-49B4-939D-1F0D465E8B6E";
attr = {
coordinates = (
151,
100
);
};
background = {
shapes = (
{
closed = 1;
nodes = (
(54.75,98.31,l),
(539.78,312.63,l),
(539.78,383.37,l),
(54.75,625.69,l),
(54.75,506.82,l),
(386.61,352.83,l),
(54.75,216.57,l)
);
}
);
};
layerId = "5b5cb625-dd42-4a99-bbc3-26852eff95df";
name = "SemiBold Italic (intermediate)";
shapes = (
{
closed = 1;
nodes = (
(53,99,l),
(538,313,l),
(538,383,l),
(53,625,l),
(53,508,l),
(387,353,l),
(53,216,l)
);
}
);
width = 572;
},
{
layerId = "A849C433-1DA2-4174-AEA9-F403839AA1E5";
shapes = (
{
closed = 1;
nodes = (
(40,132,l),
(411,332,l),
(411,380,l),
(40,578,l),
(40,500,l),
(319,355,l),
(40,210,l)
);
}
);
width = 430;
},
{
layerId = "4ABFEEF6-B0FE-443E-B48D-B4A70A3A2C9A";
shapes = (
{
closed = 1;
nodes = (
(76,138,l),
(534,353,l),
(534,371,l),
(76,586,l),
(76,560,l),
(499,362,l),
(76,164,l)
);
}
);
width = 570;
},
{
layerId = "891911EE-97A3-4583-AC34-B57874F49FBA";
shapes = (
{
closed = 1;
nodes = (
(29,148,l),
(369,355,l),
(369,377,l),
(29,558,l),
(29,530,l),
(342,365,l),
(29,176,l)
);
}
);
width = 399;
}
);
script = "";
subCategory = Math;
unicode = 62;
}
{
category = Punctuation;
glyphname = question;
layers = (
{
layerId = "891911EE-97A3-4583-AC34-B57874F49FBA";
shapes = (
{
closed = 1;
nodes = (
(67,166,l),
(85,266,o),
(103,306,o),
(171,389,cs),
(237,470,o),
(282,532,o),
(282,618,cs),
(282,684,o),
(244,724,o),
(181,724,cs),
(144,724,o),
(111,712,o),
(87,694,c),
(99,673,l),
(119,687,o),
(143,699,o),
(178,699,cs),
(225,699,o),
(255,669,o),
(255,617,cs),
(255,532,o),
(216,484,o),
(149,400,cs),
(82,317,o),
(62,269,o),
(43,166,c)
);
},
{
closed = 1;
nodes = (
(51,-1,o),
(60,26,o),
(60,43,cs),
(60,60,o),
(53,68,o),
(42,68,cs),
(22,68,o),
(13,42,o),
(13,23,cs),
(13,8,o),
(20,-1,o),
(31,-1,cs)
);
}
);
width = 241;
},
{
layerId = "4ABFEEF6-B0FE-443E-B48D-B4A70A3A2C9A";
shapes = (
{
closed = 1;
nodes = (
(145,174,l),
(163,275,o),
(208,311,o),
(270,357,cs),
(355,417,o),
(421,465,o),
(421,570,cs),
(421,658,o),
(360,724,o),
(263,724,cs),
(221,724,o),
(179,716,o),
(121,690,c),
(131,667,l),
(181,689,o),
(224,699,o),
(263,699,cs),
(342,699,o),
(395,648,o),
(395,569,cs),
(395,470,o),
(325,428,o),
(258,377,cs),
(186,320,o),
(140,289,o),
(121,174,c)
);
},
{
closed = 1;
nodes = (
(123,-8,o),
(133,14,o),
(133,32,cs),
(133,43,o),
(127,54,o),
(111,54,cs),
(91,54,o),
(81,32,o),
(81,14,cs),
(81,0,o),
(90,-8,o),
(104,-8,cs)
);
}
);
width = 403;
},
{
layerId = "FAB9F01D-70CE-4F71-A270-EC67BDAC6531";
shapes = (
{
closed = 1;
nodes = (
(253,237,l),
(267,294,o),
(285,318,o),
(344,357,cs),
(428,413,o),
(491,462,o),
(491,562,cs),
(491,663,o),
(421,724,o),
(304,724,cs),
(220,724,o),
(147,696,o),
(87,663,c),
(132,555,l),
(190,583,o),
(235,604,o),
(282,604,cs),
(328,604,o),
(347,582,o),
(347,546,cs),
(347,504,o),
(319,481,o),
(254,437,cs),
(174,383,o),
(144,329,o),
(127,237,c)
);
},
{
closed = 1;
nodes = (
(212,-13,o),
(250,27,o),
(250,82,cs),
(250,127,o),
(221,153,o),
(177,153,cs),
(104,153,o),
(77,104,o),
(77,56,cs),
(77,21,o),
(97,-13,o),
(153,-13,cs)
);
}
);
width = 459;
},
{
layerId = "E7382CC2-7CD9-4594-B524-5D480E09B385";
shapes = (
{
closed = 1;
nodes = (
(178,226,l),
(193,298,o),
(201,315,o),
(259,373,cs),
(323,435,o),
(379,502,o),
(379,596,cs),
(379,676,o),
(331,724,o),
(241,724,cs),
(189,724,o),
(135,705,o),
(83,665,c),
(101,571,l),
(134,594,o),
(171,615,o),
(210,615,cs),
(242,615,o),
(259,599,o),
(259,565,cs),
(259,498,o),
(216,469,o),
(164,412,cs),
(114,359,o),
(97,324,o),
(77,226,c)
);
},
{
closed = 1;
nodes = (
(130,-10,o),
(170,31,o),
(170,90,cs),
(170,125,o),
(149,146,o),
(114,146,cs),
(55,146,o),
(23,98,o),
(23,46,cs),
(23,9,o),
(45,-10,o),
(84,-10,cs)
);
}
);
width = 334;
},
{
layerId = "9733853B-DD8E-49B4-939D-1F0D465E8B6E";
shapes = (
{
closed = 1;
nodes = (
(198,201,l),
(214,270,o),
(233,291,o),
(311,348,cs),
(404,417,o),
(454,477,o),
(454,567,cs),
(454,672,o),
(386,724,o),
(281,724,cs),
(218,724,o),
(149,703,o),
(95,674,c),
(127,607,l),
(171,628,o),
(220,648,o),
(271,648,cs),
(332,648,o),
(365,614,o),
(365,556,cs),
(365,480,o),
(308,440,o),
(244,391,cs),
(171,334,o),
(141,287,o),
(127,201,c)
);
},
{
closed = 1;
nodes = (
(179,-14,o),
(203,27,o),
(203,68,cs),
(203,103,o),
(183,121,o),
(154,121,cs),
(101,121,o),
(77,82,o),
(77,38,cs),
(77,5,o),
(96,-14,o),
(129,-14,cs)
);
}
);
width = 430;
},
{
layerId = "A849C433-1DA2-4174-AEA9-F403839AA1E5";
shapes = (
{
closed = 1;
nodes = (
(125,199,l),
(140,284,o),
(162,319,o),
(221,386,cs),
(282,455,o),
(331,518,o),
(331,606,cs),
(331,680,o),
(288,724,o),
(211,724,cs),
(168,724,o),
(125,709,o),
(84,678,c),
(102,617,l),
(130,636,o),
(159,653,o),
(195,653,cs),
(230,653,o),
(252,633,o),
(252,590,cs),
(252,512,o),
(211,473,o),
(152,402,cs),
(101,341,o),
(81,296,o),
(61,199,c)
);
},
{
closed = 1;
nodes = (
(92,-8,o),
(119,26,o),
(119,71,cs),
(119,98,o),
(104,115,o),
(80,115,cs),
(37,115,o),
(14,77,o),
(14,35,cs),
(14,7,o),
(31,-8,o),
(57,-8,cs)
);
}
);
width = 289;
},
{
layerId = "1C9FFC3E-B033-49C1-8526-F3CD51FE3A6C";
shapes = (
{
closed = 1;
nodes = (
(230,252,l),
(243,312,o),
(254,325,o),
(297,362,cs),
(361,417,o),
(423,488,o),
(423,586,cs),
(423,672,o),
(370,724,o),
(269,724,cs),
(209,724,o),
(145,701,o),
(82,653,c),
(101,528,l),
(139,554,o),
(182,580,o),
(224,580,cs),
(248,580,o),
(264,564,o),
(264,541,cs),
(264,505,o),
(250,491,o),
(174,421,cs),
(126,377,o),
(105,341,o),
(91,252,c)
);
},
{
closed = 1;
nodes = (
(165,-12,o),
(216,35,o),
(216,108,cs),
(216,150,o),
(189,175,o),
(145,175,cs),
(70,175,o),
(30,118,o),
(30,56,cs),
(30,11,o),
(57,-12,o),
(109,-12,cs)
);
}
);
width = 376;
},
{
layerId = "84606D06-D269-45BD-896C-8402F9D7AD38";
shapes = (
{
closed = 1;
nodes = (
(282,252,l),
(299,303,o),
(307,317,o),
(383,363,cs),
(452,405,o),
(518,449,o),
(518,559,cs),
(518,661,o),
(436,724,o),
(304,724,cs),
(220,724,o),
(141,695,o),
(79,658,c),
(137,520,l),
(199,556,o),
(254,573,o),
(290,573,cs),
(324,573,o),
(334,559,o),
(334,539,cs),
(334,516,o),
(320,498,o),
(255,455,cs),
(170,397,o),
(142,361,o),
(122,252,c)
);
},
{
closed = 1;
nodes = (
(231,-12,o),
(279,25,o),
(279,100,cs),
(279,148,o),
(247,176,o),
(191,176,cs),
(111,176,o),
(72,126,o),
(72,62,cs),
(72,24,o),
(94,-12,o),
(163,-12,cs)
);
}
);
width = 488;
}
);
script = "";
subCategory = Other;
unicode = 63;
}
{
category = Symbol;
color = 10;
glyphname = at;
layers = (
{
layerId = "891911EE-97A3-4583-AC34-B57874F49FBA";
shapes = (
{
closed = 1;
nodes = (
(212,-90,o),
(240,-80,o),
(259,-70,c),
(259,-44,l),
(244,-54,o),
(211,-65,o),
(176,-65,cs),
(86,-65,o),
(52,14,o),
(52,133,cs),
(52,379,o),
(154,693,o),
(341,693,cs),
(423,693,o),
(465,640,o),
(465,504,cs),
(465,362,o),
(407,140,o),
(338,140,cs),
(315,140,o),
(308,156,o),
(308,191,cs),
(308,210,o),
(313,246,o),
(327,301,cs),
(378,502,l),
(361,509,o),
(337,513,o),
(318,513,cs),
(209,513,o),
(148,315,o),
(148,208,cs),
(148,141,o),
(171,113,o),
(204,113,cs),
(243,113,o),
(270,151,o),
(285,202,c),
(286,205,l),
(285,149,o),
(295,115,o),
(335,115,cs),
(432,115,o),
(492,361,o),
(492,506,cs),
(492,651,o),
(442,718,o),
(343,718,cs),
(135,718,o),
(25,389,o),
(25,132,cs),
(25,-8,o),
(70,-90,o),
(174,-90,cs)
);
},
{
closed = 1;
nodes = (
(187,138,o),
(175,159,o),
(175,210,cs),
(175,305,o),
(228,488,o),
(315,488,cs),
(328,488,o),
(339,487,o),
(347,484,c),
(306,326,ls),
(274,201,o),
(239,138,o),
(210,138,cs)
);
}
);
width = 509;
},
{
layerId = "4ABFEEF6-B0FE-443E-B48D-B4A70A3A2C9A";
shapes = (
{
closed = 1;
nodes = (
(448,-90,o),
(512,-78,o),
(572,-56,c),
(572,-31,l),
(506,-56,o),
(439,-65,o),
(375,-65,cs),
(222,-65,o),
(83,32,o),
(83,243,cs),
(83,473,o),
(238,681,o),
(517,681,cs),
(685,681,o),
(780,574,o),
(780,413,cs),
(780,255,o),
(695,132,o),
(605,132,cs),
(559,132,o),
(545,166,o),
(545,210,cs),
(545,238,o),
(556,279,o),
(573,341,cs),
(611,483,l),
(579,496,o),
(536,506,o),
(491,506,cs),
(358,506,o),
(245,388,o),
(245,231,cs),
(245,151,o),
(293,107,o),
(359,107,cs),
(428,107,o),
(483,144,o),
(519,209,c),
(521,209,l),
(521,140,o),
(547,107,o),
(604,107,cs),
(719,107,o),
(807,246,o),
(807,413,cs),
(807,592,o),
(696,706,o),
(519,706,cs),
(213,706,o),
(55,473,o),
(55,242,cs),
(55,17,o),
(208,-90,o),
(375,-90,cs)
);
},
{
closed = 1;
nodes = (
(308,132,o),
(272,167,o),
(272,232,cs),
(272,381,o),
(374,481,o),
(488,481,cs),
(526,481,o),
(555,474,o),
(581,465,c),
(542,320,ls),
(509,199,o),
(446,132,o),
(361,132,cs)
);
}
);
width = 834;
},
{
associatedMasterId = "9733853B-DD8E-49B4-939D-1F0D465E8B6E";
attr = {
coordinates = (
151,
100
);
};
background = {
shapes = (
{
closed = 1;
nodes = (
(453.76,-92.49,o),
(537,-72.49,o),
(594.82,-46.81,c),
(594.82,41.02,l),
(527.41,14.68,o),
(444.19,-1.27,o),
(378.27,-1.27,cs),
(244.68,-1.27,o),
(148.34,86.75,o),
(148.34,250.09,cs),
(148.34,470.19,o),
(288.04,628.83,o),
(488.37,628.83,cs),
(662.22,628.83,o),
(734.44,536.86,o),
(734.44,406.2,cs),
(734.44,277.53,o),
(677.58,189,o),
(611.93,189,cs),
(593.76,189,o),
(581.47,201,o),
(581.47,225.24,cs),
(581.47,246.68,o),
(585.69,268.17,o),
(595.3,303.88,cs),
(642.47,494.22,l),
(597.81,510.61,o),
(548.59,524.95,o),
(493.55,524.95,cs),
(332.35,524.95,o),
(235.75,386.18,o),
(235.75,246.19,cs),
(235.75,157.73,o),
(285.31,103.34,o),
(358.23,103.34,cs),
(421.23,103.34,o),
(462.35,132.07,o),
(491.47,177.68,c),
(495.86,177.68,l),
(507.91,131.41,o),
(539.57,102.56,o),
(600,102.56,cs),
(735.83,102.56,o),
(836.71,238.69,o),
(836.71,410.32,cs),
(836.71,594.96,o),
(719,719.88,o),
(499.93,719.88,cs),
(242.29,719.88,o),
(45.29,525.81,o),
(45.29,241.65,cs),
(45.29,32.9,o),
(177.65,-92.49,o),
(375.15,-92.49,cs)
);
},
{
closed = 1;
nodes = (
(359.53,190,o),
(342.8,208.34,o),
(342.8,255.19,cs),
(342.8,338.74,o),
(394.89,438.51,o),
(483.55,438.51,cs),
(499.79,438.51,o),
(513.69,434.95,o),
(523.03,431.17,c),
(495.08,324.71,ls),
(470.2,231.97,o),
(439.35,190,o),
(390.99,190,cs)
);
}
);
};
layerId = "aa9756d4-77bc-4496-876a-994e3df5f4ab";
name = "SemiBold Italic (intermediate)";
shapes = (
{
closed = 1;
nodes = (
(480,-91,o),
(555,-72,o),
(618,-47,c),
(618,44,l),
(548,17,o),
(485,2,o),
(403,2,cs),
(225,2,o),
(154,118,o),
(154,255,cs),
(154,479,o),
(304,622,o),
(502,622,cs),
(663,622,o),
(738,540,o),
(738,408,cs),
(738,305,o),
(686,189,o),
(615,189,cs),
(599,189,o),
(587,198,o),
(587,222,cs),
(587,243,o),
(593,262,o),
(600,291,cs),
(652,496,l),
(612,511,o),
(564,523,o),
(492,523,cs),
(334,523,o),
(237,386,o),
(237,251,cs),
(237,144,o),
(294,100,o),
(368,100,cs),
(430,100,o),
(465,128,o),
(493,172,c),
(498,172,l),
(510,122,o),
(552,100,o),
(604,100,cs),
(757,100,o),
(846,252,o),
(846,410,cs),
(846,602,o),
(721,714,o),
(514,714,cs),
(266,714,o),
(45,547,o),
(45,244,cs),
(45,56,o),
(163,-91,o),
(391,-91,cs)
);
},
{
closed = 1;
nodes = (
(370,189,o),
(348,206,o),
(348,257,cs),
(348,327,o),
(392,434,o),
(486,434,cs),
(503,434,o),
(514,432,o),
(526,429,c),
(498,321,ls),
(477,242,o),
(446,189,o),
(394,189,cs)
);
}
);
width = 856;
},
{
associatedMasterId = "A849C433-1DA2-4174-AEA9-F403839AA1E5";
attr = {
coordinates = (
151,
70
);
};
background = {
shapes = (
{
closed = 1;
nodes = (
(322.95,-78.51,o),
(388.25,-62.85,o),
(442.89,-36.75,c),
(442.89,41.87,l),
(381.71,13.33,o),
(325.56,0.72,o),
(268.36,0.72,cs),
(158.21,0.72,o),
(111.06,72.62,o),
(111.06,177.57,cs),
(111.06,400.42,o),
(232.21,642.82,o),
(424.82,642.82,cs),
(515.92,642.82,o),
(568.85,584.65,o),
(568.85,468.53,cs),
(568.85,386.83,o),
(534.66,192.4,o),
(465,192.4,cs),
(453.71,192.4,o),
(448.15,200.74,o),
(448.15,220.81,cs),
(448.15,228.93,o),
(450.32,243,o),
(454.27,258.58,cs),
(515.32,510.27,l),
(484.61,526.54,o),
(444.24,536.59,o),
(392.38,536.59,cs),
(250.52,536.59,o),
(182.03,342.3,o),
(182.03,229.25,cs),
(182.03,152.71,o),
(213.13,113.61,o),
(279.43,113.61,cs),
(311.38,113.61,o),
(345.6,138.9,o),
(372.7,181.41,c),
(374.92,181.41,l),
(383.19,139.51,o),
(401.46,114.39,o),
(459,114.39,cs),
(578.81,114.39,o),
(656.13,323.09,o),
(656.13,476.97,cs),
(656.13,626.17,o),
(566.95,721.83,o),
(432.65,721.83,cs),
(186.35,721.83,o),
(22.78,449.06,o),
(22.78,169.13,cs),
(22.78,17.1,o),
(108.91,-78.51,o),
(269.41,-78.51,cs)
);
},
{
closed = 1;
nodes = (
(285.97,192.4,o),
(276.58,206.96,o),
(276.58,239.08,cs),
(276.58,316.42,o),
(317.53,457.97,o),
(382.38,457.97,cs),
(394.38,457.97,o),
(401.55,456.97,o),
(409.55,453.97,c),
(375.6,319.34,ls),
(353.7,235.08,o),
(329.92,192.4,o),
(302.14,192.4,cs)
);
}
);
};
layerId = "dcf0f08c-6161-43fb-bd5a-a1ffe1faede1";
name = "SemiBold Condensed Italic (intermediate)";
shapes = (
{
closed = 1;
nodes = (
(314,-80,o),
(377,-64,o),
(429,-39,c),
(429,35,l),
(371,8,o),
(317,-4,o),
(261,-4,cs),
(153,-4,o),
(107,68,o),
(107,174,cs),
(107,398,o),
(227,646,o),
(419,646,cs),
(509,646,o),
(561,588,o),
(561,471,cs),
(561,386,o),
(525,188,o),
(455,188,cs),
(444,188,o),
(438,198,o),
(438,219,cs),
(438,228,o),
(440,243,o),
(445,261,cs),
(505,510,l),
(475,525,o),
(436,535,o),
(387,535,cs),
(248,535,o),
(180,340,o),
(180,227,cs),
(180,152,o),
(210,114,o),
(274,114,cs),
(306,114,o),
(340,140,o),
(366,183,c),
(368,183,l),
(376,140,o),
(393,114,o),
(450,114,cs),
(568,114,o),
(644,326,o),
(644,479,cs),
(644,627,o),
(558,722,o),
(426,722,cs),
(183,722,o),
(23,445,o),
(23,166,cs),
(23,16,o),
(106,-80,o),
(262,-80,cs)
);
},
{
closed = 1;
nodes = (
(278,189,o),
(269,203,o),
(269,237,cs),
(269,315,o),
(311,460,o),
(377,460,cs),
(389,460,o),
(397,459,o),
(405,456,c),
(370,320,ls),
(347,233,o),
(323,189,o),
(295,189,cs)
);
}
);
width = 648;
},
{
layerId = "9733853B-DD8E-49B4-939D-1F0D465E8B6E";
shapes = (
{
closed = 1;
nodes = (
(456,-91,o),
(533,-75,o),
(602,-47,c),
(602,18,l),
(543,-5,o),
(468,-24,o),
(396,-24,cs),
(220,-24,o),
(128,81,o),
(128,250,cs),
(128,472,o),
(278,647,o),
(507,647,cs),
(685,647,o),
(749,539,o),
(749,408,cs),
(749,293,o),
(697,169,o),
(614,169,cs),
(587,169,o),
(566,183,o),
(566,224,cs),
(566,247,o),
(571,270,o),
(582,310,cs),
(629,489,l),
(594,503,o),
(555,518,o),
(491,518,cs),
(355,518,o),
(239,408,o),
(239,246,cs),
(239,156,o),
(286,106,o),
(360,106,cs),
(426,106,o),
(471,145,o),
(500,195,c),
(504,195,l),
(509,148,o),
(534,106,o),
(609,106,cs),
(732,106,o),
(822,237,o),
(822,415,cs),
(822,574,o),
(731,713,o),
(520,713,cs),
(231,713,o),
(53,489,o),
(53,246,cs),
(53,34,o),
(183,-91,o),
(385,-91,cs)
);
},
{
closed = 1;
nodes = (
(337,169,o),
(315,194,o),
(315,253,cs),
(315,367,o),
(388,456,o),
(481,456,cs),
(507,456,o),
(528,450,o),
(541,445,c),
(508,321,ls),
(483,231,o),
(442,169,o),
(378,169,cs)
);
}
);
width = 848;
},
{
layerId = "A849C433-1DA2-4174-AEA9-F403839AA1E5";
shapes = (
{
closed = 1;
nodes = (
(265,-84,o),
(312,-72,o),
(352,-52,c),
(352,1,l),
(314,-19,o),
(267,-31,o),
(222,-31,cs),
(121,-31,o),
(83,47,o),
(83,155,cs),
(83,387,o),
(195,666,o),
(387,666,cs),
(472,666,o),
(517,606,o),
(517,485,cs),
(517,385,o),
(470,168,o),
(404,168,cs),
(386,168,o),
(378,180,o),
(378,208,cs),
(378,221,o),
(382,243,o),
(389,272,cs),
(447,506,l),
(423,518,o),
(393,525,o),
(357,525,cs),
(231,525,o),
(168,324,o),
(168,214,cs),
(168,146,o),
(193,113,o),
(241,113,cs),
(276,113,o),
(309,145,o),
(330,193,c),
(331,193,l),
(335,145,o),
(349,115,o),
(398,115,cs),
(505,115,o),
(575,342,o),
(575,491,cs),
(575,628,o),
(509,720,o),
(393,720,cs),
(165,720,o),
(24,421,o),
(24,149,cs),
(24,11,o),
(90,-84,o),
(220,-84,cs)
);
},
{
closed = 1;
nodes = (
(239,168,o),
(229,185,o),
(229,222,cs),
(229,303,o),
(273,472,o),
(347,472,cs),
(359,472,o),
(368,471,o),
(376,468,c),
(339,323,ls),
(311,218,o),
(286,168,o),
(257,168,cs)
);
}
);
width = 586;
},
{
layerId = "1C9FFC3E-B033-49C1-8526-F3CD51FE3A6C";
shapes = (
{
closed = 1;
nodes = (
(360,-75,o),
(437,-57,o),
(501,-27,c),
(501,68,l),
(425,34,o),
(363,21,o),
(298,21,cs),
(182,21,o),
(129,89,o),
(129,192,cs),
(129,409,o),
(256,628,o),
(449,628,cs),
(544,628,o),
(602,571,o),
(602,458,cs),
(602,388,o),
(576,208,o),
(504,208,cs),
(497,208,o),
(493,214,o),
(493,229,cs),
(493,234,o),
(494,243,o),
(496,250,c),
(559,513,l),
(524,532,o),
(477,544,o),
(415,544,cs),
(263,544,o),
(191,354,o),
(191,239,cs),
(191,157,o),
(226,114,o),
(304,114,cs),
(334,114,o),
(369,135,o),
(400,174,c),
(403,174,l),
(414,136,o),
(435,114,o),
(498,114,cs),
(626,114,o),
(708,311,o),
(708,468,cs),
(708,625,o),
(604,723,o),
(458,723,cs),
(200,723,o),
(22,467,o),
(22,182,cs),
(22,21,o),
(121,-75,o),
(301,-75,cs)
);
},
{
closed = 1;
nodes = (
(316,208,o),
(307,221,o),
(307,250,cs),
(307,325,o),
(346,449,o),
(405,449,cs),
(417,449,o),
(423,448,o),
(431,445,c),
(399,317,ls),
(381,246,o),
(358,208,o),
(331,208,cs)
);
}
);
width = 706;
},
{
layerId = "84606D06-D269-45BD-896C-8402F9D7AD38";
shapes = (
{
closed = 1;
nodes = (
(467,-91,o),
(558,-69,o),
(613,-43,c),
(613,67,l),
(535,36,o),
(443,21,o),
(379,21,cs),
(269,21,o),
(168,98,o),
(168,256,cs),
(168,473,o),
(303,612,o),
(486,612,cs),
(659,612,o),
(738,530,o),
(738,401,cs),
(738,269,o),
(681,209,o),
(627,209,cs),
(614,209,o),
(608,217,o),
(608,229,cs),
(608,248,o),
(612,267,o),
(619,296,cs),
(668,498,l),
(616,518,o),
(558,532,o),
(504,532,cs),
(322,532,o),
(237,376,o),
(237,250,cs),
(237,160,o),
(290,101,o),
(366,101,cs),
(427,101,o),
(466,122,o),
(497,164,c),
(502,164,l),
(519,120,o),
(557,101,o),
(609,101,cs),
(756,101,o),
(866,235,o),
(866,404,cs),
(866,607,o),
(726,724,o),
(498,724,cs),
(255,724,o),
(40,556,o),
(40,244,cs),
(40,34,o),
(179,-91,o),
(381,-91,cs)
);
},
{
closed = 1;
nodes = (
(387,209,o),
(373,224,o),
(373,260,cs),
(373,323,o),
(410,424,o),
(494,424,cs),
(504,424,o),
(512,422,o),
(519,419,c),
(496,326,ls),
(473,236,o),
(449,209,o),
(411,209,cs)
);
}
);
width = 897;
}
);
script = "";
subCategory = Other;
unicode = 64;
}
{
category = Letter;
glyphname = A;
kernLeft = A.right;
kernRight = A.left;
layers = (
{
anchors = (
{
name = bottom;
pos = (107,0);
},
{
name = center;
pos = (95,358);
},
{
name = top;
pos = (241,714);
},
{
name = topright;
pos = (402,714);
}
);
layerId = "891911EE-97A3-4583-AC34-B57874F49FBA";
shapes = (
{
closed = 1;
nodes = (
(-40,0,l),
(77,284,l),
(232,284,l),
(231,0,l),
(257,0,l),
(259,717,l),
(226,717,l),
(-68,0,l)
);
},
{
closed = 1;
nodes = (
(205,605,ls),
(218,637,o),
(227,660,o),
(233,678,c),
(235,678,l),
(234,660,o),
(234,634,o),
(234,606,cs),
(231,309,l),
(86,309,l)
);
}
);
width = 326;
},
{
anchors = (
{
name = bottom;
pos = (218,0);
},
{
name = center;
pos = (224,358);
},
{
name = top;
pos = (379,714);
},
{
name = topright;
pos = (623,714);
}
);
layerId = "4ABFEEF6-B0FE-443E-B48D-B4A70A3A2C9A";
shapes = (
{
closed = 1;
nodes = (
(-20,0,l),
(138,271,l),
(432,271,l),
(473,0,l),
(498,0,l),
(392,716,l),
(368,716,l),
(-50,0,l)
);
},
{
closed = 1;
nodes = (
(324,594,ls),
(340,622,o),
(357,652,o),
(372,682,c),
(374,682,l),
(377,651,o),
(381,619,o),
(385,594,cs),
(428,296,l),
(152,296,l)
);
}
);
width = 547;
},
{
anchors = (
{
name = bottom;
pos = (224,0);
},
{
name = center;
pos = (228,357);
},
{
name = top;
pos = (376,714);
},
{
name = topright;
pos = (637,714);
}
);
layerId = "9733853B-DD8E-49B4-939D-1F0D465E8B6E";
shapes = (
{
closed = 1;
nodes = (
(41,0,l),
(157,222,l),
(398,222,l),
(425,0,l),
(513,0,l),
(425,714,l),
(331,714,l),
(-57,0,l)
);
},
{
closed = 1;
nodes = (
(277,448,ls),
(308,507,o),
(336,566,o),
(358,617,c),
(361,617,l),
(362,570,o),
(368,503,o),
(373,452,cs),
(389,302,l),
(200,302,l)
);
}
);
width = 562;
},
{
anchors = (
{
name = bottom;
pos = (146,0);
},
{
name = center;
pos = (137,358);
},
{
name = top;
pos = (284,715);
},
{
name = topright;
pos = (480,714);
}
);
layerId = "A849C433-1DA2-4174-AEA9-F403839AA1E5";
shapes = (
{
closed = 1;
nodes = (
(22,0,l),
(115,227,l),
(257,227,l),
(256,0,l),
(339,0,l),
(336,717,l),
(234,717,l),
(-65,0,l)
);
},
{
closed = 1;
nodes = (
(238,551,ls),
(251,585,o),
(259,613,o),
(265,636,c),
(268,636,l),
(265,612,o),
(264,583,o),
(264,551,cs),
(260,300,l),
(142,300,l)
);
}
);
width = 404;
},
{
anchors = (
{
name = bottom;
pos = (210,0);
},
{
name = center;
pos = (208,358);
},
{
name = top;
pos = (355,717);
},
{
name = topright;
pos = (607,714);
}
);
layerId = "1C9FFC3E-B033-49C1-8526-F3CD51FE3A6C";
shapes = (
{
closed = 1;
nodes = (
(125,0,l),
(178,139,l),
(300,139,l),
(296,0,l),
(474,0,l),
(463,717,l),
(250,717,l),
(-58,0,l)
);
},
{
closed = 1;
nodes = (
(295,472,ls),
(306,505,o),
(314,533,o),
(320,568,c),
(323,568,l),
(319,531,o),
(318,501,o),
(317,469,cs),
(309,284,l),
(233,284,l)
);
}
);
width = 532;
},
{
anchors = (
{
name = bottom;
pos = (279,0);
},
{
name = center;
pos = (275,357);
},
{
name = top;
pos = (431,714);
},
{
name = topright;
pos = (749,714);
}
);
layerId = "84606D06-D269-45BD-896C-8402F9D7AD38";
shapes = (
{
closed = 1;
nodes = (
(139,0,l),
(200,134,l),
(419,134,l),
(424,0,l),
(610,0,l),
(550,714,l),
(304,714,l),
(-59,0,l)
);
},
{
closed = 1;
nodes = (
(367,495,ls),
(381,525,o),
(392,553,o),
(402,583,c),
(405,583,l),
(404,555,o),
(405,523,o),
(406,491,cs),
(413,286,l),
(270,286,l)
);
}
);
width = 676;
}
);
script = latin;
subCategory = Uppercase;
unicode = 65;
}
{
category = Letter;
glyphname = B;
layers = (
{
anchors = (
{
name = bottom;
pos = (131,0);
},
{
name = center;
pos = (191,357);
},
{
name = top;
pos = (283,714);
},
{
name = topright;
pos = (450,714);
}
);
layerId = "891911EE-97A3-4583-AC34-B57874F49FBA";
shapes = (
{
closed = 1;
nodes = (
(110,0,ls),
(255,0,o),
(321,109,o),
(321,242,cs),
(321,316,o),
(286,361,o),
(236,372,c),
(236,374,l),
(334,395,o),
(378,491,o),
(378,584,cs),
(378,662,o),
(338,714,o),
(247,714,cs),
(154,714,l),
(4,0,l)
);
},
{
closed = 1;
nodes = (
(35,25,l),
(107,363,l),
(171,363,ls),
(244,363,o),
(294,331,o),
(294,239,cs),
(294,135,o),
(248,25,o),
(111,25,cs)
);
},
{
closed = 1;
nodes = (
(112,388,l),
(175,689,l),
(242,689,ls),
(317,689,o),
(351,651,o),
(351,582,cs),
(351,491,o),
(305,388,o),
(180,388,cs)
);
}
);
width = 374;
},
{
anchors = (
{
name = bottom;
pos = (243,0);
},
{
name = center;
pos = (315,357);
},
{
name = top;
pos = (395,714);
},
{
name = topright;
pos = (674,714);
}
);
layerId = "4ABFEEF6-B0FE-443E-B48D-B4A70A3A2C9A";
shapes = (
{
closed = 1;
nodes = (
(240,0,ls),
(404,0,o),
(528,68,o),
(528,223,cs),
(528,303,o),
(488,356,o),
(409,374,c),
(410,376,l),
(516,394,o),
(580,464,o),
(580,571,cs),
(580,659,o),
(521,714,o),
(382,714,cs),
(201,714,l),
(50,0,l)
);
},
{
closed = 1;
nodes = (
(82,25,l),
(154,363,l),
(314,363,ls),
(428,363,o),
(501,324,o),
(501,223,cs),
(501,81,o),
(385,25,o),
(252,25,cs)
);
},
{
closed = 1;
nodes = (
(159,388,l),
(223,689,l),
(376,689,ls),
(495,689,o),
(553,649,o),
(553,571,cs),
(553,444,o),
(459,388,o),
(322,388,cs)
);
}
);
width = 598;
},
{
anchors = (
{
name = bottom;
pos = (278,0);
},
{
name = center;
pos = (315,357);
},
{
name = top;
pos = (396,714);
},
{
name = topright;
pos = (675,714);
}
);
layerId = "9733853B-DD8E-49B4-939D-1F0D465E8B6E";
shapes = (
{
closed = 1;
nodes = (
(269,0,ls),
(428,0,o),
(543,76,o),
(543,222,cs),
(543,302,o),
(493,349,o),
(428,367,c),
(428,372,l),
(525,390,o),
(589,453,o),
(589,550,cs),
(589,664,o),
(509,714,o),
(377,714,cs),
(192,714,l),
(41,0,l)
);
},
{
closed = 1;
nodes = (
(146,76,l),
(201,336,l),
(313,336,ls),
(412,336,o),
(449,286,o),
(449,222,cs),
(449,129,o),
(385,76,o),
(272,76,cs)
);
},
{
closed = 1;
nodes = (
(217,410,l),
(265,637,l),
(366,637,ls),
(459,637,o),
(496,602,o),
(496,539,cs),
(496,451,o),
(423,410,o),
(334,410,cs)
);
}
);
width = 600;
},
{
anchors = (
{
name = bottom;
pos = (163,0);
},
{
name = center;
pos = (218,357);
},
{
name = top;
pos = (311,714);
},
{
name = topright;
pos = (505,714);
}
);
layerId = "A849C433-1DA2-4174-AEA9-F403839AA1E5";
shapes = (
{
closed = 1;
nodes = (
(157,0,ls),
(302,0,o),
(380,108,o),
(380,241,cs),
(380,303,o),
(353,357,o),
(302,372,c),
(302,375,l),
(396,400,o),
(437,486,o),
(437,575,cs),
(437,668,o),
(370,714,o),
(283,714,cs),
(151,714,l),
(0,0,l)
);
},
{
closed = 1;
nodes = (
(95,71,l),
(152,339,l),
(212,339,ls),
(265,339,o),
(297,306,o),
(297,243,cs),
(297,149,o),
(254,71,o),
(157,71,cs)
);
},
{
closed = 1;
nodes = (
(166,407,l),
(216,644,l),
(267,644,ls),
(325,644,o),
(352,617,o),
(352,563,cs),
(352,480,o),
(305,407,o),
(223,407,cs)
);
}
);
width = 430;
},
{
anchors = (
{
name = bottom;
pos = (216,0);
},
{
name = center;
pos = (262,357);
},
{
name = top;
pos = (354,714);
},
{
name = topright;
pos = (592,714);
}
);
layerId = "1C9FFC3E-B033-49C1-8526-F3CD51FE3A6C";
shapes = (
{
closed = 1;
nodes = (
(223,0,ls),
(388,0,o),
(473,118,o),
(473,240,cs),
(473,304,o),
(445,351,o),
(402,370,c),
(402,374,l),
(489,404,o),
(530,477,o),
(530,560,cs),
(530,677,o),
(437,714,o),
(340,714,cs),
(146,714,l),
(-5,0,l)
);
},
{
closed = 1;
nodes = (
(192,141,l),
(226,303,l),
(257,303,ls),
(286,303,o),
(301,285,o),
(301,250,cs),
(301,193,o),
(275,141,o),
(222,141,cs)
);
},
{
closed = 1;
nodes = (
(254,436,l),
(284,576,l),
(308,576,ls),
(338,576,o),
(353,561,o),
(353,532,cs),
(353,485,o),
(325,436,o),
(281,436,cs)
);
}
);
width = 517;
},
{
anchors = (
{
name = bottom;
pos = (292,0);
},
{
name = center;
pos = (318,357);
},
{
name = top;
pos = (410,714);
},
{
name = topright;
pos = (707,714);
}
);
layerId = "84606D06-D269-45BD-896C-8402F9D7AD38";
shapes = (
{
closed = 1;
nodes = (
(283,0,ls),
(442,0,o),
(569,67,o),
(569,234,cs),
(569,302,o),
(532,351,o),
(475,370,c),
(475,374,l),
(568,402,o),
(620,461,o),
(620,558,cs),
(620,649,o),
(558,714,o),
(405,714,cs),
(167,714,l),
(16,0,l)
);
},
{
closed = 1;
nodes = (
(239,149,l),
(271,299,l),
(304,299,ls),
(358,299,o),
(377,277,o),
(377,232,cs),
(377,186,o),
(337,149,o),
(279,149,cs)
);
},
{
closed = 1;
nodes = (
(300,440,l),
(329,568,l),
(360,568,ls),
(402,568,o),
(422,550,o),
(422,518,cs),
(422,472,o),
(402,440,o),
(335,440,cs)
);
}
);
width = 634;
}
);
script = latin;
subCategory = Uppercase;
unicode = 66;
}
{
category = Letter;
glyphname = D;
kernRight = O.left;
layers = (
{
anchors = (
{
name = bottom;
pos = (150,0);
},
{
name = center;
pos = (226,357);
},
{
name = top;
pos = (302,714);
},
{
name = topright;
pos = (487,714);
}
);
layerId = "891911EE-97A3-4583-AC34-B57874F49FBA";
shapes = (
{
closed = 1;
nodes = (
(85,0,ls),
(316,0,o),
(392,319,o),
(392,509,cs),
(392,655,o),
(333,714,o),
(229,714,cs),
(154,714,l),
(3,0,l)
);
},
{
closed = 1;
nodes = (
(34,25,l),
(176,689,l),
(224,689,ls),
(316,689,o),
(364,645,o),
(364,509,cs),
(364,323,o),
(290,25,o),
(84,25,cs)
);
}
);
width = 411;
},
{
anchors = (
{
name = bottom;
pos = (283,0);
},
{
name = center;
pos = (359,357);
},
{
name = top;
pos = (435,714);
},
{
name = topright;
pos = (753,714);
}
);
layerId = "4ABFEEF6-B0FE-443E-B48D-B4A70A3A2C9A";
shapes = (
{
closed = 1;
nodes = (
(196,0,ls),
(497,0,o),
(637,206,o),
(637,425,cs),
(637,620,o),
(528,714,o),
(346,714,cs),
(201,714,l),
(50,0,l)
);
},
{
closed = 1;
nodes = (
(82,25,l),
(223,689,l),
(336,689,ls),
(511,689,o),
(610,606,o),
(610,425,cs),
(610,211,o),
(469,25,o),
(197,25,cs)
);
}
);
width = 677;
},
{
anchors = (
{
name = bottom;
pos = (283,0);
},
{
name = center;
pos = (379,357);
},
{
name = top;
pos = (429,714);
},
{
name = topright;
pos = (751,714);
}
);
layerId = "FAB9F01D-70CE-4F71-A270-EC67BDAC6531";
shapes = (
{
closed = 1;
nodes = (
(246,0,ls),
(502,0,o),
(646,173,o),
(646,444,cs),
(646,619,o),
(545,714,o),
(370,714,cs),
(177,714,l),
(26,0,l)
);
},
{
closed = 1;
nodes = (
(201,125,l),
(300,590,l),
(356,590,ls),
(441,590,o),
(493,541,o),
(493,436,cs),
(493,271,o),
(417,125,o),
(253,125,cs)
);
}
);
width = 677;
},
{
anchors = (
{
name = bottom;
pos = (197,0);
},
{
name = center;
pos = (284,357);
},
{
name = top;
pos = (348,714);
},
{
name = topright;
pos = (580,714);
}
);
layerId = "E7382CC2-7CD9-4594-B524-5D480E09B385";
shapes = (
{
closed = 1;
nodes = (
(150,0,ls),
(399,0,o),
(499,275,o),
(499,495,cs),
(499,635,o),
(426,714,o),
(290,714,cs),
(149,714,l),
(-2,0,l)
);
},
{
closed = 1;
nodes = (
(146,112,l),
(250,603,l),
(278,603,ls),
(337,603,o),
(367,566,o),
(367,483,cs),
(367,346,o),
(311,112,o),
(168,112,cs)
);
}
);
width = 505;
},
{
anchors = (
{
name = bottom;
pos = (277,0);
},
{
name = center;
pos = (372,357);
},
{
name = top;
pos = (429,714);
},
{
name = topright;
pos = (742,714);
}
);
layerId = "9733853B-DD8E-49B4-939D-1F0D465E8B6E";
shapes = (
{
closed = 1;
nodes = (
(217,0,ls),
(487,0,o),
(636,181,o),
(636,429,cs),
(636,622,o),
(533,714,o),
(361,714,cs),
(192,714,l),
(41,0,l)
);
},
{
closed = 1;
nodes = (
(146,77,l),
(265,637,l),
(350,637,ls),
(466,637,o),
(542,576,o),
(542,430,cs),
(542,231,o),
(429,77,o),
(222,77,cs)
);
}
);
width = 667;
},
{
anchors = (
{
name = bottom;
pos = (177,0);
},
{
name = center;
pos = (258,357);
},
{
name = top;
pos = (328,714);
},
{
name = topright;
pos = (539,714);
}
);
layerId = "A849C433-1DA2-4174-AEA9-F403839AA1E5";
shapes = (
{
closed = 1;
nodes = (
(118,0,ls),
(360,0,o),
(450,286,o),
(450,503,cs),
(450,642,o),
(386,714,o),
(268,714,cs),
(151,714,l),
(0,0,l)
);
},
{
closed = 1;
nodes = (
(95,73,l),
(216,641,l),
(259,641,ls),
(330,641,o),
(365,597,o),
(365,498,cs),
(365,319,o),
(296,73,o),
(130,73,cs)
);
}
);
width = 465;
},
{
anchors = (
{
name = bottom;
pos = (216,0);
},
{
name = center;
pos = (309,357);
},
{
name = top;
pos = (367,714);
},
{
name = topright;
pos = (618,714);
}
);
layerId = "1C9FFC3E-B033-49C1-8526-F3CD51FE3A6C";
shapes = (
{
closed = 1;
nodes = (
(178,0,ls),
(434,0,o),
(544,264,o),
(544,487,cs),
(544,628,o),
(463,714,o),
(310,714,cs),
(146,714,l),
(-5,0,l)
);
},
{
closed = 1;
nodes = (
(193,148,l),
(282,567,l),
(296,567,ls),
(344,567,o),
(368,536,o),
(368,469,cs),
(368,370,o),
(324,148,o),
(203,148,cs)
);
}
);
width = 543;
},
{
anchors = (
{
name = bottom;
pos = (284,0);
},
{
name = center;
pos = (384,357);
},
{
name = top;
pos = (425,714);
},
{
name = topright;
pos = (757,714);
}
);
layerId = "84606D06-D269-45BD-896C-8402F9D7AD38";
shapes = (
{
closed = 1;
nodes = (
(246,0,ls),
(501,0,o),
(653,167,o),
(653,444,cs),
(653,620,o),
(545,714,o),
(370,714,cs),
(167,714,l),
(16,0,l)
);
},
{
closed = 1;
nodes = (
(241,158,l),
(325,558,l),
(360,558,ls),
(423,558,o),
(460,515,o),
(460,434,cs),
(460,269,o),
(385,158,o),
(275,158,cs)
);
}
);
width = 684;
}
);
script = latin;
subCategory = Uppercase;
unicode = 68;
}
{
category = Letter;
glyphname = E;
kernRight = E.left;
layers = (
{
anchors = (
{
name = bottom;
pos = (113,0);
},
{
name = center;
pos = (190,357);
},
{
name = top;
pos = (265,714);
},
{
name = topright;
pos = (414,714);
}
);
layerId = "891911EE-97A3-4583-AC34-B57874F49FBA";
shapes = (
{
closed = 1;
nodes = (
(227,0,l),
(232,25,l),
(33,25,l),
(105,363,l),
(291,363,l),
(297,388,l),
(111,388,l),
(175,689,l),
(374,689,l),
(379,714,l),
(154,714,l),
(2,0,l)
);
}
);
width = 338;
},
{
anchors = (
{
name = bottom;
pos = (212,0);
},
{
name = center;
pos = (304,357);
},
{
name = top;
pos = (364,714);
},
{
name = topright;
pos = (611,714);
}
);
layerId = "4ABFEEF6-B0FE-443E-B48D-B4A70A3A2C9A";
shapes = (
{
closed = 1;
nodes = (
(408,0,l),
(413,25,l),
(82,25,l),
(154,364,l),
(466,364,l),
(471,389,l),
(159,389,l),
(223,689,l),
(554,689,l),
(559,714,l),
(201,714,l),
(50,0,l)
);
}
);
width = 535;
},
{
anchors = (
{
name = bottom;
pos = (246,0);
},
{
name = center;
pos = (301,357);
},
{
name = top;
pos = (368,714);
},
{
name = topright;
pos = (616,714);
}
);
layerId = "FAB9F01D-70CE-4F71-A270-EC67BDAC6531";
shapes = (
{
closed = 1;
nodes = (
(425,0,l),
(451,125,l),
(201,125,l),
(240,309,l),
(473,309,l),
(500,433,l),
(267,433,l),
(300,590,l),
(550,590,l),
(576,714,l),
(177,714,l),
(26,0,l)
);
}
);
width = 542;
},
{
anchors = (
{
name = bottom;
pos = (141,0);
},
{
name = center;
pos = (220,357);
},
{
name = top;
pos = (292,714);
},
{
name = topright;
pos = (469,714);
}
);
layerId = "E7382CC2-7CD9-4594-B524-5D480E09B385";
shapes = (
{
closed = 1;
nodes = (
(291,0,l),
(314,110,l),
(145,110,l),
(190,316,l),
(346,316,l),
(369,425,l),
(213,425,l),
(251,605,l),
(419,605,l),
(442,714,l),
(149,714,l),
(-2,0,l)
);
}
);
width = 394;
},
{
anchors = (
{
name = bottom;
pos = (236,0);
},
{
name = center;
pos = (297,357);
},
{
name = top;
pos = (370,714);
},
{
name = topright;
pos = (589,714);
}
);
layerId = "9733853B-DD8E-49B4-939D-1F0D465E8B6E";
shapes = (
{
closed = 1;
nodes = (
(403,0,l),
(420,79,l),
(146,79,l),
(201,334,l),
(457,334,l),
(472,412,l),
(217,412,l),
(264,635,l),
(537,635,l),
(554,714,l),
(192,714,l),
(41,0,l)
);
}
);
width = 514;
},
{
anchors = (
{
name = bottom;
pos = (128,0);
},
{
name = center;
pos = (205,357);
},
{
name = top;
pos = (279,714);
},
{
name = topright;
pos = (442,714);
}
);
layerId = "A849C433-1DA2-4174-AEA9-F403839AA1E5";
shapes = (
{
closed = 1;
nodes = (
(259,0,l),
(274,72,l),
(95,72,l),
(151,337,l),
(318,337,l),
(334,409,l),
(167,409,l),
(216,642,l),
(395,642,l),
(410,714,l),
(151,714,l),
(0,0,l)
);
}
);
width = 366;
},
{
anchors = (
{
name = bottom;
pos = (154,0);
},
{
name = center;
pos = (232,357);
},
{
name = top;
pos = (305,714);
},
{
name = topright;
pos = (494,714);
}
);
layerId = "1C9FFC3E-B033-49C1-8526-F3CD51FE3A6C";
shapes = (
{
closed = 1;
nodes = (
(319,0,l),
(350,146,l),
(192,146,l),
(225,297,l),
(370,297,l),
(401,441,l),
(255,441,l),
(283,570,l),
(440,570,l),
(470,714,l),
(146,714,l),
(-5,0,l)
);
}
);
width = 419;
},
{
anchors = (
{
name = bottom;
pos = (262,0);
},
{
name = center;
pos = (303,357);
},
{
name = top;
pos = (384,714);
},
{
name = topright;
pos = (635,714);
}
);
layerId = "84606D06-D269-45BD-896C-8402F9D7AD38";
shapes = (
{
closed = 1;
nodes = (
(440,0,l),
(473,157,l),
(240,157,l),
(268,292,l),
(485,292,l),
(520,447,l),
(303,447,l),
(326,559,l),
(559,559,l),
(591,714,l),
(167,714,l),
(16,0,l)
);
}
);
width = 562;
}
);
script = latin;
subCategory = Uppercase;
unicode = 69;
}
{
category = Letter;
glyphname = F;
layers = (
{
anchors = (
{
name = bottom;
pos = (100,0);
},
{
name = center;
pos = (191,357);
},
{
name = top;
pos = (252,714);
},
{
name = topright;
pos = (388,714);
}
);
layerId = "891911EE-97A3-4583-AC34-B57874F49FBA";
shapes = (
{
closed = 1;
nodes = (
(28,0,l),
(98,329,l),
(286,329,l),
(291,354,l),
(103,354,l),
(175,689,l),
(375,689,l),
(380,714,l),
(154,714,l),
(2,0,l)
);
}
);
width = 312;
},
{
anchors = (
{
name = bottom;
pos = (188,0);
},
{
name = center;
pos = (305,357);
},
{
name = top;
pos = (340,714);
},
{
name = topright;
pos = (563,714);
}
);
layerId = "4ABFEEF6-B0FE-443E-B48D-B4A70A3A2C9A";
shapes = (
{
closed = 1;
nodes = (
(77,0,l),
(146,329,l),
(460,329,l),
(466,354,l),
(152,354,l),
(223,689,l),
(555,689,l),
(560,714,l),
(201,714,l),
(50,0,l)
);
}
);
width = 487;
},
{
anchors = (
{
name = bottom;
pos = (208,0);
},
{
name = center;
pos = (300,357);
},
{
name = top;
pos = (360,714);
},
{
name = topright;
pos = (605,714);
}
);
layerId = "FAB9F01D-70CE-4F71-A270-EC67BDAC6531";
shapes = (
{
closed = 1;
nodes = (
(175,0,l),
(234,282,l),
(465,282,l),
(492,406,l),
(261,406,l),
(300,590,l),
(548,590,l),
(574,714,l),
(177,714,l),
(26,0,l)
);
}
);
width = 531;
},
{
anchors = (
{
name = bottom;
pos = (133,0);
},
{
name = center;
pos = (219,357);
},
{
name = top;
pos = (284,714);
},
{
name = topright;
pos = (452,714);
}
);
layerId = "E7382CC2-7CD9-4594-B524-5D480E09B385";
shapes = (
{
closed = 1;
nodes = (
(123,0,l),
(184,290,l),
(339,290,l),
(363,399,l),
(207,399,l),
(251,605,l),
(419,605,l),
(441,714,l),
(149,714,l),
(-2,0,l)
);
}
);
width = 377;
},
{
anchors = (
{
name = bottom;
pos = (182,0);
},
{
name = center;
pos = (297,357);
},
{
name = top;
pos = (334,714);
},
{
name = topright;
pos = (552,714);
}
);
layerId = "9733853B-DD8E-49B4-939D-1F0D465E8B6E";
shapes = (
{
closed = 1;
nodes = (
(130,0,l),
(194,302,l),
(450,302,l),
(467,381,l),
(211,381,l),
(264,635,l),
(538,635,l),
(554,714,l),
(192,714,l),
(41,0,l)
);
}
);
width = 477;
},
{
anchors = (
{
name = bottom;
pos = (117,0);
},
{
name = center;
pos = (205,357);
},
{
name = top;
pos = (268,714);
},
{
name = topright;
pos = (420,714);
}
);
layerId = "A849C433-1DA2-4174-AEA9-F403839AA1E5";
shapes = (
{
closed = 1;
nodes = (
(80,0,l),
(145,308,l),
(313,308,l),
(328,380,l),
(161,380,l),
(216,642,l),
(395,642,l),
(411,714,l),
(151,714,l),
(0,0,l)
);
}
);
width = 345;
},
{
anchors = (
{
name = bottom;
pos = (148,0);
},
{
name = center;
pos = (232,357);
},
{
name = top;
pos = (299,714);
},
{
name = topright;
pos = (482,714);
}
);
layerId = "1C9FFC3E-B033-49C1-8526-F3CD51FE3A6C";
shapes = (
{
closed = 1;
nodes = (
(162,0,l),
(219,273,l),
(363,273,l),
(394,417,l),
(250,417,l),
(283,570,l),
(439,570,l),
(469,714,l),
(146,714,l),
(-5,0,l)
);
}
);
width = 407;
},
{
anchors = (
{
name = bottom;
pos = (226,0);
},
{
name = center;
pos = (302,357);
},
{
name = top;
pos = (378,714);
},
{
name = topright;
pos = (642,714);
}
);
layerId = "84606D06-D269-45BD-896C-8402F9D7AD38";
shapes = (
{
closed = 1;
nodes = (
(207,0,l),
(262,267,l),
(476,267,l),
(510,423,l),
(297,423,l),
(325,559,l),
(555,559,l),
(588,714,l),
(167,714,l),
(16,0,l)
);
}
);
width = 569;
}
);
script = latin;
subCategory = Uppercase;
unicode = 70;
}
{
category = Letter;
glyphname = G;
kernLeft = O.right;
layers = (
{
anchors = (
{
name = bottom;
pos = (170,0);
},
{
name = center;
pos = (255,357);
},
{
name = top;
pos = (322,714);
},
{
name = topright;
pos = (528,714);
}
);
layerId = "891911EE-97A3-4583-AC34-B57874F49FBA";
shapes = (
{
closed = 1;
nodes = (
(263,-10,o),
(300,-1,o),
(335,12,c),
(407,352,l),
(282,352,l),
(276,327,l),
(375,327,l),
(313,32,l),
(284,21,o),
(253,15,o),
(217,15,cs),
(116,15,o),
(63,75,o),
(63,218,cs),
(63,452,o),
(166,700,o),
(349,700,cs),
(395,700,o),
(429,684,o),
(458,662,c),
(474,683,l),
(444,705,o),
(407,725,o),
(349,725,cs),
(147,725,o),
(36,466,o),
(36,215,cs),
(36,63,o),
(97,-10,o),
(213,-10,cs)
);
}
);
width = 452;
},
{
anchors = (
{
name = bottom;
pos = (289,0);
},
{
name = center;
pos = (374,357);
},
{
name = top;
pos = (441,714);
},
{
name = topright;
pos = (766,714);
}
);
layerId = "4ABFEEF6-B0FE-443E-B48D-B4A70A3A2C9A";
shapes = (
{
closed = 1;
nodes = (
(406,-10,o),
(487,5,o),
(554,36,c),
(621,350,l),
(394,350,l),
(388,325,l),
(589,325,l),
(531,53,l),
(479,31,o),
(405,15,o),
(334,15,cs),
(204,15,o),
(110,97,o),
(110,267,cs),
(110,530,o),
(274,699,o),
(463,699,cs),
(531,699,o),
(596,683,o),
(653,657,c),
(664,682,l),
(605,708,o),
(539,724,o),
(464,724,cs),
(262,724,o),
(84,548,o),
(84,267,cs),
(84,97,o),
(173,-10,o),
(333,-10,cs)
);
}
);
width = 690;
},
{
anchors = (
{
name = bottom;
pos = (332,0);
},
{
name = center;
pos = (369,357);
},
{
name = top;
pos = (454,714);
},
{
name = topright;
pos = (764,714);
}
);
layerId = "FAB9F01D-70CE-4F71-A270-EC67BDAC6531";
shapes = (
{
closed = 1;
nodes = (
(433,-10,o),
(499,7,o),
(564,29,c),
(643,401,l),
(368,401,l),
(341,275,l),
(471,275,l),
(439,129,l),
(411,122,o),
(389,117,o),
(356,117,cs),
(254,117,o),
(212,174,o),
(212,280,cs),
(212,430,o),
(296,597,o),
(471,597,cs),
(528,597,o),
(574,580,o),
(622,554,c),
(678,677,l),
(614,710,o),
(552,725,o),
(478,725,cs),
(203,725,o),
(60,511,o),
(60,268,cs),
(60,87,o),
(158,-10,o),
(324,-10,cs)
);
}
);
width = 690;
},
{
anchors = (
{
name = bottom;
pos = (204,0);
},
{
name = center;
pos = (292,357);
},
{
name = top;
pos = (355,714);
},
{
name = topright;
pos = (596,714);
}
);
layerId = "E7382CC2-7CD9-4594-B524-5D480E09B385";
shapes = (
{
closed = 1;
nodes = (
(290,-10,o),
(354,3,o),
(419,28,c),
(497,398,l),
(295,398,l),
(273,291,l),
(351,291,l),
(313,110,l),
(293,104,o),
(273,101,o),
(253,101,cs),
(195,101,o),
(166,142,o),
(166,231,cs),
(166,401,o),
(248,614,o),
(374,614,cs),
(416,614,o),
(455,600,o),
(492,573,c),
(548,679,l),
(510,706,o),
(451,724,o),
(386,724,cs),
(160,724,o),
(36,470,o),
(36,220,cs),
(36,72,o),
(102,-10,o),
(241.992,-10,cs)
);
}
);
width = 520;
},
{
anchors = (
{
name = bottom;
pos = (330,0);
},
{
name = center;
pos = (368,357);
},
{
name = top;
pos = (464,714);
},
{
name = topright;
pos = (753,714);
}
);
layerId = "9733853B-DD8E-49B4-939D-1F0D465E8B6E";
shapes = (
{
closed = 1;
nodes = (
(427,-10,o),
(491,6,o),
(551,27,c),
(627,376,l),
(398,376,l),
(381,298,l),
(521,298,l),
(475,87,l),
(446,77,o),
(403,69,o),
(352,69,cs),
(224,69,o),
(167,154,o),
(167,265,cs),
(167,487,o),
(291,645,o),
(456,645,cs),
(524,645,o),
(580,626,o),
(630,604,c),
(664,682,l),
(605,708,o),
(544,724,o),
(457,724,cs),
(228,724,o),
(72,520,o),
(72,259,cs),
(72,89,o),
(173,-10,o),
(343,-10,cs)
);
}
);
width = 678;
},
{
anchors = (
{
name = bottom;
pos = (190,0);
},
{
name = center;
pos = (275,357);
},
{
name = top;
pos = (341,714);
},
{
name = topright;
pos = (566,714);
}
);
layerId = "A849C433-1DA2-4174-AEA9-F403839AA1E5";
shapes = (
{
closed = 1;
nodes = (
(275,-10,o),
(329,1,o),
(381,21,c),
(457,377,l),
(289,377,l),
(274,306,l),
(362,306,l),
(313,74,l),
(288,66,o),
(262,62,o),
(234,62,cs),
(157,62,o),
(119,110,o),
(119,221,cs),
(119,423,o),
(212,652,o),
(357,652,cs),
(399,652,o),
(435,640,o),
(474,611,c),
(514,680,l),
(476,707,o),
(423,725,o),
(364,725,cs),
(174,725,o),
(36,498,o),
(36,217,cs),
(36,68,o),
(98,-10,o),
(227,-10,cs)
);
}
);
width = 492;
},
{
anchors = (
{
name = bottom;
pos = (218,0);
},
{
name = center;
pos = (307,357);
},
{
name = top;
pos = (369,714);
},
{
name = topright;
pos = (623,714);
}
);
layerId = "1C9FFC3E-B033-49C1-8526-F3CD51FE3A6C";
shapes = (
{
closed = 1;
nodes = (
(303,-10,o),
(378,5,o),
(454,35,c),
(535,418,l),
(301,418,l),
(272,276,l),
(341,276,l),
(313,143,l),
(298,139,o),
(283,137,o),
(270,137,cs),
(231,137,o),
(211,172,o),
(211,240,cs),
(211,380,o),
(281,578,o),
(389,578,cs),
(431,578,o),
(472,563,o),
(508,537,c),
(579,678,l),
(541,705,o),
(475,724,o),
(406,724,cs),
(150,724,o),
(36,448,o),
(36,223,cs),
(36,76,o),
(105,-10,o),
(256,-10,cs)
);
}
);
width = 548;
},
{
anchors = (
{
name = bottom;
pos = (332,0);
},
{
name = center;
pos = (369,357);
},
{
name = top;
pos = (456,714);
},
{
name = topright;
pos = (771,714);
}
);
layerId = "84606D06-D269-45BD-896C-8402F9D7AD38";
shapes = (
{
closed = 1;
nodes = (
(426,-10,o),
(505,8,o),
(573,30,c),
(655,418,l),
(357,418,l),
(324,269,l),
(436,269,l),
(411,156,l),
(385,151,o),
(372,149,o),
(346,149,cs),
(280,149,o),
(244,188,o),
(244,278,cs),
(244,389,o),
(300,566,o),
(467,566,cs),
(524,566,o),
(575,546,o),
(616,522,c),
(688,673,l),
(630,707,o),
(552,725,o),
(469,725,cs),
(185,725,o),
(51,504,o),
(51,275,cs),
(51,86,o),
(157,-10,o),
(319,-10,cs)
);
}
);
width = 698;
}
);
script = latin;
subCategory = Uppercase;
unicode = 71;
}
{
category = Letter;
glyphname = H;
layers = (
{
anchors = (
{
name = bottom;
pos = (164,0);
},
{
name = center;
pos = (240,357);
},
{
name = top;
pos = (316,714);
},
{
name = topright;
pos = (516,714);
}
);
layerId = "891911EE-97A3-4583-AC34-B57874F49FBA";
shapes = (
{
closed = 1;
nodes = (
(28,0,l),
(105,363,l),
(353,363,l),
(276,0,l),
(302,0,l),
(454,714,l),
(428,714,l),
(359,388,l),
(111,388,l),
(180,714,l),
(154,714,l),
(2,0,l)
);
}
);
width = 440;
},
{
anchors = (
{
name = bottom;
pos = (285,0);
},
{
name = center;
pos = (361,357);
},
{
name = top;
pos = (437,714);
},
{
name = topright;
pos = (757,714);
}
);
layerId = "4ABFEEF6-B0FE-443E-B48D-B4A70A3A2C9A";
shapes = (
{
closed = 1;
nodes = (
(77,0,l),
(154,363,l),
(575,363,l),
(498,0,l),
(525,0,l),
(676,714,l),
(649,714,l),
(580,388,l),
(159,388,l),
(228,714,l),
(201,714,l),
(50,0,l)
);
}
);
width = 681;
},
{
anchors = (
{
name = bottom;
pos = (296,0);
},
{
name = center;
pos = (378,357);
},
{
name = top;
pos = (433,714);
},
{
name = topright;
pos = (755,714);
}
);
layerId = "9733853B-DD8E-49B4-939D-1F0D465E8B6E";
shapes = (
{
closed = 1;
nodes = (
(131,0,l),
(201,333,l),
(515,333,l),
(445,0,l),
(533,0,l),
(684,714,l),
(596,714,l),
(532,412,l),
(218,412,l),
(282,714,l),
(193,714,l),
(42,0,l)
);
}
);
width = 680;
},
{
anchors = (
{
name = bottom;
pos = (186,0);
},
{
name = center;
pos = (267,357);
},
{
name = top;
pos = (337,714);
},
{
name = topright;
pos = (558,714);
}
);
layerId = "A849C433-1DA2-4174-AEA9-F403839AA1E5";
shapes = (
{
closed = 1;
nodes = (
(80,0,l),
(151,337,l),
(344,337,l),
(273,0,l),
(353,0,l),
(505,714,l),
(425,714,l),
(360,410,l),
(167,410,l),
(231,714,l),
(151,714,l),
(0,0,l)
);
}
);
width = 483;
},
{
anchors = (
{
name = bottom;
pos = (226,0);
},
{
name = center;
pos = (319,357);
},
{
name = top;
pos = (377,714);
},
{
name = topright;
pos = (638,714);
}
);
layerId = "1C9FFC3E-B033-49C1-8526-F3CD51FE3A6C";
shapes = (
{
closed = 1;
nodes = (
(162,0,l),
(225,298,l),
(348,298,l),
(285,0,l),
(452,0,l),
(604,714,l),
(437,714,l),
(379,444,l),
(256,444,l),
(313,714,l),
(146,714,l),
(-5,0,l)
);
}
);
width = 563;
},
{
anchors = (
{
name = bottom;
pos = (297,0);
},
{
name = center;
pos = (399,357);
},
{
name = top;
pos = (440,714);
},
{
name = topright;
pos = (787,714);
}
);
layerId = "84606D06-D269-45BD-896C-8402F9D7AD38";
shapes = (
{
closed = 1;
nodes = (
(207,0,l),
(269,291,l),
(438,291,l),
(377,0,l),
(568,0,l),
(719,714,l),
(528,714,l),
(473,449,l),
(303,449,l),
(358,714,l),
(167,714,l),
(16,0,l)
);
}
);
width = 714;
}
);
script = latin;
subCategory = Uppercase;
unicode = 72;
}
{
category = Letter;
color = 10;
glyphname = I;
layers = (
{
anchors = (
{
name = bottom;
pos = (27,0);
},
{
name = center;
pos = (89,357);
},
{
name = ogonek;
pos = (84,0);
},
{
name = top;
pos = (179,714);
},
{
name = topright;
pos = (241,714);
}
);
layerId = "891911EE-97A3-4583-AC34-B57874F49FBA";
shapes = (
{
closed = 1;
nodes = (
(84,0,l),
(88,19,l),
(31,22,l),
(173,691,l),
(232,695,l),
(236,714,l),
(94,714,l),
(90,695,l),
(148,691,l),
(6,22,l),
(-54,19,l),
(-58,0,l)
);
}
);
width = 165;
},
{
anchors = (
{
name = bottom;
pos = (84,0);
},
{
name = center;
pos = (162,357);
},
{
name = ogonek;
pos = (166,0);
},
{
name = top;
pos = (236,714);
},
{
name = topright;
pos = (355,714);
}
);
layerId = "4ABFEEF6-B0FE-443E-B48D-B4A70A3A2C9A";
shapes = (
{
closed = 1;
nodes = (
(166,0,l),
(170,20,l),
(104,23,l),
(246,690,l),
(313,694,l),
(317,714,l),
(159,714,l),
(155,694,l),
(220,690,l),
(78,23,l),
(12,20,l),
(8,0,l)
);
}
);
width = 279;
},
{
anchors = (
{
name = bottom;
pos = (134,0);
},
{
name = center;
pos = (204,357);
},
{
name = ogonek;
pos = (287,0);
},
{
name = top;
pos = (279,714);
},
{
name = topright;
pos = (457,714);
}
);
associatedMasterId = "9733853B-DD8E-49B4-939D-1F0D465E8B6E";
attr = {
coordinates = (
151,
100
);
};
background = {
shapes = (
{
closed = 1;
nodes = (
(278.41,0,l),
(295.85,81.59,l),
(217.68,111.54,l),
(321.41,600.02,l),
(413.58,631.41,l),
(430.63,714,l),
(119.09,714,l),
(102.65,631.41,l),
(179.65,600.02,l),
(74.92,111.54,l),
(-13.25,81.59,l),
(-30.3,0,l)
);
}
);
};
layerId = "5337cedd-b19c-418a-8f94-42aeb44da2df";
name = "SemiBold Italic (intermediate)";
shapes = (
{
closed = 1;
nodes = (
(287,0,l),
(305,86,l),
(229,126,l),
(327,588,l),
(420,628,l),
(438,714,l),
(122,714,l),
(104,628,l),
(178,588,l),
(80,126,l),
(-11,86,l),
(-29,0,l)
);
}
);
width = 383;
},
{
anchors = (
{
name = bottom;
pos = (103,0);
},
{
name = center;
pos = (174,357);
},
{
name = ogonek;
pos = (240,0);
},
{
name = top;
pos = (252,714);
},
{
name = topright;
pos = (393,714);
}
);
associatedMasterId = "A849C433-1DA2-4174-AEA9-F403839AA1E5";
attr = {
coordinates = (
151,
70
);
};
background = {
shapes = (
{
closed = 1;
nodes = (
(251.37,0,l),
(265.86,70.01,l),
(191.81,100.65,l),
(300.34,613.35,l),
(387.49,643.99,l),
(402.37,714,l),
(108.54,714,l),
(94.05,643.99,l),
(167.27,613.35,l),
(58.74,100.65,l),
(-27.58,70.01,l),
(-42.46,0,l)
);
}
);
};
layerId = "c33cdd43-ac7a-4974-a348-5e5692f6137a";
name = "SemiBold Condensed Italic (intermediate)";
shapes = (
{
closed = 1;
nodes = (
(240,0,l),
(254,66,l),
(180,95,l),
(291,619,l),
(377,648,l),
(391,714,l),
(107,714,l),
(94,648,l),
(167,619,l),
(55,95,l),
(-29,66,l),
(-43,0,l)
);
}
);
width = 317;
},
{
anchors = (
{
name = bottom;
pos = (105,0);
},
{
name = center;
pos = (180,357);
},
{
name = ogonek;
pos = (230,0);
},
{
name = top;
pos = (257,714);
},
{
name = topright;
pos = (399,714);
}
);
layerId = "9733853B-DD8E-49B4-939D-1F0D465E8B6E";
shapes = (
{
closed = 1;
nodes = (
(230,0,l),
(240,49,l),
(163,69,l),
(285,645,l),
(371,664,l),
(381,714,l),
(131,714,l),
(121,664,l),
(197,645,l),
(75,69,l),
(-10,49,l),
(-20,0,l)
);
}
);
width = 324;
},
{
anchors = (
{
name = bottom;
pos = (74,0);
},
{
name = center;
pos = (140,357);
},
{
name = ogonek;
pos = (180,0);
},
{
name = top;
pos = (224,714);
},
{
name = topright;
pos = (335,714);
}
);
layerId = "A849C433-1DA2-4174-AEA9-F403839AA1E5";
shapes = (
{
closed = 1;
nodes = (
(180,0,l),
(189,45,l),
(118,61,l),
(243,653,l),
(321,669,l),
(331,714,l),
(100,714,l),
(91,669,l),
(163,653,l),
(38,61,l),
(-41,45,l),
(-51,0,l)
);
}
);
width = 260;
},
{
anchors = (
{
name = bottom;
pos = (131,0);
},
{
name = center;
pos = (205,357);
},
{
name = ogonek;
pos = (297,0);
},
{
name = top;
pos = (278,714);
},
{
name = topright;
pos = (448,714);
}
);
layerId = "1C9FFC3E-B033-49C1-8526-F3CD51FE3A6C";
shapes = (
{
closed = 1;
nodes = (
(297,0,l),
(315,86,l),
(239,126,l),
(337,588,l),
(430,628,l),
(448,714,l),
(114,714,l),
(96,628,l),
(170,588,l),
(72,126,l),
(-19,86,l),
(-37,0,l)
);
}
);
width = 373;
},
{
anchors = (
{
name = bottom;
pos = (154,0);
},
{
name = center;
pos = (222,357);
},
{
name = ogonek;
pos = (328,0);
},
{
name = top;
pos = (297,714);
},
{
name = topright;
pos = (499,714);
}
);
layerId = "84606D06-D269-45BD-896C-8402F9D7AD38";
shapes = (
{
closed = 1;
nodes = (
(328,0,l),
(351,109,l),
(272,148,l),
(360,562,l),
(458,604,l),
(481,714,l),
(114,714,l),
(91,604,l),
(169,562,l),
(81,148,l),
(-13,109,l),
(-36,0,l)
);
}
);
width = 426;
}
);
script = latin;
subCategory = Uppercase;
unicode = 73;
}
{
category = Letter;
glyphname = J;
layers = (
{
anchors = (
{
name = bottom;
pos = (-92,-172);
},
{
name = center;
pos = (19,271);
},
{
name = top;
pos = (173,714);
},
{
name = topright;
pos = (230,714);
}
);
layerId = "891911EE-97A3-4583-AC34-B57874F49FBA";
shapes = (
{
closed = 1;
nodes = (
(-28,-172,o),
(2,-129,o),
(21,-37,cs),
(180,714,l),
(154,714,l),
(-3,-29,ls),
(-23,-118,o),
(-45,-147,o),
(-90,-147,cs),
(-106,-147,o),
(-122,-143,o),
(-134,-137,c),
(-142,-160,l),
(-130,-167,o),
(-112,-172,o),
(-92,-172,cs)
);
}
);
width = 154;
},
{
anchors = (
{
name = bottom;
pos = (-88,-174);
},
{
name = center;
pos = (30,270);
},
{
name = top;
pos = (212,714);
},
{
name = topright;
pos = (307,714);
}
);
layerId = "4ABFEEF6-B0FE-443E-B48D-B4A70A3A2C9A";
shapes = (
{
closed = 1;
nodes = (
(3,-174,o),
(54,-122,o),
(77,-13,cs),
(231,714,l),
(204,714,l),
(51,-9,ls),
(33,-93,o),
(-2,-148,o),
(-87,-148,cs),
(-112,-148,o),
(-144,-144,o),
(-169,-136,c),
(-170,-161,l),
(-151,-168,o),
(-118,-174,o),
(-88,-174,cs)
);
}
);
width = 231;
},
{
anchors = (
{
name = bottom;
pos = (-66,-210);
},
{
name = center;
pos = (90,252);
},
{
name = top;
pos = (262,714);
},
{
name = topright;
pos = (405,714);
}
);
layerId = "FAB9F01D-70CE-4F71-A270-EC67BDAC6531";
shapes = (
{
closed = 1;
nodes = (
(75,-210,o),
(154,-145,o),
(189,19,cs),
(337,714,l),
(188,714,l),
(45,40,ls),
(27,-45,o),
(-13,-83,o),
(-77,-83,cs),
(-109,-83,o),
(-135,-78,o),
(-157,-73,c),
(-157,-197,l),
(-133,-204,o),
(-107,-210,o),
(-66,-210,cs)
);
}
);
width = 331;
},
{
anchors = (
{
name = bottom;
pos = (-72,-208);
},
{
name = center;
pos = (61,253);
},
{
name = top;
pos = (215,714);
},
{
name = topright;
pos = (315,714);
}
);
layerId = "E7382CC2-7CD9-4594-B524-5D480E09B385";
shapes = (
{
closed = 1;
nodes = (
(25,-208,o),
(93,-147,o),
(125,5,cs),
(275,714,l),
(150,714,l),
(4,24,ls),
(-9,-37,o),
(-28,-99,o),
(-78,-99,cs),
(-95,-99,o),
(-111,-95,o),
(-128,-87,c),
(-153,-196,l),
(-132,-204,o),
(-108,-208,o),
(-72,-208,cs)
);
}
);
width = 240;
},
{
anchors = (
{
name = bottom;
pos = (-80,-190);
},
{
name = center;
pos = (63,262);
},
{
name = top;
pos = (237,714);
},
{
name = topright;
pos = (348,714);
}
);
layerId = "9733853B-DD8E-49B4-939D-1F0D465E8B6E";
shapes = (
{
closed = 1;
nodes = (
(27,-190,o),
(102,-136,o),
(131,-1,cs),
(282,714,l),
(193,714,l),
(43,9,ls),
(25,-77,o),
(-23,-111,o),
(-82,-111,cs),
(-109,-111,o),
(-133,-107,o),
(-153,-101,c),
(-156,-178,l),
(-141,-185,o),
(-112,-190,o),
(-80,-190,cs)
);
}
);
width = 273;
},
{
anchors = (
{
name = bottom;
pos = (-80,-192);
},
{
name = center;
pos = (42,261);
},
{
name = top;
pos = (196,714);
},
{
name = topright;
pos = (277,714);
}
);
layerId = "A849C433-1DA2-4174-AEA9-F403839AA1E5";
shapes = (
{
closed = 1;
nodes = (
(1,-192,o),
(52,-139,o),
(78,-14,cs),
(232,714,l),
(152,714,l),
(1,0,ls),
(-15,-74,o),
(-35,-120,o),
(-82,-120,cs),
(-98,-120,o),
(-114,-115,o),
(-129,-108,c),
(-147,-180,l),
(-130,-188,o),
(-109,-192,o),
(-80,-192,cs)
);
}
);
width = 202;
},
{
anchors = (
{
name = bottom;
pos = (-64,-224);
},
{
name = center;
pos = (79,245);
},
{
name = top;
pos = (233,714);
},
{
name = topright;
pos = (350,714);
}
);
layerId = "1C9FFC3E-B033-49C1-8526-F3CD51FE3A6C";
shapes = (
{
closed = 1;
nodes = (
(49,-224,o),
(132,-155,o),
(170,23,cs),
(316,714,l),
(149,714,l),
(7,47,ls),
(-3,-2,o),
(-20,-80,o),
(-74,-80,cs),
(-91,-80,o),
(-108,-75,o),
(-127,-66,c),
(-158,-212,l),
(-133,-220,o),
(-106,-224,o),
(-64,-224,cs)
);
}
);
width = 275;
},
{
anchors = (
{
name = bottom;
pos = (-56,-225);
},
{
name = center;
pos = (108,244);
},
{
name = top;
pos = (280,714);
},
{
name = topright;
pos = (446,714);
}
);
layerId = "84606D06-D269-45BD-896C-8402F9D7AD38";
shapes = (
{
closed = 1;
nodes = (
(116,-225,o),
(191,-155,o),
(231,33,cs),
(377,714,l),
(186,714,l),
(45,57,ls),
(24,-42,o),
(-14,-67,o),
(-75,-67,cs),
(-110,-67,o),
(-136,-61,o),
(-160,-55,c),
(-160,-211,l),
(-129,-219,o),
(-90,-225,o),
(-56,-225,cs)
);
}
);
width = 373;
}
);
script = latin;
subCategory = Uppercase;
unicode = 74;
}
{
category = Letter;
color = 10;
glyphname = K;
kernRight = K.left;
layers = (
{
anchors = (
{
name = bottom;
pos = (117,0);
},
{
name = center;
pos = (210,357);
},
{
name = top;
pos = (269,714);
},
{
name = topright;
pos = (422,714);
}
);
layerId = "891911EE-97A3-4583-AC34-B57874F49FBA";
shapes = (
{
closed = 1;
nodes = (
(28,0,l),
(88,282,l),
(165,377,l),
(249,0,l),
(278,0,l),
(186,400,l),
(418,714,l),
(386,714,l),
(165,414,l),
(96,318,l),
(180,714,l),
(154,714,l),
(2,0,l)
);
}
);
width = 346;
},
{
anchors = (
{
name = bottom;
pos = (216,0);
},
{
name = center;
pos = (339,357);
},
{
name = top;
pos = (368,714);
},
{
name = topright;
pos = (619,714);
}
);
layerId = "4ABFEEF6-B0FE-443E-B48D-B4A70A3A2C9A";
shapes = (
{
closed = 1;
nodes = (
(77,0,l),
(138,291,l),
(262,396,l),
(454,0,l),
(484,0,l),
(283,414,l),
(629,714,l),
(592,714,l),
(202,376,l),
(145,324,l),
(228,714,l),
(201,714,l),
(50,0,l)
);
}
);
width = 543;
},
{
anchors = (
{
name = bottom;
pos = (272,0);
},
{
name = center;
pos = (365,357);
},
{
name = top;
pos = (422,714);
},
{
name = topright;
pos = (687,714);
}
);
associatedMasterId = "9733853B-DD8E-49B4-939D-1F0D465E8B6E";
attr = {
coordinates = (
151,
100
);
};
background = {
shapes = (
{
closed = 1;
nodes = (
(169.95,0,l),
(226.34,268.78,l),
(290.24,313.22,l),
(398.38,0,l),
(557.97,0,l),
(411.05,391.95,l),
(695.43,714,l),
(525.84,714,l),
(319.37,474.25,l),
(249.68,386.14,l),
(320.95,714,l),
(177.8,714,l),
(26.8,0,l)
);
}
);
};
layerId = "76eb466c-d1d9-43d5-b92f-3a9b02680183";
name = "SemiBold Italic (intermediate)";
shapes = (
{
closed = 1;
nodes = (
(175,0,l),
(228,255,l),
(289,289,l),
(392,0,l),
(557,0,l),
(415,372,l),
(705,714,l),
(529,714,l),
(327,471,l),
(251,369,l),
(326,714,l),
(177,714,l),
(26,0,l)
);
}
);
width = 613;
},
{
anchors = (
{
name = bottom;
pos = (174,0);
},
{
name = center;
pos = (275,357);
},
{
name = top;
pos = (326,714);
},
{
name = topright;
pos = (536,714);
}
);
associatedMasterId = "A849C433-1DA2-4174-AEA9-F403839AA1E5";
attr = {
coordinates = (
151,
70
);
};
background = {
shapes = (
{
closed = 1;
nodes = (
(130.02,0,l),
(183.36,252.92,l),
(222.5,285.74,l),
(269.42,0,l),
(415.59,0,l),
(339.08,380.9,l),
(564.69,714,l),
(418.52,714,l),
(257.97,475.11,l),
(215.17,400.48,l),
(281.02,714,l),
(147.95,714,l),
(-3.05,0,l)
);
}
);
};
layerId = "ca375df5-d545-45b8-92e9-e6db4aa224a3";
name = "SemiBold Condensed Italic (intermediate)";
shapes = (
{
closed = 1;
nodes = (
(123,0,l),
(177,255,l),
(219,292,l),
(268,0,l),
(405,0,l),
(328,382,l),
(553,714,l),
(416,714,l),
(251,470,l),
(206,394,l),
(274,714,l),
(149,714,l),
(-2,0,l)
);
}
);
width = 461;
},
{
anchors = (
{
name = bottom;
pos = (248,0);
},
{
name = center;
pos = (346,357);
},
{
name = top;
pos = (402,714);
},
{
name = topright;
pos = (637,714);
}
);
layerId = "9733853B-DD8E-49B4-939D-1F0D465E8B6E";
shapes = (
{
closed = 1;
nodes = (
(130,0,l),
(190,285,l),
(273,346,l),
(412,0,l),
(510,0,l),
(341,400,l),
(651,714,l),
(543,714,l),
(269,433,l),
(207,367,l),
(281,714,l),
(192,714,l),
(41,0,l)
);
}
);
width = 562;
},
{
anchors = (
{
name = bottom;
pos = (147,0);
},
{
name = center;
pos = (243,357);
},
{
name = top;
pos = (298,714);
},
{
name = topright;
pos = (480,714);
}
);
layerId = "A849C433-1DA2-4174-AEA9-F403839AA1E5";
shapes = (
{
closed = 1;
nodes = (
(80,0,l),
(137,270,l),
(192,326,l),
(256,0,l),
(343,0,l),
(261,387,l),
(486,714,l),
(399,714,l),
(211,444,l),
(156,359,l),
(231,714,l),
(151,714,l),
(0,0,l)
);
}
);
width = 405;
},
{
anchors = (
{
name = bottom;
pos = (200,0);
},
{
name = center;
pos = (305,357);
},
{
name = top;
pos = (351,714);
},
{
name = topright;
pos = (587,714);
}
);
layerId = "1C9FFC3E-B033-49C1-8526-F3CD51FE3A6C";
shapes = (
{
closed = 1;
nodes = (
(162,0,l),
(213,242,l),
(242,260,l),
(278,0,l),
(462,0,l),
(389,377,l),
(615,714,l),
(431,714,l),
(288,495,l),
(253,427,l),
(313,714,l),
(146,714,l),
(-5,0,l)
);
}
);
width = 512;
},
{
anchors = (
{
name = bottom;
pos = (292,0);
},
{
name = center;
pos = (379,357);
},
{
name = top;
pos = (438,714);
},
{
name = topright;
pos = (742,714);
}
);
layerId = "84606D06-D269-45BD-896C-8402F9D7AD38";
shapes = (
{
closed = 1;
nodes = (
(207,0,l),
(260,255,l),
(307,282,l),
(392,0,l),
(606,0,l),
(474,385,l),
(743,714,l),
(519,714,l),
(363,509,l),
(292,409,l),
(358,714,l),
(167,714,l),
(16,0,l)
);
}
);
width = 669;
}
);
script = latin;
subCategory = Uppercase;
unicode = 75;
}
{
category = Letter;
color = 10;
glyphname = M;
layers = (
{
anchors = (
{
name = bottom;
pos = (238,0);
},
{
name = center;
pos = (301,357);
},
{
name = top;
pos = (390,714);
},
{
name = topright;
pos = (663,714);
}
);
layerId = "891911EE-97A3-4583-AC34-B57874F49FBA";
shapes = (
{
closed = 1;
nodes = (
(28,0,l),
(151,578,ls),
(157,608,o),
(161,627,o),
(168,667,c),
(170,667,l),
(204,0,l),
(245,0,l),
(564,666,l),
(566,666,l),
(557,627,o),
(551,601,o),
(545,574,cs),
(423,0,l),
(449,0,l),
(601,714,l),
(559,714,l),
(232,32,l),
(229,32,l),
(192,714,l),
(154,714,l),
(2,0,l)
);
}
);
width = 587;
},
{
anchors = (
{
name = bottom;
pos = (347,0);
},
{
name = center;
pos = (425,357);
},
{
name = top;
pos = (499,714);
},
{
name = topright;
pos = (882,714);
}
);
layerId = "4ABFEEF6-B0FE-443E-B48D-B4A70A3A2C9A";
shapes = (
{
closed = 1;
nodes = (
(77,0,l),
(203,597,ls),
(209,627,o),
(212,646,o),
(218,679,c),
(220,679,l),
(340,0,l),
(360,0,l),
(767,678,l),
(769,678,l),
(761,645,o),
(755,622,o),
(751,602,cs),
(624,0,l),
(650,0,l),
(801,714,l),
(759,714,l),
(360,47,l),
(357,47,l),
(239,714,l),
(201,714,l),
(50,0,l)
);
}
);
width = 806;
},
{
anchors = (
{
name = bottom;
pos = (371,0);
},
{
name = center;
pos = (455,357);
},
{
name = top;
pos = (517,714);
},
{
name = topright;
pos = (954,714);
}
);
associatedMasterId = "9733853B-DD8E-49B4-939D-1F0D465E8B6E";
attr = {
coordinates = (
151,
100
);
};
background = {
shapes = (
{
closed = 1;
nodes = (
(155.46,0,l),
(227.68,343.93,ls),
(241.07,409.1,o),
(254.46,494.66,o),
(266,572.87,c),
(270.39,572.87,l),
(300.57,0,l),
(433.51,0,l),
(719.48,572.21,l),
(722.09,572.21,l),
(713.53,534.65,o),
(693.7,468.31,o),
(666.55,344.05,cs),
(593.94,0,l),
(725.72,0,l),
(876.77,714,l),
(677.28,714,l),
(402.84,161.44,l),
(398.45,161.44,l),
(370.83,714,l),
(177.41,714,l),
(26.41,0,l)
);
}
);
};
layerId = "a08a2151-1fda-440b-b03f-b4472d4ee627";
name = "SemiBold Italic (intermediate)";
shapes = (
{
closed = 1;
nodes = (
(160,0,l),
(230,332,ls),
(247,414,o),
(263,510,o),
(268,553,c),
(272,553,l),
(302,0,l),
(439,0,l),
(717,553,l),
(721,553,l),
(705,494,o),
(682,405,o),
(668,338,cs),
(597,0,l),
(734,0,l),
(885,714,l),
(678,714,l),
(410,180,l),
(406,180,l),
(374,714,l),
(177,714,l),
(26,0,l)
);
}
);
width = 880;
},
{
anchors = (
{
name = bottom;
pos = (292,0);
},
{
name = center;
pos = (363,357);
},
{
name = top;
pos = (443,714);
},
{
name = topright;
pos = (771,714);
}
);
associatedMasterId = "A849C433-1DA2-4174-AEA9-F403839AA1E5";
attr = {
coordinates = (
151,
70
);
};
background = {
shapes = (
{
closed = 1;
nodes = (
(122.36,0,l),
(198.18,356.2,ls),
(205.18,388.98,o),
(210.18,424.2,o),
(216.96,464.59,c),
(219.57,464.59,l),
(233.03,0,l),
(347.19,0,l),
(556.73,468.64,l),
(559.34,468.64,l),
(551.95,440.3,o),
(544.34,413.35,o),
(538.56,385.79,cs),
(456.3,0,l),
(585.93,0,l),
(737.93,714,l),
(550.22,714,l),
(340.9,234.92,l),
(338.29,234.92,l),
(324,714,l),
(147.95,714,l),
(-3.05,0,l)
);
}
);
};
layerId = "1ea8d7de-449f-4216-ad97-098dcfa0b311";
name = "SemiBold Condensed Italic (intermediate)";
shapes = (
{
closed = 1;
nodes = (
(116,0,l),
(195,373,ls),
(202,405,o),
(207,440,o),
(214,481,c),
(217,481,l),
(231,0,l),
(340,0,l),
(558,484,l),
(560,484,l),
(553,455,o),
(545,428,o),
(539,401,cs),
(454,0,l),
(576,0,l),
(728,714,l),
(551,714,l),
(333,219,l),
(330,219,l),
(315,714,l),
(149,714,l),
(-2,0,l)
);
}
);
width = 696;
},
{
anchors = (
{
name = bottom;
pos = (361,0);
},
{
name = center;
pos = (442,357);
},
{
name = top;
pos = (502,714);
},
{
name = topright;
pos = (916,714);
}
);
layerId = "9733853B-DD8E-49B4-939D-1F0D465E8B6E";
shapes = (
{
closed = 1;
nodes = (
(124,0,l),
(215,429,ls),
(229,498,o),
(243,585,o),
(247,626,c),
(251,626,l),
(327,0,l),
(398,0,l),
(742,627,l),
(744,627,l),
(732,584,o),
(715,511,o),
(696,424,cs),
(606,0,l),
(696,0,l),
(844,714,l),
(707,714,l),
(390,131,l),
(386,131,l),
(317,714,l),
(191,714,l),
(40,0,l)
);
}
);
width = 841;
},
{
anchors = (
{
name = bottom;
pos = (268,0);
},
{
name = center;
pos = (334,357);
},
{
name = top;
pos = (419,714);
},
{
name = topright;
pos = (722,714);
}
);
layerId = "A849C433-1DA2-4174-AEA9-F403839AA1E5";
shapes = (
{
closed = 1;
nodes = (
(76,0,l),
(175,466,ls),
(182,500,o),
(187,534,o),
(195,575,c),
(197,575,l),
(219,0,l),
(299,0,l),
(561,576,l),
(563,576,l),
(555,544,o),
(548,514,o),
(541,484,cs),
(438,0,l),
(517,0,l),
(669,714,l),
(549,714,l),
(286,130,l),
(284,130,l),
(263,714,l),
(151,714,l),
(0,0,l)
);
}
);
width = 647;
},
{
anchors = (
{
name = bottom;
pos = (315,0);
},
{
name = center;
pos = (388,357);
},
{
name = top;
pos = (466,714);
},
{
name = topright;
pos = (817,714);
}
);
layerId = "1C9FFC3E-B033-49C1-8526-F3CD51FE3A6C";
shapes = (
{
closed = 1;
nodes = (
(152,0,l),
(213,286,ls),
(220,318,o),
(225,354,o),
(231,394,c),
(234,394,l),
(242,0,l),
(378,0,l),
(554,400,l),
(557,400,l),
(550,374,o),
(542,349,o),
(537,323,cs),
(468,0,l),
(630,0,l),
(782,714,l),
(551,714,l),
(376,302,l),
(373,302,l),
(363,714,l),
(146,714,l),
(-5,0,l)
);
}
);
width = 742;
},
{
anchors = (
{
name = bottom;
pos = (378,0);
},
{
name = center;
pos = (465,357);
},
{
name = top;
pos = (533,714);
},
{
name = topright;
pos = (982,714);
}
);
layerId = "84606D06-D269-45BD-896C-8402F9D7AD38";
shapes = (
{
closed = 1;
nodes = (
(186,0,l),
(241,262,ls),
(254,326,o),
(267,411,o),
(283,512,cs),
(287,512,l),
(287,0,l),
(468,0,l),
(703,512,l),
(707,512,l),
(700,479,o),
(679,417,o),
(647,268,cs),
(590,0,l),
(761,0,l),
(914,714,l),
(657,714,l),
(424,207,l),
(420,207,l),
(420,714,l),
(167,714,l),
(16,0,l)
);
}
);
width = 909;
}
);
script = latin;
subCategory = Uppercase;
unicode = 77;
}
{
category = Letter;
color = 10;
glyphname = N;
layers = (
{
anchors = (
{
name = bottom;
pos = (175,0);
},
{
name = center;
pos = (238,357);
},
{
name = top;
pos = (327,714);
},
{
name = topright;
pos = (537,714);
}
);
layerId = "891911EE-97A3-4583-AC34-B57874F49FBA";
shapes = (
{
closed = 1;
nodes = (
(29,0,l),
(145,547,l),
(157,603,o),
(164,636,o),
(169,663,c),
(171,663,l),
(291,0,l),
(323,0,l),
(475,714,l),
(448,714,l),
(335,182,l),
(329,153,o),
(319,104,o),
(310,59,c),
(308,59,l),
(187,714,l),
(154,714,l),
(2,0,l)
);
}
);
width = 461;
},
{
anchors = (
{
name = bottom;
pos = (281,0);
},
{
name = center;
pos = (359,357);
},
{
name = top;
pos = (433,714);
},
{
name = topright;
pos = (750,714);
}
);
layerId = "4ABFEEF6-B0FE-443E-B48D-B4A70A3A2C9A";
shapes = (
{
closed = 1;
nodes = (
(77,0,l),
(183,502,ls),
(194,555,o),
(202,601,o),
(214,659,c),
(216,659,l),
(498,0,l),
(518,0,l),
(669,714,l),
(643,714,l),
(536,211,ls),
(526,164,o),
(515,106,o),
(505,54,c),
(503,54,l),
(220,714,l),
(201,714,l),
(50,0,l)
);
}
);
width = 674;
},
{
anchors = (
{
name = bottom;
pos = (225,0);
},
{
name = center;
pos = (295,357);
},
{
name = top;
pos = (376,714);
},
{
name = topright;
pos = (636,714);
}
);
associatedMasterId = "A849C433-1DA2-4174-AEA9-F403839AA1E5";
attr = {
coordinates = (
151,
70
);
};
background = {
shapes = (
{
closed = 1;
nodes = (
(122.14,0,l),
(187.55,308.05,ls),
(194.94,343.61,o),
(208.4,414.77,o),
(217.79,482.23,c),
(220.18,482.23,l),
(302.37,0,l),
(451.71,0,l),
(603.1,714,l),
(476.91,714,l),
(410.548,401.368,ls),
(403.16,364.42,o),
(391.82,303.62,o),
(382.26,243.21,c),
(379.26,243.21,l),
(297.85,714,l),
(147.95,714,l),
(-3.05,0,l)
);
}
);
};
layerId = "ee1666be-e040-48b9-9f5b-7b9bdfc5314d";
name = "SemiBold Condensed Italic (intermediate)";
shapes = (
{
closed = 1;
nodes = (
(115,0,l),
(184,321,l),
(191,358,o),
(205,429,o),
(214,496,c),
(217,496,l),
(301,0,l),
(442,0,l),
(593,714,l),
(475,714,l),
(405,388,l),
(398,351,o),
(387,290,o),
(377,229,c),
(374,229,l),
(290,714,l),
(149,714,l),
(-2,0,l)
);
}
);
width = 561;
},
{
anchors = (
{
name = bottom;
pos = (297,0);
},
{
name = center;
pos = (376,357);
},
{
name = top;
pos = (454,714);
},
{
name = topright;
pos = (782,714);
}
);
layerId = "9733853B-DD8E-49B4-939D-1F0D465E8B6E";
shapes = (
{
closed = 1;
nodes = (
(124,0,l),
(206,388,ls),
(222,461,o),
(237,550,o),
(242,592,c),
(245,592,l),
(466,0,l),
(561,0,l),
(712,714,l),
(627,714,l),
(543,321,ls),
(528,254,o),
(514,172,o),
(508,124,c),
(505,124,l),
(286,714,l),
(191,714,l),
(40,0,l)
);
}
);
width = 707;
},
{
anchors = (
{
name = bottom;
pos = (201,0);
},
{
name = center;
pos = (268,357);
},
{
name = top;
pos = (353,714);
},
{
name = topright;
pos = (589,714);
}
);
layerId = "A849C433-1DA2-4174-AEA9-F403839AA1E5";
shapes = (
{
closed = 1;
nodes = (
(77,0,l),
(154,366,l),
(162,404,o),
(184,502,o),
(194,578,c),
(197,578,l),
(292,0,l),
(384,0,l),
(536,714,l),
(458,714,l),
(376.996,329.996,l),
(369,290,o),
(354,217,o),
(342,145,c),
(339,145,l),
(246,714,l),
(151,714,l),
(0,0,l)
);
}
);
width = 513;
},
{
anchors = (
{
name = bottom;
pos = (247,0);
},
{
name = center;
pos = (320,357);
},
{
name = top;
pos = (398,714);
},
{
name = topright;
pos = (680,714);
}
);
layerId = "1C9FFC3E-B033-49C1-8526-F3CD51FE3A6C";
shapes = (
{
closed = 1;
nodes = (
(151,0,l),
(209,271,ls),
(216,305,o),
(224,359,o),
(233,421,c),
(235,421,l),
(309,0,l),
(495,0,l),
(646,714,l),
(489,714,l),
(432,447,ls),
(425,412,o),
(416,359,o),
(408,306,c),
(405,306,l),
(331,714,l),
(146,714,l),
(-5,0,l)
);
}
);
width = 605;
},
{
anchors = (
{
name = bottom;
pos = (330,0);
},
{
name = center;
pos = (405,357);
},
{
name = top;
pos = (493,714);
},
{
name = topright;
pos = (863,714);
}
);
layerId = "84606D06-D269-45BD-896C-8402F9D7AD38";
shapes = (
{
closed = 1;
nodes = (
(186,0,l),
(249,298,ls),
(263,363,o),
(275,476,o),
(277,502,c),
(281,502,l),
(422,0,l),
(644,0,l),
(795,714,l),
(625,714,l),
(561,415,ls),
(551,365,o),
(538,277,o),
(533,234,cs),
(529,234,l),
(389,714,l),
(167,714,l),
(16,0,l)
);
}
);
width = 790;
}
);
script = latin;
subCategory = Uppercase;
unicode = 78;
}
{
category = Letter;
glyphname = O;
kernLeft = O.right;
kernRight = O.left;
layers = (
{
anchors = (
{
name = bottom;
pos = (166,0);
},
{
name = center;
pos = (242,357);
},
{
name = top;
pos = (318,714);
},
{
name = topright;
pos = (520,714);
}
);
layerId = "891911EE-97A3-4583-AC34-B57874F49FBA";
shapes = (
{
closed = 1;
nodes = (
(351,-10,o),
(424,361,o),
(424,542,cs),
(424,671,o),
(380,724,o),
(300,724,cs),
(114,724,o),
(34,370,o),
(34,186,cs),
(34,52,o),
(78,-10,o),
(160,-10,cs)
);
},
{
closed = 1;
nodes = (
(97,15,o),
(61,66,o),
(61,188,cs),
(61,347,o),
(135,699,o),
(298,699,cs),
(366,699,o),
(397,653,o),
(397,540,cs),
(397,369,o),
(325,15,o),
(163,15,cs)
);
}
);
width = 444;
},
{
anchors = (
{
name = bottom;
pos = (302,0);
},
{
name = center;
pos = (378,357);
},
{
name = top;
pos = (454,714);
},
{
name = topright;
pos = (792,714);
}
);
layerId = "4ABFEEF6-B0FE-443E-B48D-B4A70A3A2C9A";
shapes = (
{
closed = 1;
nodes = (
(604,-10,o),
(676,290,o),
(676,446,cs),
(676,636,o),
(579,725,o),
(431,725,cs),
(193,725,o),
(84,495,o),
(84,276,cs),
(84,120,o),
(150,-10,o),
(334,-10,cs)
);
},
{
closed = 1;
nodes = (
(177,15,o),
(111,123,o),
(111,277,cs),
(111,450,o),
(193,700,o),
(429,700,cs),
(579,700,o),
(649,602,o),
(649,445,cs),
(649,288,o),
(571,15,o),
(335,15,cs)
);
}
);
width = 716;
},
{
anchors = (
{
name = bottom;
pos = (322,0);
},
{
name = center;
pos = (405,357);
},
{
name = top;
pos = (459,714);
},
{
name = topright;
pos = (804,714);
}
);
layerId = "FAB9F01D-70CE-4F71-A270-EC67BDAC6531";
shapes = (
{
closed = 1;
nodes = (
(586,-10,o),
(699,225,o),
(699,458,cs),
(699,619,o),
(611,725,o),
(438,725,cs),
(178,725,o),
(60,485,o),
(60,262,cs),
(60,98,o),
(152,-10,o),
(325,-10,cs)
);
},
{
closed = 1;
nodes = (
(258,117,o),
(212,167,o),
(212,262,cs),
(212,445,o),
(302,599,o),
(426,599,cs),
(506,599,o),
(547,542,o),
(547,454,cs),
(547,249,o),
(452,117,o),
(336,117,cs)
);
}
);
width = 730;
},
{
anchors = (
{
name = bottom;
pos = (212,0);
},
{
name = center;
pos = (299,357);
},
{
name = top;
pos = (363,714);
},
{
name = topright;
pos = (611,714);
}
);
layerId = "E7382CC2-7CD9-4594-B524-5D480E09B385";
shapes = (
{
closed = 1;
nodes = (
(441,-10,o),
(529,313,o),
(529,502,cs),
(529,650,o),
(474,725,o),
(349,725,cs),
(143,725,o),
(35,437,o),
(35,217,cs),
(35,61,o),
(94,-10,o),
(218,-10,cs)
);
},
{
closed = 1;
nodes = (
(187,102,o),
(166,130,o),
(166,216,cs),
(166,338,o),
(221,614,o),
(339,614,cs),
(379,614,o),
(400,579,o),
(400,505,cs),
(400,369,o),
(341,102,o),
(228,102,cs)
);
}
);
width = 536;
},
{
anchors = (
{
name = bottom;
pos = (324,0);
},
{
name = center;
pos = (399,357);
},
{
name = top;
pos = (456,714);
},
{
name = topright;
pos = (796,714);
}
);
layerId = "9733853B-DD8E-49B4-939D-1F0D465E8B6E";
shapes = (
{
closed = 1;
nodes = (
(568,-10,o),
(690,197,o),
(690,444,cs),
(690,618,o),
(595,725,o),
(433,725,cs),
(208,725,o),
(72,513,o),
(72,267,cs),
(72,96,o),
(166,-10,o),
(337,-10,cs)
);
},
{
closed = 1;
nodes = (
(232,69,o),
(167,143,o),
(167,269,cs),
(167,477,o),
(267,646,o),
(427,646,cs),
(531,646,o),
(595,573,o),
(595,446,cs),
(595,244,o),
(499,69,o),
(340,69,cs)
);
}
);
width = 721;
},
{
anchors = (
{
name = bottom;
pos = (192,0);
},
{
name = center;
pos = (273,357);
},
{
name = top;
pos = (343.009,714);
},
{
name = topright;
pos = (571,714);
}
);
layerId = "A849C433-1DA2-4174-AEA9-F403839AA1E5";
shapes = (
{
closed = 1;
nodes = (
(399,-10,o),
(481,334,o),
(481,522,cs),
(481,658,o),
(431,724,o),
(327,724,cs),
(131,724,o),
(35,416,o),
(35,200,cs),
(35,57,o),
(86,-10,o),
(191,-10,cs)
);
},
{
closed = 1;
nodes = (
(145,63,o),
(118,103,o),
(118,199,cs),
(118,327,o),
(173,652,o),
(320,652,cs),
(373,652,o),
(399,611,o),
(399,523,cs),
(399,363,o),
(333,63,o),
(197,63,cs)
);
}
);
width = 496;
},
{
anchors = (
{
name = bottom;
pos = (231,0);
},
{
name = center;
pos = (324,357);
},
{
name = top;
pos = (382,714);
},
{
name = topright;
pos = (649,714);
}
);
layerId = "1C9FFC3E-B033-49C1-8526-F3CD51FE3A6C";
shapes = (
{
closed = 1;
nodes = (
(480,-10,o),
(574,292,o),
(574,484,cs),
(574,642,o),
(513,725,o),
(369,725,cs),
(154,725,o),
(35,457,o),
(35,232,cs),
(35,65,o),
(101,-10,o),
(243,-10,cs)
);
},
{
closed = 1;
nodes = (
(226,139,o),
(210,156,o),
(210,231,cs),
(210,347,o),
(263,579,o),
(355,579,cs),
(384,579,o),
(400,550,o),
(400,489,cs),
(400,373,o),
(347,139,o),
(255,139,cs)
);
}
);
width = 574;
},
{
anchors = (
{
name = bottom;
pos = (326,0);
},
{
name = center;
pos = (411,357);
},
{
name = top;
pos = (455,714);
},
{
name = topright;
pos = (810,714);
}
);
layerId = "84606D06-D269-45BD-896C-8402F9D7AD38";
shapes = (
{
closed = 1;
nodes = (
(588,-10,o),
(706,228,o),
(706,450,cs),
(706,616,o),
(614,725,o),
(438,725,cs),
(173,725,o),
(51,487,o),
(51,265,cs),
(51,99,o),
(143,-10,o),
(325,-10,cs)
);
},
{
closed = 1;
nodes = (
(277,148,o),
(244,189,o),
(244,266,cs),
(244,410,o),
(315,567,o),
(422,567,cs),
(481,567,o),
(513,522,o),
(513,448,cs),
(513,284,o),
(438,148,o),
(342,148,cs)
);
}
);
width = 737;
}
);
script = latin;
subCategory = Uppercase;
unicode = 79;
}
{
category = Letter;
color = 10;
glyphname = P;
kernRight = P.left;
layers = (
{
anchors = (
{
name = bottom;
pos = (120,0);
},
{
name = center;
pos = (184,357);
},
{
name = top;
pos = (272,714);
},
{
name = topright;
pos = (428,714);
}
);
layerId = "891911EE-97A3-4583-AC34-B57874F49FBA";
shapes = (
{
closed = 1;
nodes = (
(29,0,l),
(94,306,l),
(142,306,ls),
(285,306,o),
(366,415,o),
(366,568,cs),
(366,661,o),
(318,714,o),
(219,714,cs),
(154,714,l),
(3,0,l)
);
},
{
closed = 1;
nodes = (
(99,331,l),
(176,689,l),
(216,689,ls),
(306,689,o),
(338,642,o),
(338,567,cs),
(338,436,o),
(278,331,o),
(140,331,cs)
);
}
);
width = 352;
},
{
anchors = (
{
name = bottom;
pos = (223,0);
},
{
name = center;
pos = (304,357);
},
{
name = top;
pos = (375,714);
},
{
name = topright;
pos = (634,714);
}
);
layerId = "4ABFEEF6-B0FE-443E-B48D-B4A70A3A2C9A";
shapes = (
{
closed = 1;
nodes = (
(77,0,l),
(141,305,l),
(282,305,ls),
(472,305,o),
(558,402,o),
(558,538,cs),
(558,654,o),
(487,714,o),
(356,714,cs),
(201,714,l),
(50,0,l)
);
},
{
closed = 1;
nodes = (
(147,330,l),
(223,689,l),
(351,689,ls),
(466,689,o),
(531,643,o),
(531,537,cs),
(531,415,o),
(459,330,o),
(286,330,cs)
);
}
);
width = 558;
},
{
anchors = (
{
name = bottom;
pos = (247,0);
},
{
name = center;
pos = (320,357);
},
{
name = top;
pos = (385,714);
},
{
name = topright;
pos = (684,714);
}
);
associatedMasterId = "9733853B-DD8E-49B4-939D-1F0D465E8B6E";
attr = {
coordinates = (
151,
100
);
};
background = {
shapes = (
{
closed = 1;
nodes = (
(176.97,0,l),
(229.87,253.38,l),
(280.45,253.38,ls),
(473.25,253.38,o),
(593.84,343.82,o),
(593.84,510.92,cs),
(593.84,627.41,o),
(525.91,714,o),
(350.56,714,cs),
(176.75,714,l),
(25.75,0,l)
);
},
{
closed = 1;
nodes = (
(256.85,377.79,l),
(301.6,588.81,l),
(348.93,588.81,ls),
(413.09,588.81,o),
(441.84,557.03,o),
(441.84,506.09,cs),
(441.84,424.69,o),
(386.46,377.79,o),
(299.94,377.79,cs)
);
}
);
};
layerId = "ba5467d2-3694-4ca1-abb0-8c06c932a788";
name = "SemiBold Italic (intermediate)";
shapes = (
{
closed = 1;
nodes = (
(175,0,l),
(228,254,l),
(304,254,ls),
(481,254,o),
(615,336,o),
(615,506,cs),
(615,630,o),
(550,714,o),
(376,714,cs),
(177,714,l),
(26,0,l)
);
},
{
closed = 1;
nodes = (
(255,378,l),
(300,590,l),
(370,590,ls),
(433,590,o),
(465,562,o),
(465,502,cs),
(465,424,o),
(405,378,o),
(316,378,cs)
);
}
);
width = 610;
},
{
anchors = (
{
name = bottom;
pos = (227,0);
},
{
name = center;
pos = (304,357);
},
{
name = top;
pos = (373,714);
},
{
name = topright;
pos = (642,714);
}
);
layerId = "9733853B-DD8E-49B4-939D-1F0D465E8B6E";
shapes = (
{
closed = 1;
nodes = (
(130,0,l),
(189,279,l),
(253,279,ls),
(458,279,o),
(567,367,o),
(567,528,cs),
(567,639,o),
(507,714,o),
(353,714,cs),
(192,714,l),
(41,0,l)
);
},
{
closed = 1;
nodes = (
(205,354,l),
(265,637,l),
(341,637,ls),
(432,637,o),
(476,604,o),
(476,525,cs),
(476,407,o),
(395,354,o),
(267,354,cs)
);
}
);
width = 567;
},
{
anchors = (
{
name = bottom;
pos = (146,0);
},
{
name = center;
pos = (211,357);
},
{
name = top;
pos = (298,714);
},
{
name = topright;
pos = (479,714);
}
);
layerId = "A849C433-1DA2-4174-AEA9-F403839AA1E5";
shapes = (
{
closed = 1;
nodes = (
(80,0,l),
(139,279,l),
(184,279,ls),
(335,279,o),
(422,399,o),
(422,558,cs),
(422,653,o),
(366,714,o),
(259,714,cs),
(151,714,l),
(0,0,l)
);
},
{
closed = 1;
nodes = (
(154,351,l),
(216,642,l),
(246,642,ls),
(307,642,o),
(339,610,o),
(339,548,cs),
(339,431,o),
(285,351,o),
(183,351,cs)
);
}
);
width = 404;
},
{
anchors = (
{
name = bottom;
pos = (185,0);
},
{
name = center;
pos = (253,357);
},
{
name = top;
pos = (336,714);
},
{
name = topright;
pos = (557,714);
}
);
layerId = "1C9FFC3E-B033-49C1-8526-F3CD51FE3A6C";
shapes = (
{
closed = 1;
nodes = (
(162,0,l),
(212,237,l),
(251,237,ls),
(437,237,o),
(512,406,o),
(512,543,cs),
(512,645,o),
(457,714,o),
(321,714,cs),
(146,714,l),
(-5,0,l)
);
},
{
closed = 1;
nodes = (
(242,381,l),
(283,570,l),
(292,570,ls),
(324,570,o),
(340,560,o),
(340,521,cs),
(340,439,o),
(307,381,o),
(254,381,cs)
);
}
);
width = 482;
},
{
anchors = (
{
name = bottom;
pos = (253,0);
},
{
name = center;
pos = (313,357);
},
{
name = top;
pos = (405,714);
},
{
name = topright;
pos = (696,714);
}
);
layerId = "84606D06-D269-45BD-896C-8402F9D7AD38";
shapes = (
{
closed = 1;
nodes = (
(207,0,l),
(256,237,l),
(298,237,ls),
(483,237,o),
(611,329,o),
(611,500,cs),
(611,620,o),
(538,714,o),
(349,714,cs),
(167,714,l),
(16,0,l)
);
},
{
closed = 1;
nodes = (
(290,393,l),
(325,558,l),
(354,558,ls),
(401,558,o),
(420,527,o),
(420,494,cs),
(420,436,o),
(381,393,o),
(321,393,cs)
);
}
);
width = 623;
}
);
script = latin;
subCategory = Uppercase;
unicode = 80;
}
{
category = Letter;
glyphname = Q;
kernLeft = O.right;
kernRight = O.left;
layers = (
{
anchors = (
{
name = bottom;
pos = (130,-171);
},
{
name = center;
pos = (229,276);
},
{
name = top;
pos = (318,714);
},
{
name = topright;
pos = (520,714);
}
);
layerId = "891911EE-97A3-4583-AC34-B57874F49FBA";
shapes = (
{
closed = 1;
nodes = (
(230,-171,l),
(256,-170,l),
(207,-2,l),
(363,53,o),
(424,377,o),
(424,542,cs),
(424,671,o),
(380,724,o),
(300,724,cs),
(114,724,o),
(34,370,o),
(34,186,cs),
(34,52,o),
(78,-10,o),
(160,-10,cs),
(168,-10,o),
(176,-9,o),
(183,-8,c)
);
},
{
closed = 1;
nodes = (
(97,15,o),
(61,66,o),
(61,188,cs),
(61,347,o),
(135,699,o),
(298,699,cs),
(366,699,o),
(397,653,o),
(397,540,cs),
(397,369,o),
(325,15,o),
(163,15,cs)
);
}
);
width = 444;
},
{
anchors = (
{
name = bottom;
pos = (266,-170);
},
{
name = center;
pos = (380,277);
},
{
name = top;
pos = (454,714);
},
{
name = topright;
pos = (792,714);
}
);
layerId = "4ABFEEF6-B0FE-443E-B48D-B4A70A3A2C9A";
shapes = (
{
closed = 1;
nodes = (
(445,-170,l),
(480,-170,l),
(367,-9,l),
(609,15,o),
(676,296,o),
(676,446,cs),
(676,636,o),
(579,725,o),
(431,725,cs),
(193,725,o),
(84,495,o),
(84,276,cs),
(84,115,o),
(154,-7,o),
(325,-10,cs),
(329,-10,o),
(331,-10,o),
(333,-10,c)
);
},
{
closed = 1;
nodes = (
(177,15,o),
(111,123,o),
(111,277,cs),
(111,450,o),
(193,700,o),
(429,700,cs),
(579,700,o),
(649,602,o),
(649,445,cs),
(649,288,o),
(571,15,o),
(335,15,cs)
);
}
);
width = 716;
},
{
anchors = (
{
name = bottom;
pos = (268,-170);
},
{
name = center;
pos = (381,277);
},
{
name = top;
pos = (456,714);
},
{
name = topright;
pos = (796,714);
}
);
layerId = "9733853B-DD8E-49B4-939D-1F0D465E8B6E";
shapes = (
{
closed = 1;
nodes = (
(461,-170,l),
(575,-170,l),
(441,7,l),
(600,60,o),
(690,238,o),
(690,444,cs),
(690,618,o),
(595,725,o),
(433,725,cs),
(208,725,o),
(72,513,o),
(72,267,cs),
(72,96,o),
(166,-10,o),
(337,-10,cs),
(342,-10,o),
(347,-10,o),
(353,-9,c)
);
},
{
closed = 1;
nodes = (
(232,69,o),
(167,143,o),
(167,269,cs),
(167,477,o),
(267,646,o),
(427,646,cs),
(531,646,o),
(595,573,o),
(595,446,cs),
(595,244,o),
(503,69,o),
(340,69,cs)
);
}
);
width = 721;
},
{
anchors = (
{
name = bottom;
pos = (156,-170);
},
{
name = center;
pos = (258,277);
},
{
name = top;
pos = (343.009,714);
},
{
name = topright;
pos = (571,714);
}
);
layerId = "A849C433-1DA2-4174-AEA9-F403839AA1E5";
shapes = (
{
closed = 1;
nodes = (
(237,-170,l),
(329,-170,l),
(271,9,l),
(421,79,o),
(481,360,o),
(481,522,cs),
(481,658,o),
(431,724,o),
(327,724,cs),
(131,724,o),
(35,416,o),
(35,200,cs),
(35,64,o),
(81,-4,o),
(175,-9,cs),
(181,-9,o),
(186,-9,o),
(192,-8,c)
);
},
{
closed = 1;
nodes = (
(145,63,o),
(118,103,o),
(118,199,cs),
(118,327,o),
(173,652,o),
(320,652,cs),
(373,652,o),
(399,611,o),
(399,523,cs),
(399,363,o),
(333,63,o),
(197,63,cs)
);
}
);
width = 496;
},
{
anchors = (
{
name = bottom;
pos = (195,-170);
},
{
name = center;
pos = (304,277);
},
{
name = top;
pos = (382,714);
},
{
name = topright;
pos = (649,714);
}
);
layerId = "1C9FFC3E-B033-49C1-8526-F3CD51FE3A6C";
shapes = (
{
closed = 1;
nodes = (
(250,-170,l),
(442,-170,l),
(374,26,l),
(515,112,o),
(574,332,o),
(574,484,c),
(574,642,o),
(513,725,o),
(369,725,cs),
(154,725,o),
(35,457,o),
(35,232,cs),
(35,86,o),
(85,11,o),
(192,-6,cs),
(197,-7,o),
(202,-8,o),
(207,-8,c)
);
},
{
closed = 1;
nodes = (
(226,139,o),
(210,156,o),
(210,231,cs),
(210,347,o),
(263,579,o),
(355,579,cs),
(384,579,o),
(400,550,o),
(400,489,cs),
(400,373,o),
(347,139,o),
(255,139,cs)
);
}
);
width = 574;
},
{
anchors = (
{
name = bottom;
pos = (274,-170);
},
{
name = center;
pos = (378,277);
},
{
name = top;
pos = (462,714);
},
{
name = topright;
pos = (810,714);
}
);
layerId = "84606D06-D269-45BD-896C-8402F9D7AD38";
shapes = (
{
closed = 1;
nodes = (
(401,-170,l),
(615,-170,l),
(499,36,l),
(640,116,o),
(706,287,o),
(706,450,cs),
(706,616,o),
(614,725,o),
(441,725,cs),
(173,725,o),
(51,487,o),
(51,265,cs),
(51,99,o),
(143,-10,o),
(311,-10,cs),
(315,-10,o),
(318,-10,o),
(322,-10,c)
);
},
{
closed = 1;
nodes = (
(277,151,o),
(244,189,o),
(244,263,cs),
(244,427,o),
(320,565,o),
(425,565,cs),
(481,565,o),
(513,526,o),
(513,449,cs),
(513,288,o),
(438,151,o),
(333,151,cs)
);
}
);
width = 737;
}
);
script = latin;
subCategory = Uppercase;
unicode = 81;
}
{
category = Letter;
color = 10;
glyphname = R;
layers = (
{
anchors = (
{
name = bottom;
pos = (123,0);
},
{
name = center;
pos = (183,357);
},
{
name = top;
pos = (275,714);
},
{
name = topright;
pos = (433,714);
}
);
layerId = "891911EE-97A3-4583-AC34-B57874F49FBA";
shapes = (
{
closed = 1;
nodes = (
(29,0,l),
(97,321,l),
(182,321,l),
(238,0,l),
(265,0,l),
(208,325,l),
(312,345,o),
(364,453,o),
(364,569,cs),
(364,666,o),
(309,714,o),
(229,714,cs),
(154,714,l),
(3,0,l)
);
},
{
closed = 1;
nodes = (
(103,346,l),
(176,689,l),
(220,689,ls),
(297,689,o),
(337,652,o),
(337,566,cs),
(337,469,o),
(293,346,o),
(174,346,cs)
);
}
);
width = 357;
},
{
anchors = (
{
name = bottom;
pos = (225,0);
},
{
name = center;
pos = (304,357);
},
{
name = top;
pos = (377,714);
},
{
name = topright;
pos = (638,714);
}
);
layerId = "4ABFEEF6-B0FE-443E-B48D-B4A70A3A2C9A";
shapes = (
{
closed = 1;
nodes = (
(77,0,l),
(145,320,l),
(332,320,l),
(446,0,l),
(475,0,l),
(358,325,l),
(487,347,o),
(558,421,o),
(558,549,cs),
(558,660,o),
(487,714,o),
(348,714,cs),
(201,714,l),
(50,0,l)
);
},
{
closed = 1;
nodes = (
(150,345,l),
(223,689,l),
(342,689,ls),
(470,689,o),
(531,643,o),
(531,548,cs),
(531,405,o),
(428,345,o),
(302,345,cs)
);
}
);
width = 562;
},
{
anchors = (
{
name = bottom;
pos = (176,0);
},
{
name = center;
pos = (235,357);
},
{
name = top;
pos = (327,714);
},
{
name = topright;
pos = (538,714);
}
);
associatedMasterId = "A849C433-1DA2-4174-AEA9-F403839AA1E5";
attr = {
coordinates = (
151,
70
);
};
background = {
shapes = (
{
closed = 1;
nodes = (
(130.02,0,l),
(188.14,278.26,l),
(216.69,278.26,l),
(267.03,0,l),
(413.81,0,l),
(342.49,305.85,l),
(427.61,337.39,o),
(481.56,429.63,o),
(481.56,550.46,cs),
(481.56,655.17,o),
(419.29,714,o),
(288.28,714,cs),
(147.95,714,l),
(-3.05,0,l)
);
},
{
closed = 1;
nodes = (
(212.29,387.13,l),
(256.87,600.91,l),
(275.67,600.91,ls),
(318.59,600.91,o),
(340.83,577.45,o),
(340.83,532.53,cs),
(340.83,462.49,o),
(309.2,387.13,o),
(237.99,387.13,cs)
);
}
);
};
layerId = "39d0dbd2-7113-4c8e-af9d-dfc07110efe9";
name = "SemiBold Condensed Italic (intermediate)";
shapes = (
{
closed = 1;
nodes = (
(123,0,l),
(182,282,l),
(215,282,l),
(265,0,l),
(403,0,l),
(333,307,l),
(419,338,o),
(473,431,o),
(473,552,cs),
(473,656,o),
(411,714,o),
(284,714,cs),
(149,714,l),
(-2,0,l)
);
},
{
closed = 1;
nodes = (
(204,384,l),
(251,607,l),
(271,607,ls),
(317,607,o),
(341,583,o),
(341,535,cs),
(341,462,o),
(307,384,o),
(233,384,cs)
);
}
);
width = 463;
},
{
anchors = (
{
name = bottom;
pos = (250,0);
},
{
name = center;
pos = (305,357);
},
{
name = top;
pos = (382,714);
},
{
name = topright;
pos = (648,714);
}
);
layerId = "9733853B-DD8E-49B4-939D-1F0D465E8B6E";
shapes = (
{
closed = 1;
nodes = (
(130,0,l),
(192,295,l),
(309,295,l),
(411,0,l),
(509,0,l),
(391,315,l),
(520,351,o),
(569,430,o),
(569,533,cs),
(569,652,o),
(496,714,o),
(349,714,cs),
(192,714,l),
(41,0,l)
);
},
{
closed = 1;
nodes = (
(208,371,l),
(265,636,l),
(341,636,ls),
(431,636,o),
(477,608,o),
(477,527,cs),
(477,435,o),
(419,371,o),
(286,371,cs)
);
}
);
width = 573;
},
{
anchors = (
{
name = bottom;
pos = (153,0);
},
{
name = center;
pos = (211,357);
},
{
name = top;
pos = (304,714);
},
{
name = topright;
pos = (493,714);
}
);
layerId = "A849C433-1DA2-4174-AEA9-F403839AA1E5";
shapes = (
{
closed = 1;
nodes = (
(80,0,l),
(143,299,l),
(199,299,l),
(253,0,l),
(340,0,l),
(276,315,l),
(366,338,o),
(423,440,o),
(423,559,cs),
(423,657,o),
(365,714,o),
(259,714,cs),
(151,714,l),
(0,0,l)
);
},
{
closed = 1;
nodes = (
(158,367,l),
(216,643,l),
(247,643,ls),
(307,643,o),
(339,611,o),
(339,549,cs),
(339,457,o),
(297,367,o),
(202,367,cs)
);
}
);
width = 418;
},
{
anchors = (
{
name = bottom;
pos = (197,0);
},
{
name = center;
pos = (257,357);
},
{
name = top;
pos = (348,714);
},
{
name = topright;
pos = (580,714);
}
);
layerId = "1C9FFC3E-B033-49C1-8526-F3CD51FE3A6C";
shapes = (
{
closed = 1;
nodes = (
(162,0,l),
(217,265,l),
(228,265,l),
(276,0,l),
(461,0,l),
(385,300,l),
(467,337,o),
(519,423,o),
(519,545,cs),
(519,654,o),
(454,714,o),
(307,714,cs),
(146,714,l),
(-5,0,l)
);
},
{
closed = 1;
nodes = (
(247,400,l),
(283,574,l),
(294,574,ls),
(326,574,o),
(342,556,o),
(342,522,cs),
(342,466,o),
(317,400,o),
(261,400,cs)
);
}
);
width = 505;
},
{
anchors = (
{
name = bottom;
pos = (276,0);
},
{
name = center;
pos = (313,357);
},
{
name = top;
pos = (414,714);
},
{
name = topright;
pos = (723,714);
}
);
layerId = "84606D06-D269-45BD-896C-8402F9D7AD38";
shapes = (
{
closed = 1;
nodes = (
(207,0,l),
(262,260,l),
(298,260,l),
(393,0,l),
(601,0,l),
(472,299,l),
(534,326,o),
(610,387,o),
(610,518,cs),
(610,649,o),
(520,714,o),
(356,714,cs),
(167,714,l),
(16,0,l)
);
},
{
closed = 1;
nodes = (
(293,405,l),
(327,568,l),
(353,568,ls),
(402,568,o),
(419,540,o),
(419,506,cs),
(419,433,o),
(369,405,o),
(318,405,cs)
);
}
);
width = 650;
}
);
script = latin;
subCategory = Uppercase;
unicode = 82;
}
{
category = Letter;
glyphname = S;
layers = (
{
anchors = (
{
name = bottom;
pos = (115,0);
},
{
name = center;
pos = (169,357);
},
{
name = top;
pos = (267,714);
},
{
name = topright;
pos = (417,714);
}
);
layerId = "891911EE-97A3-4583-AC34-B57874F49FBA";
shapes = (
{
closed = 1;
nodes = (
(203,-10,o),
(275,61,o),
(275,183,cs),
(275,252,o),
(240,306,o),
(191,361,cs),
(131,429,o),
(104,471,o),
(104,542,cs),
(104,645,o),
(163,699,o),
(249,699,cs),
(297,699,o),
(331,683,o),
(353,669,c),
(367,693,l),
(345,707,o),
(303,724,o),
(251,724,cs),
(153,724,o),
(77,663,o),
(77,540,cs),
(77,457,o),
(112,412,o),
(164,351,cs),
(221,285,o),
(248,244,o),
(248,182,cs),
(248,75,o),
(189,15,o),
(92,15,cs),
(40,15,o),
(1,28,o),
(-29,45,c),
(-29,16,l),
(-3,3,o),
(38,-10,o),
(90,-10,cs)
);
}
);
width = 341;
},
{
anchors = (
{
name = bottom;
pos = (193,0);
},
{
name = center;
pos = (264,357);
},
{
name = top;
pos = (345,714);
},
{
name = topright;
pos = (574,714);
}
);
layerId = "4ABFEEF6-B0FE-443E-B48D-B4A70A3A2C9A";
shapes = (
{
closed = 1;
nodes = (
(301,-10,o),
(434,41,o),
(434,184,cs),
(434,290,o),
(361,333,o),
(269,381,cs),
(207,413,o),
(144,448,o),
(144,532,cs),
(144,662,o),
(265,699,o),
(343,699,cs),
(405,699,o),
(444,689,o),
(498,662,c),
(509,687,l),
(461,710,o),
(416,724,o),
(344,724,cs),
(237,724,o),
(117,672,o),
(117,531,cs),
(117,441,o),
(185,393,o),
(252,360,cs),
(343,315,o),
(407,276,o),
(407,184,cs),
(407,60,o),
(287,15,o),
(198,15,cs),
(123,15,o),
(66,30,o),
(19,53,c),
(19,24,l),
(62,6,o),
(112,-10,o),
(198,-10,cs)
);
}
);
width = 498;
},
{
anchors = (
{
name = bottom;
pos = (196,0);
},
{
name = center;
pos = (269,357);
},
{
name = top;
pos = (338,714);
},
{
name = topright;
pos = (580,714);
}
);
layerId = "9733853B-DD8E-49B4-939D-1F0D465E8B6E";
shapes = (
{
closed = 1;
nodes = (
(343,-10,o),
(447,64,o),
(447,207,cs),
(447,305,o),
(388,346,o),
(302,398,cs),
(233,439,o),
(200,462,o),
(200,523,cs),
(200,600,o),
(258,645,o),
(340,645,cs),
(395,645,o),
(450,625,o),
(485,606,c),
(519,682,l),
(468,708,o),
(415,724,o),
(340,724,cs),
(211,724,o),
(105,649,o),
(105,517,cs),
(105,424,o),
(159,379,o),
(235,334,cs),
(321,285,o),
(353,253,o),
(353,200,cs),
(353,108,o),
(276,68,o),
(186,68,cs),
(114,68,o),
(59,89,o),
(19,110,c),
(19,22,l),
(65,0,o),
(116,-10,o),
(185,-10,cs)
);
}
);
width = 505;
},
{
anchors = (
{
name = bottom;
pos = (133,0);
},
{
name = center;
pos = (194,357);
},
{
name = top;
pos = (284,714);
},
{
name = topright;
pos = (452,714);
}
);
layerId = "A849C433-1DA2-4174-AEA9-F403839AA1E5";
shapes = (
{
closed = 1;
nodes = (
(248,-10,o),
(321,79,o),
(321,204,cs),
(321,281,o),
(297,330,o),
(245,382,cs),
(188,440,o),
(160,471,o),
(160,529,cs),
(160,604,o),
(210,649,o),
(274,649,cs),
(309,649,o),
(343,635,o),
(374,614,c),
(412,687,l),
(382,708,o),
(326,724,o),
(280,724,cs),
(156,724,o),
(76,644,o),
(76,520,cs),
(76,441,o),
(109,395,o),
(162,342,cs),
(223,279,o),
(237,250,o),
(237,197,cs),
(237,114,o),
(188,66,o),
(116,66,cs),
(69,66,o),
(23,83,o),
(-12,107,c),
(-23,23,l),
(8,2,o),
(56,-10,o),
(114,-10,cs)
);
}
);
width = 376;
},
{
anchors = (
{
name = bottom;
pos = (162,0);
},
{
name = center;
pos = (236,357);
},
{
name = top;
pos = (313,714);
},
{
name = topright;
pos = (510,714);
}
);
layerId = "1C9FFC3E-B033-49C1-8526-F3CD51FE3A6C";
shapes = (
{
closed = 1;
nodes = (
(322,-10,o),
(401,110,o),
(401,233,cs),
(401,314,o),
(379,369,o),
(317,417,cs),
(263,458,o),
(255,482,o),
(255,507,cs),
(255,552,o),
(284,570,o),
(314,570,cs),
(340,570,o),
(376,552,o),
(416,520,c),
(490,670,l),
(440,707,o),
(377,724,o),
(323,724,cs),
(157,724,o),
(79,619,o),
(79,491,cs),
(79,407,o),
(105,357,o),
(167,305,cs),
(214,265,o),
(224,243,o),
(224,213,cs),
(224,157,o),
(183,147,o),
(153,147,cs),
(107,147,o),
(52,177,o),
(18,207,c),
(-18,37,l),
(28,1,o),
(81,-10,o),
(152,-10,cs)
);
}
);
width = 435;
},
{
anchors = (
{
name = bottom;
pos = (213,0);
},
{
name = center;
pos = (289,357);
},
{
name = top;
pos = (359,714);
},
{
name = topright;
pos = (621,714);
}
);
layerId = "84606D06-D269-45BD-896C-8402F9D7AD38";
shapes = (
{
closed = 1;
nodes = (
(379,-10,o),
(477,77,o),
(477,219,cs),
(477,299,o),
(443,357,o),
(364,416,cs),
(301,463,o),
(285,486,o),
(285,516,cs),
(285,539,o),
(296,570,o),
(350,570,cs),
(394,570,o),
(447,550,o),
(492,527,c),
(558,672,l),
(499,705,o),
(425,724,o),
(348,724,cs),
(197,724,o),
(95,631,o),
(95,502,cs),
(95,415,o),
(138,357,o),
(204,303,cs),
(248,267,o),
(284,241,o),
(284,205,cs),
(284,168,o),
(259,147,o),
(211,147,cs),
(151,147,o),
(73,176,o),
(21,208,c),
(21,37,l),
(67,7,o),
(134,-10,o),
(205,-10,cs)
);
}
);
width = 548;
}
);
script = latin;
subCategory = Uppercase;
unicode = 83;
}
{
category = Letter;
glyphname = T;
kernLeft = T.right;
kernRight = T.left;
layers = (
{
anchors = (
{
name = bottom;
pos = (91,0);
},
{
name = center;
pos = (167,357);
},
{
name = top;
pos = (243,714);
},
{
name = topright;
pos = (370,714);
}
);
layerId = "891911EE-97A3-4583-AC34-B57874F49FBA";
shapes = (
{
closed = 1;
nodes = (
(91,0,l),
(238,689,l),
(366,689,l),
(371,714,l),
(90,714,l),
(85,689,l),
(212,689,l),
(65,0,l)
);
}
);
width = 294;
},
{
anchors = (
{
name = bottom;
pos = (187,0);
},
{
name = center;
pos = (263,357);
},
{
name = top;
pos = (339,714);
},
{
name = topright;
pos = (561,714);
}
);
layerId = "4ABFEEF6-B0FE-443E-B48D-B4A70A3A2C9A";
shapes = (
{
closed = 1;
nodes = (
(199,0,l),
(345,689,l),
(571,689,l),
(576,714,l),
(98,714,l),
(93,689,l),
(318,689,l),
(172,0,l)
);
}
);
width = 485;
},
{
anchors = (
{
name = bottom;
pos = (194,0);
},
{
name = center;
pos = (289,357);
},
{
name = top;
pos = (346,714);
},
{
name = topright;
pos = (576,714);
}
);
layerId = "9733853B-DD8E-49B4-939D-1F0D465E8B6E";
shapes = (
{
closed = 1;
nodes = (
(242,0,l),
(377,635,l),
(573,635,l),
(589,714,l),
(107,714,l),
(90,635,l),
(286,635,l),
(152,0,l)
);
}
);
width = 501;
},
{
anchors = (
{
name = bottom;
pos = (116,0);
},
{
name = center;
pos = (197,357);
},
{
name = top;
pos = (267,714);
},
{
name = topright;
pos = (419,714);
}
);
layerId = "A849C433-1DA2-4174-AEA9-F403839AA1E5";
shapes = (
{
closed = 1;
nodes = (
(146,0,l),
(282,641,l),
(405,641,l),
(421,714,l),
(95,714,l),
(79,641,l),
(202,641,l),
(66,0,l)
);
}
);
width = 344;
},
{
anchors = (
{
name = bottom;
pos = (159,0);
},
{
name = center;
pos = (252,357);
},
{
name = top;
pos = (310,714);
},
{
name = topright;
pos = (504,714);
}
);
layerId = "1C9FFC3E-B033-49C1-8526-F3CD51FE3A6C";
shapes = (
{
closed = 1;
nodes = (
(240,0,l),
(360,567,l),
(476,567,l),
(507,714,l),
(109,714,l),
(78,567,l),
(193,567,l),
(73,0,l)
);
}
);
width = 429;
},
{
anchors = (
{
name = bottom;
pos = (217,0);
},
{
name = center;
pos = (318,357);
},
{
name = top;
pos = (369,714);
},
{
name = topright;
pos = (625,714);
}
);
layerId = "84606D06-D269-45BD-896C-8402F9D7AD38";
shapes = (
{
closed = 1;
nodes = (
(306,0,l),
(422,556,l),
(577,556,l),
(612,714,l),
(110,714,l),
(76,556,l),
(231,556,l),
(115,0,l)
);
}
);
width = 552;
}
);
script = latin;
subCategory = Uppercase;
unicode = 84;
}
{
category = Letter;
glyphname = U;
kernLeft = U.right;
kernRight = U.left;
layers = (
{
anchors = (
{
name = bottom;
pos = (156,0);
},
{
name = center;
pos = (237,352);
},
{
name = top;
pos = (308,714);
},
{
name = topright;
pos = (499,714);
}
);
layerId = "891911EE-97A3-4583-AC34-B57874F49FBA";
shapes = (
{
closed = 1;
nodes = (
(267,-10,o),
(305,82,o),
(336,225,cs),
(443,714,l),
(417,714,l),
(310,226,ls),
(281,92,o),
(250,15,o),
(155,15,cs),
(98,15,o),
(58,50,o),
(58,119,cs),
(58,143,o),
(61,175,o),
(68,209,cs),
(176,714,l),
(150,714,l),
(42,209,ls),
(35,174,o),
(31,142,o),
(31,118,cs),
(31,34,o),
(83,-10,o),
(154,-10,cs)
);
}
);
width = 423;
},
{
anchors = (
{
name = bottom;
pos = (290,0);
},
{
name = center;
pos = (390,352);
},
{
name = top;
pos = (442,714);
},
{
name = topright;
pos = (768,714);
}
);
layerId = "4ABFEEF6-B0FE-443E-B48D-B4A70A3A2C9A";
shapes = (
{
closed = 1;
nodes = (
(448,-10,o),
(556,69,o),
(595,252,cs),
(693,714,l),
(666,714,l),
(568,257,ls),
(533,94,o),
(436,15,o),
(301,15,cs),
(188,15,o),
(116,74,o),
(116,185,cs),
(116,206,o),
(119,231,o),
(124,256,cs),
(221,714,l),
(194,714,l),
(96,254,ls),
(91,228,o),
(88,205,o),
(88,183,cs),
(88,58,o),
(172,-10,o),
(300,-10,cs)
);
}
);
width = 692;
},
{
anchors = (
{
name = bottom;
pos = (298,0);
},
{
name = center;
pos = (383,352);
},
{
name = top;
pos = (434,714);
},
{
name = topright;
pos = (752,714);
}
);
layerId = "9733853B-DD8E-49B4-939D-1F0D465E8B6E";
shapes = (
{
closed = 1;
nodes = (
(474,-10,o),
(555,87,o),
(588,243,c),
(688,714,l),
(599,714,l),
(500,250,ls),
(474,131,o),
(423,69,o),
(305,69,cs),
(214,69,o),
(168,114,o),
(168,189,cs),
(168,210,o),
(172,247,o),
(179,278,cs),
(272,714,l),
(183,714,l),
(91,283,ls),
(83,245,o),
(79,211,o),
(79,188,cs),
(79,61,o),
(151,-10,o),
(300,-10,cs)
);
}
);
width = 677;
},
{
anchors = (
{
name = bottom;
pos = (180,0);
},
{
name = center;
pos = (265,352);
},
{
name = top;
pos = (331,714);
},
{
name = topright;
pos = (546,714);
}
);
layerId = "A849C433-1DA2-4174-AEA9-F403839AA1E5";
shapes = (
{
closed = 1;
nodes = (
(305,-10,o),
(362,80,o),
(392,223,cs),
(498,714,l),
(418,714,l),
(314,231,ls),
(288,114,o),
(254,63,o),
(186,63,cs),
(139,63,o),
(114,91,o),
(114,150,cs),
(114,170,o),
(117,195,o),
(122,220,cs),
(227,714,l),
(147,714,l),
(43,224,ls),
(36,194,o),
(33,164,o),
(33,140,cs),
(33,45,o),
(86,-10,o),
(176,-10,cs)
);
}
);
width = 472;
},
{
anchors = (
{
name = bottom;
pos = (216,0);
},
{
name = center;
pos = (311,352);
},
{
name = top;
pos = (367,714);
},
{
name = topright;
pos = (619,714);
}
);
layerId = "1C9FFC3E-B033-49C1-8526-F3CD51FE3A6C";
shapes = (
{
closed = 1;
nodes = (
(373,-10,o),
(451,70,o),
(483,221,cs),
(588,714,l),
(421,714,l),
(321,247,ls),
(304,167,o),
(282,139,o),
(243,139,cs),
(218,139,o),
(205,155,o),
(205,193,cs),
(205,207,o),
(207,226,o),
(212,246,cs),
(311,714,l),
(144,714,l),
(45,249,ls),
(39,219,o),
(35,187,o),
(35,164,cs),
(35,55,o),
(105,-10,o),
(220,-10,cs)
);
}
);
width = 544;
},
{
anchors = (
{
name = bottom;
pos = (286,0);
},
{
name = center;
pos = (384,352);
},
{
name = top;
pos = (432,714);
},
{
name = topright;
pos = (774,714);
}
);
layerId = "84606D06-D269-45BD-896C-8402F9D7AD38";
shapes = (
{
closed = 1;
nodes = (
(489,-10,o),
(574,85,o),
(611,259,cs),
(708,714,l),
(517,714,l),
(424,278,ls),
(404,185,o),
(373,150,o),
(316,150,cs),
(275,150,o),
(253,173,o),
(253,212,cs),
(253,229,o),
(256,249,o),
(260,268,cs),
(355,714,l),
(164,714,l),
(67,263,ls),
(63,242,o),
(61,217,o),
(61,197,cs),
(61,77,o),
(149,-10,o),
(298,-10,cs)
);
}
);
width = 701;
}
);
script = latin;
subCategory = Uppercase;
unicode = 85;
}
{
category = Letter;
glyphname = V;
kernLeft = V.right;
kernRight = V.left;
layers = (
{
anchors = (
{
name = bottom;
pos = (116,0);
},
{
name = center;
pos = (253,357);
},
{
name = top;
pos = (268,714);
},
{
name = topright;
pos = (420,714);
}
);
layerId = "891911EE-97A3-4583-AC34-B57874F49FBA";
shapes = (
{
closed = 1;
nodes = (
(119,0,l),
(423,714,l),
(395,714,l),
(151,140,ls),
(136,104,o),
(120,65,o),
(109,34,c),
(107,34,l),
(108,62,o),
(108,86,o),
(108,123,cs),
(110,714,l),
(84,714,l),
(84,0,l)
);
}
);
width = 344;
},
{
anchors = (
{
name = bottom;
pos = (212,0);
},
{
name = center;
pos = (358,357);
},
{
name = top;
pos = (364,714);
},
{
name = topright;
pos = (611,714);
}
);
layerId = "4ABFEEF6-B0FE-443E-B48D-B4A70A3A2C9A";
shapes = (
{
closed = 1;
nodes = (
(219,0,l),
(610,714,l),
(581,714,l),
(272,144,ls),
(247,99,o),
(230,67,o),
(215,37,c),
(213,37,l),
(211,69,o),
(207,110,o),
(202,146,cs),
(131,714,l),
(106,714,l),
(196,0,l)
);
}
);
width = 535;
},
{
anchors = (
{
name = bottom;
pos = (217,0);
},
{
name = center;
pos = (368,357);
},
{
name = top;
pos = (359,714);
},
{
name = topright;
pos = (627,714);
}
);
layerId = "9733853B-DD8E-49B4-939D-1F0D465E8B6E";
shapes = (
{
closed = 1;
nodes = (
(264,0,l),
(644,714,l),
(545,714,l),
(313,263,ls),
(281,200,o),
(256,149,o),
(236,101,c),
(234,101,l),
(235,149,o),
(231,207,o),
(225,262,cs),
(180,714,l),
(92,714,l),
(169,0,l)
);
}
);
width = 552;
},
{
anchors = (
{
name = bottom;
pos = (146,0);
},
{
name = center;
pos = (286,357);
},
{
name = top;
pos = (297,714);
},
{
name = topright;
pos = (479,714);
}
);
layerId = "A849C433-1DA2-4174-AEA9-F403839AA1E5";
shapes = (
{
closed = 1;
nodes = (
(182,0,l),
(485.992,714,l),
(400,714,l),
(207,245,ls),
(185,190,o),
(169,144,o),
(159,108,c),
(157,108,l),
(162,171,o),
(164,219,o),
(164,265,cs),
(168,714,l),
(86,714,l),
(90,0,l)
);
}
);
width = 404;
},
{
anchors = (
{
name = bottom;
pos = (204,0);
},
{
name = center;
pos = (352,357);
},
{
name = top;
pos = (355,714);
},
{
name = topright;
pos = (594,714);
}
);
layerId = "1C9FFC3E-B033-49C1-8526-F3CD51FE3A6C";
shapes = (
{
closed = 1;
nodes = (
(299,0,l),
(611,714,l),
(432,714,l),
(287,350,ls),
(270,308,o),
(258,269,o),
(248,228,c),
(246,228,l),
(252,279,o),
(255,311,o),
(256,352,cs),
(265,714,l),
(93,714,l),
(107,0,l)
);
}
);
width = 519;
},
{
anchors = (
{
name = bottom;
pos = (228,0);
},
{
name = center;
pos = (382,357);
},
{
name = top;
pos = (375,714);
},
{
name = topright;
pos = (690,714);
}
);
layerId = "84606D06-D269-45BD-896C-8402F9D7AD38";
shapes = (
{
closed = 1;
nodes = (
(337,0,l),
(691,714,l),
(489,714,l),
(318,321,ls),
(304,291,o),
(281,225,o),
(269,173,c),
(265,173,l),
(272,213,o),
(274,302,o),
(272,354,cs),
(260,714,l),
(73,714,l),
(124,0,l)
);
}
);
width = 617;
}
);
script = latin;
subCategory = Uppercase;
unicode = 86;
}
{
category = Letter;
glyphname = W;
kernLeft = V.right;
kernRight = V.left;
layers = (
{
anchors = (
{
name = bottom;
pos = (243,0);
},
{
name = center;
pos = (372,357);
},
{
name = top;
pos = (395,714);
},
{
name = topright;
pos = (674,714);
}
);
layerId = "891911EE-97A3-4583-AC34-B57874F49FBA";
shapes = (
{
closed = 1;
nodes = (
(112,0,l),
(335,571,ls),
(345,596,o),
(356,626,o),
(365,653,c),
(367,653,l),
(365,620,o),
(364,593,o),
(363,561,cs),
(344,0,l),
(382,0,l),
(670,714,l),
(641,714,l),
(428,180,ls),
(401,112,o),
(386,73,o),
(370,29,c),
(368,29,l),
(371,79,o),
(372,120,o),
(374,171,cs),
(392,714,l),
(366,714,l),
(144,152,ls),
(132,121,o),
(115,76,o),
(100,34,c),
(98,34,l),
(99,58,o),
(100,92,o),
(101,141,cs),
(110,714,l),
(84,714,l),
(74,0,l)
);
}
);
width = 598;
},
{
anchors = (
{
name = bottom;
pos = (357,0);
},
{
name = center;
pos = (508,357);
},
{
name = top;
pos = (509,714);
},
{
name = topright;
pos = (902,714);
}
);
layerId = "4ABFEEF6-B0FE-443E-B48D-B4A70A3A2C9A";
shapes = (
{
closed = 1;
nodes = (
(182,0,l),
(470,601,ls),
(480,622,o),
(489,642,o),
(501,674,c),
(503,674,l),
(503,642,o),
(504,616,o),
(506,580,cs),
(543,0,l),
(565,0,l),
(891,714,l),
(863,714,l),
(614,166,ls),
(593,120,o),
(578,84,o),
(564,48,c),
(561,48,l),
(561,85,o),
(560,130,o),
(558,167,cs),
(522,714,l),
(497,714,l),
(234,167,ls),
(210,117,o),
(198,89,o),
(182,52,c),
(179,52,l),
(179,91,o),
(178,132,o),
(176,171,cs),
(149,714,l),
(125,714,l),
(160,0,l)
);
}
);
width = 826;
},
{
anchors = (
{
name = bottom;
pos = (382,0);
},
{
name = center;
pos = (525,357);
},
{
name = top;
pos = (523,714);
},
{
name = topright;
pos = (931,714);
}
);
layerId = "9733853B-DD8E-49B4-939D-1F0D465E8B6E";
shapes = (
{
closed = 1;
nodes = (
(229,0,l),
(440,457,ls),
(470,523,o),
(486,559,o),
(499,599,c),
(502,599,l),
(502,558,o),
(503,504,o),
(506,460,cs),
(528,0,l),
(619,0,l),
(943,714,l),
(848,714,l),
(661,282,ls),
(636,223,o),
(615,161,o),
(597,110,c),
(594,110,l),
(595,159,o),
(594,233,o),
(590,296,cs),
(570,714,l),
(479,714,l),
(283,294,ls),
(255,235,o),
(227,162,o),
(208,110,c),
(205,110,l),
(208,163,o),
(211,224,o),
(209,279,cs),
(195,714,l),
(107,714,l),
(137,0,l)
);
}
);
width = 856;
},
{
anchors = (
{
name = bottom;
pos = (271,0);
},
{
name = center;
pos = (401,357);
},
{
name = top;
pos = (422,714);
},
{
name = topright;
pos = (729,714);
}
);
layerId = "A849C433-1DA2-4174-AEA9-F403839AA1E5";
shapes = (
{
closed = 1;
nodes = (
(164,0,l),
(342,459,ls),
(354,490,o),
(365,524,o),
(376,556,c),
(378,556,l),
(375,520,o),
(372,483,o),
(371,453,cs),
(354,0,l),
(449,0,l),
(732,714,l),
(650,714,l),
(478,273,ls),
(461,227,o),
(444,182,o),
(424,126,c),
(422,126,l),
(425,170,o),
(429,216,o),
(431,280,cs),
(446,714,l),
(373,714,l),
(198,266,ls),
(180,219,o),
(162,172,o),
(146,126,c),
(144,126,l),
(147,161,o),
(150,207,o),
(152,266,cs),
(165,714,l),
(87,714,l),
(70,0,l)
);
}
);
width = 653;
},
{
anchors = (
{
name = bottom;
pos = (316,0);
},
{
name = center;
pos = (451,357);
},
{
name = top;
pos = (467,714);
},
{
name = topright;
pos = (819,714);
}
);
layerId = "1C9FFC3E-B033-49C1-8526-F3CD51FE3A6C";
shapes = (
{
closed = 1;
nodes = (
(253,0,l),
(353,262,ls),
(365,291,o),
(375,321,o),
(385,351,c),
(387,351,l),
(383,316,o),
(380,280,o),
(380,252,cs),
(375,0,l),
(565,0,l),
(837,714,l),
(669,714,l),
(559,417,l),
(540,365,o),
(526,329,o),
(516,295,c),
(514,295,l),
(517,338,o),
(519,366,o),
(521,416,cs),
(532,714,l),
(396,714,l),
(275,416,ls),
(258,373,o),
(243,334,o),
(228,294,c),
(227,294,l),
(231,324,o),
(235,365,o),
(238,418,cs),
(254,714,l),
(93,714,l),
(66,0,l)
);
}
);
width = 744;
},
{
anchors = (
{
name = bottom;
pos = (400,0);
},
{
name = center;
pos = (547,357);
},
{
name = top;
pos = (546,714);
},
{
name = topright;
pos = (1008,714);
}
);
layerId = "84606D06-D269-45BD-896C-8402F9D7AD38";
shapes = (
{
closed = 1;
nodes = (
(310,0,l),
(420,259,ls),
(445,317,o),
(467,375,o),
(487,437,c),
(491,437,l),
(487,383,o),
(485,325,o),
(485,274,cs),
(485,0,l),
(710,0,l),
(1020,714,l),
(831,714,l),
(696,372,ls),
(674,316,o),
(645,232,o),
(630,180,c),
(626,180,l),
(630,227,o),
(631,294,o),
(631,327,cs),
(631,714,l),
(467,714,l),
(303,337,ls),
(282,289,o),
(259,232,o),
(245,188,c),
(241,188,l),
(246,232,o),
(249,299,o),
(250,356,cs),
(255,714,l),
(74,714,l),
(98,0,l)
);
}
);
width = 935;
}
);
script = latin;
subCategory = Uppercase;
unicode = 87;
}
